Funever Sans Display-Thin.ufo
<glyph name="exclam" format="2">
	<advance width="180"/>
	<unicode hex="0021"/>
	<outline>
		<contour>
			<point x="90" y="-10" type="curve"/>
			<point x="111" y="-10"/>
			<point x="125" y="7"/>
			<point x="125" y="29" type="curve"/>
			<point x="125" y="45"/>
			<point x="111" y="60"/>
			<point x="90" y="60" type="curve"/>
			<point x="70" y="60"/>
			<point x="55" y="43"/>
			<point x="55" y="21" type="curve"/>
			<point x="55" y="5"/>
			<point x="69" y="-10"/>
		</contour>
		<contour>
			<point x="100" y="200" type="line"/>
			<point x="110" y="700" type="line"/>
			<point x="70" y="700" type="line"/>
			<point x="80" y="200" type="line"/>
		</contour>
	</outline>
</glyph>
<glyph name="numbersign" format="2">
	<advance width="599"/>
	<unicode hex="0023"/>
	<outline>
		<contour>
			<point x="514" y="230" type="line"/>
			<point x="35" y="230" type="line"/>
			<point x="35" y="210" type="line"/>
			<point x="514" y="210" type="line"/>
		</contour>
		<contour>
			<point x="564" y="490" type="line"/>
			<point x="85" y="490" type="line"/>
			<point x="85" y="470" type="line"/>
			<point x="564" y="470" type="line"/>
		</contour>
		<contour>
			<point x="100" y="-22" type="line"/>
			<point x="298" y="717" type="line"/>
			<point x="279" y="722" type="line"/>
			<point x="81" y="-17" type="line"/>
		</contour>
		<contour>
			<point x="320" y="-22" type="line"/>
			<point x="518" y="717" type="line"/>
			<point x="499" y="722" type="line"/>
			<point x="301" y="-17" type="line"/>
		</contour>
	</outline>
</glyph>
<glyph name="percent" format="2">
	<advance width="1007"/>
	<unicode hex="0025"/>
	<outline>
		<contour>
			<point x="306" y="-23" type="line"/>
			<point x="731" y="713" type="line"/>
			<point x="714" y="723" type="line"/>
			<point x="289" y="-13" type="line"/>
		</contour>
		<contour>
			<point x="250" y="360" type="curve"/>
			<point x="353" y="360"/>
			<point x="425" y="447"/>
			<point x="425" y="554" type="curve"/>
			<point x="425" y="633"/>
			<point x="356" y="710"/>
			<point x="250" y="710" type="curve"/>
			<point x="148" y="710"/>
			<point x="75" y="623"/>
			<point x="75" y="516" type="curve"/>
			<point x="75" y="437"/>
			<point x="144" y="360"/>
		</contour>
		<contour>
			<point x="770" y="-10" type="curve"/>
			<point x="873" y="-10"/>
			<point x="945" y="77"/>
			<point x="945" y="184" type="curve"/>
			<point x="945" y="263"/>
			<point x="876" y="340"/>
			<point x="770" y="340" type="curve"/>
			<point x="668" y="340"/>
			<point x="595" y="253"/>
			<point x="595" y="146" type="curve"/>
			<point x="595" y="67"/>
			<point x="664" y="-10"/>
		</contour>
		<contour>
			<point x="250" y="380" type="curve"/>
			<point x="156" y="380"/>
			<point x="95" y="448"/>
			<point x="95" y="518" type="curve"/>
			<point x="95" y="613"/>
			<point x="159" y="690"/>
			<point x="250" y="690" type="curve"/>
			<point x="344" y="690"/>
			<point x="405" y="622"/>
			<point x="405" y="552" type="curve"/>
			<point x="405" y="457"/>
			<point x="341" y="380"/>
		</contour>
		<contour>
			<point x="770" y="10" type="curve"/>
			<point x="676" y="10"/>
			<point x="615" y="78"/>
			<point x="615" y="148" type="curve"/>
			<point x="615" y="243"/>
			<point x="679" y="320"/>
			<point x="770" y="320" type="curve"/>
			<point x="864" y="320"/>
			<point x="925" y="252"/>
			<point x="925" y="182" type="curve"/>
			<point x="925" y="87"/>
			<point x="861" y="10"/>
		</contour>
	</outline>
</glyph>
<glyph name="ampersand" format="2">
	<advance width="637"/>
	<unicode hex="0026"/>
	<outline>
		<contour>
			<point x="367" y="710" type="line"/>
			<point x="264" y="710"/>
			<point x="111" y="618"/>
			<point x="111" y="511" type="curve"/>
			<point x="111" y="390"/>
			<point x="237" y="236"/>
			<point x="583" y="-10" type="curve"/>
			<point x="594" y="7" type="line"/>
			<point x="257" y="246"/>
			<point x="131" y="404"/>
			<point x="131" y="511" type="curve"/>
			<point x="131" y="600"/>
			<point x="267" y="690"/>
			<point x="367" y="690" type="curve"/>
		</contour>
		<contour>
			<point x="181" y="365" type="line"/>
			<point x="74" y="279"/>
			<point x="35" y="220"/>
			<point x="35" y="138" type="curve"/>
			<point x="35" y="56"/>
			<point x="119" y="-10"/>
			<point x="224" y="-10" type="curve"/>
			<point x="350" y="-10"/>
			<point x="511" y="74"/>
			<point x="602" y="233" type="curve"/>
			<point x="586" y="243" type="line"/>
			<point x="495" y="86"/>
			<point x="331" y="10"/>
			<point x="233" y="10" type="curve"/>
			<point x="130" y="10"/>
			<point x="55" y="66"/>
			<point x="55" y="138" type="curve"/>
			<point x="55" y="211"/>
			<point x="105" y="279"/>
			<point x="194" y="350" type="curve"/>
		</contour>
	</outline>
</glyph>
<glyph name="quotesingle" format="2">
	<advance width="180"/>
	<unicode hex="0027"/>
	<outline>
		<contour>
			<point x="100" y="500" type="line"/>
			<point x="110" y="700" type="line"/>
			<point x="70" y="700" type="line"/>
			<point x="80" y="500" type="line"/>
		</contour>
	</outline>
</glyph>
<glyph name="parenleft" format="2">
	<advance width="263"/>
	<unicode hex="0028"/>
	<outline>
		<contour>
			<point x="228" y="-180" type="line"/>
			<point x="134" y="-46"/>
			<point x="90" y="94"/>
			<point x="90" y="260" type="curve"/>
			<point x="90" y="426"/>
			<point x="134" y="566"/>
			<point x="228" y="700" type="curve"/>
			<point x="204" y="700" type="line"/>
			<point x="110" y="563"/>
			<point x="70" y="420"/>
			<point x="70" y="260" type="curve"/>
			<point x="70" y="98"/>
			<point x="112" y="-46"/>
			<point x="204" y="-180" type="curve"/>
		</contour>
	</outline>
</glyph>
<glyph name="asterisk" format="2">
	<advance width="350"/>
	<unicode hex="002A"/>
	<outline>
		<contour>
			<point x="195" y="400" type="line"/>
			<point x="185" y="550" type="line"/>
			<point x="195" y="700" type="line"/>
			<point x="155" y="700" type="line"/>
			<point x="165" y="550" type="line"/>
			<point x="155" y="400" type="line"/>
		</contour>
		<contour>
			<point x="295" y="642" type="line"/>
			<point x="170" y="559" type="line"/>
			<point x="35" y="492" type="line"/>
			<point x="55" y="458" type="line"/>
			<point x="180" y="541" type="line"/>
			<point x="315" y="608" type="line"/>
		</contour>
		<contour>
			<point x="35" y="608" type="line"/>
			<point x="170" y="541" type="line"/>
			<point x="295" y="458" type="line"/>
			<point x="315" y="492" type="line"/>
			<point x="180" y="559" type="line"/>
			<point x="55" y="642" type="line"/>
		</contour>
	</outline>
</glyph>
<glyph name="plus" format="2">
	<advance width="470"/>
	<unicode hex="002B"/>
	<outline>
		<contour>
			<point x="435" y="310" type="line"/>
			<point x="35" y="310" type="line"/>
			<point x="35" y="290" type="line"/>
			<point x="435" y="290" type="line"/>
		</contour>
		<contour>
			<point x="245" y="100" type="line"/>
			<point x="245" y="500" type="line"/>
			<point x="225" y="500" type="line"/>
			<point x="225" y="100" type="line"/>
		</contour>
	</outline>
</glyph>
<glyph name="comma" format="2">
	<advance width="126"/>
	<unicode hex="002C"/>
	<outline>
		<contour>
			<point x="29" y="-141" type="line"/>
			<point x="91" y="49" type="line"/>
			<point x="52" y="60" type="line"/>
			<point x="10" y="-136" type="line"/>
		</contour>
	</outline>
</glyph>
<glyph name="hyphenminus" format="2">
	<advance width="270"/>
	<unicode hex="002D"/>
	<unicode hex="00AD"/>
	<outline>
		<contour>
			<point x="235" y="260" type="line"/>
			<point x="35" y="260" type="line"/>
			<point x="35" y="240" type="line"/>
			<point x="235" y="240" type="line"/>
		</contour>
	</outline>
</glyph>
<glyph name="period" format="2">
	<advance width="160"/>
	<unicode hex="002E"/>
	<outline>
		<contour>
			<point x="80" y="-10" type="curve"/>
			<point x="101" y="-10"/>
			<point x="115" y="7"/>
			<point x="115" y="29" type="curve"/>
			<point x="115" y="45"/>
			<point x="101" y="60"/>
			<point x="80" y="60" type="curve"/>
			<point x="60" y="60"/>
			<point x="45" y="43"/>
			<point x="45" y="21" type="curve"/>
			<point x="45" y="5"/>
			<point x="59" y="-10"/>
		</contour>
	</outline>
</glyph>
<glyph name="slash" format="2">
	<advance width="396"/>
	<unicode hex="002F"/>
	<outline>
		<contour>
			<point x="54" y="-75" type="line"/>
			<point x="361" y="768" type="line"/>
			<point x="342" y="775" type="line"/>
			<point x="35" y="-68" type="line"/>
		</contour>
	</outline>
</glyph>
<glyph name="zero" format="2">
	<advance width="550"/>
	<unicode hex="0030"/>
	<outline>
		<contour>
			<point x="275" y="-10" type="curve"/>
			<point x="411" y="-10"/>
			<point x="508" y="168"/>
			<point x="508" y="390" type="curve"/>
			<point x="508" y="552"/>
			<point x="416" y="710"/>
			<point x="275" y="710" type="curve"/>
			<point x="139" y="710"/>
			<point x="43" y="532"/>
			<point x="43" y="310" type="curve"/>
			<point x="43" y="148"/>
			<point x="134" y="-10"/>
		</contour>
		<contour>
			<point x="275" y="10" type="curve"/>
			<point x="146" y="10"/>
			<point x="63" y="159"/>
			<point x="63" y="312" type="curve"/>
			<point x="63" y="522"/>
			<point x="151" y="690"/>
			<point x="275" y="690" type="curve"/>
			<point x="404" y="690"/>
			<point x="488" y="541"/>
			<point x="488" y="388" type="curve"/>
			<point x="488" y="178"/>
			<point x="399" y="10"/>
		</contour>
	</outline>
</glyph>
<glyph name="one" format="2">
	<advance width="500"/>
	<unicode hex="0031"/>
	<outline>
		<contour>
			<point x="337" y="0" type="line"/>
			<point x="337" y="720" type="line"/>
			<point x="336" y="720" type="line"/>
			<point x="98" y="496" type="line"/>
			<point x="113" y="483" type="line"/>
			<point x="330" y="687" type="line"/>
			<point x="317" y="687" type="line"/>
			<point x="317" y="0" type="line"/>
		</contour>
	</outline>
</glyph>
<glyph name="two" format="2">
	<advance width="550"/>
	<unicode hex="0032"/>
	<outline>
		<contour>
			<point x="90" y="0" type="line"/>
			<point x="261" y="98"/>
			<point x="469" y="299"/>
			<point x="469" y="468" type="curve"/>
			<point x="469" y="600"/>
			<point x="320" y="710"/>
			<point x="111" y="710" type="curve"/>
			<point x="111" y="690" type="line"/>
			<point x="301" y="690"/>
			<point x="449" y="593"/>
			<point x="449" y="468" type="curve"/>
			<point x="449" y="306"/>
			<point x="252" y="116"/>
			<point x="51" y="1" type="curve"/>
			<point x="51" y="0" type="line"/>
			<point x="499" y="0" type="line"/>
			<point x="499" y="20" type="line"/>
			<point x="101" y="20" type="line"/>
		</contour>
	</outline>
</glyph>
<glyph name="three" format="2">
	<advance width="550"/>
	<unicode hex="0033"/>
	<outline>
		<contour>
			<point x="264" y="364" type="line"/>
			<point x="355" y="400"/>
			<point x="446" y="460"/>
			<point x="446" y="547" type="curve"/>
			<point x="446" y="637"/>
			<point x="308" y="710"/>
			<point x="113" y="710" type="curve"/>
			<point x="113" y="690" type="line"/>
			<point x="295" y="690"/>
			<point x="426" y="625"/>
			<point x="426" y="547" type="curve"/>
			<point x="426" y="469"/>
			<point x="340" y="402"/>
			<point x="203" y="368" type="curve"/>
			<point x="203" y="367" type="line"/>
			<point x="302" y="350"/>
			<point x="450" y="300"/>
			<point x="450" y="193" type="curve"/>
			<point x="450" y="63"/>
			<point x="273" y="10"/>
			<point x="82" y="10" type="curve"/>
			<point x="82" y="-10" type="line"/>
			<point x="318" y="-10"/>
			<point x="469" y="61"/>
			<point x="469" y="192" type="curve"/>
			<point x="469" y="310"/>
			<point x="324" y="358"/>
			<point x="264" y="371" type="curve"/>
		</contour>
	</outline>
</glyph>
<glyph name="four" format="2">
	<advance width="550"/>
	<unicode hex="0034"/>
	<outline>
		<contour>
			<point x="390" y="661" type="line"/>
			<point x="390" y="203" type="line"/>
			<point x="390" y="196" type="line"/>
			<point x="390" y="0" type="line"/>
			<point x="410" y="0" type="line"/>
			<point x="410" y="724" type="line"/>
			<point x="409" y="724" type="line"/>
			<point x="42" y="191" type="line"/>
			<point x="42" y="190" type="line"/>
			<point x="509" y="190" type="line"/>
			<point x="509" y="210" type="line"/>
			<point x="403" y="210" type="line"/>
			<point x="398" y="210" type="line"/>
			<point x="80" y="210" type="line"/>
		</contour>
	</outline>
</glyph>
<glyph name="five" format="2">
	<advance width="550"/>
	<unicode hex="0035"/>
	<outline>
		<contour>
			<point x="476" y="680" type="line"/>
			<point x="476" y="700" type="line"/>
			<point x="115" y="700" type="line"/>
			<point x="105" y="456" type="line"/>
			<point x="273" y="456"/>
			<point x="447" y="395"/>
			<point x="447" y="289" type="curve"/>
			<point x="447" y="113"/>
			<point x="220" y="36"/>
			<point x="74" y="10" type="curve"/>
			<point x="78" y="-10" type="line"/>
			<point x="225" y="16"/>
			<point x="467" y="98"/>
			<point x="467" y="290" type="curve"/>
			<point x="467" y="403"/>
			<point x="292" y="474"/>
			<point x="119" y="474" type="curve"/>
			<point x="124" y="461" type="line"/>
			<point x="135" y="696" type="line"/>
			<point x="119" y="680" type="line"/>
		</contour>
	</outline>
</glyph>
<glyph name="six" format="2">
	<advance width="550"/>
	<unicode hex="0036"/>
	<outline>
		<contour>
			<point x="385" y="710" type="line"/>
			<point x="293" y="637"/>
			<point x="60" y="423"/>
			<point x="60" y="229" type="curve"/>
			<point x="60" y="83"/>
			<point x="138" y="-10"/>
			<point x="262" y="-10" type="curve"/>
			<point x="383" y="-10"/>
			<point x="478" y="59"/>
			<point x="478" y="196" type="curve"/>
			<point x="478" y="309"/>
			<point x="351" y="427"/>
			<point x="137" y="427" type="curve"/>
			<point x="137" y="407" type="line"/>
			<point x="345" y="407"/>
			<point x="459" y="291"/>
			<point x="459" y="196" type="curve"/>
			<point x="459" y="70"/>
			<point x="371" y="10"/>
			<point x="262" y="10" type="curve"/>
			<point x="146" y="10"/>
			<point x="80" y="97"/>
			<point x="80" y="229" type="curve"/>
			<point x="80" y="404"/>
			<point x="297" y="616"/>
			<point x="397" y="695" type="curve"/>
		</contour>
	</outline>
</glyph>
<glyph name="seven" format="2">
	<advance width="550"/>
	<unicode hex="0037"/>
	<outline>
		<contour>
			<point x="465" y="680" type="line"/>
			<point x="465" y="692" type="line"/>
			<point x="153" y="0" type="line"/>
			<point x="171" y="-9" type="line"/>
			<point x="490" y="699" type="line"/>
			<point x="490" y="700" type="line"/>
			<point x="61" y="700" type="line"/>
			<point x="61" y="680" type="line"/>
		</contour>
	</outline>
</glyph>
<glyph name="eight" format="2">
	<advance width="550"/>
	<unicode hex="0038"/>
	<outline>
		<contour>
			<point x="275" y="-10" type="curve"/>
			<point x="407" y="-10"/>
			<point x="500" y="89"/>
			<point x="500" y="212" type="curve"/>
			<point x="500" y="302"/>
			<point x="411" y="390"/>
			<point x="275" y="390" type="curve"/>
			<point x="143" y="390"/>
			<point x="50" y="291"/>
			<point x="50" y="168" type="curve"/>
			<point x="50" y="78"/>
			<point x="139" y="-10"/>
		</contour>
		<contour>
			<point x="275" y="10" type="curve"/>
			<point x="151" y="10"/>
			<point x="70" y="89"/>
			<point x="70" y="170" type="curve"/>
			<point x="70" y="281"/>
			<point x="155" y="370"/>
			<point x="275" y="370" type="curve"/>
			<point x="399" y="370"/>
			<point x="480" y="291"/>
			<point x="480" y="210" type="curve"/>
			<point x="480" y="99"/>
			<point x="395" y="10"/>
		</contour>
		<contour>
			<point x="275" y="370" type="curve"/>
			<point x="387" y="370"/>
			<point x="466" y="454"/>
			<point x="466" y="559" type="curve"/>
			<point x="466" y="635"/>
			<point x="391" y="710"/>
			<point x="275" y="710" type="curve"/>
			<point x="163" y="710"/>
			<point x="84" y="626"/>
			<point x="84" y="521" type="curve"/>
			<point x="84" y="445"/>
			<point x="159" y="370"/>
		</contour>
		<contour>
			<point x="275" y="390" type="curve"/>
			<point x="171" y="390"/>
			<point x="104" y="456"/>
			<point x="104" y="523" type="curve"/>
			<point x="104" y="616"/>
			<point x="175" y="690"/>
			<point x="275" y="690" type="curve"/>
			<point x="379" y="690"/>
			<point x="447" y="624"/>
			<point x="447" y="557" type="curve"/>
			<point x="447" y="464"/>
			<point x="375" y="390"/>
		</contour>
	</outline>
</glyph>
<glyph name="nine" format="2">
	<advance width="550"/>
	<unicode hex="0039"/>
	<outline>
		<contour>
			<point x="153" y="-10" type="line"/>
			<point x="244" y="63"/>
			<point x="478" y="277"/>
			<point x="478" y="471" type="curve"/>
			<point x="478" y="618"/>
			<point x="390" y="710"/>
			<point x="266" y="710" type="curve"/>
			<point x="144" y="710"/>
			<point x="60" y="601"/>
			<point x="60" y="474" type="curve"/>
			<point x="60" y="361"/>
			<point x="188" y="273"/>
			<point x="401" y="273" type="curve"/>
			<point x="401" y="293" type="line"/>
			<point x="193" y="293"/>
			<point x="79" y="379"/>
			<point x="79" y="474" type="curve"/>
			<point x="79" y="590"/>
			<point x="157" y="690"/>
			<point x="266" y="690" type="curve"/>
			<point x="382" y="690"/>
			<point x="458" y="603"/>
			<point x="458" y="471" type="curve"/>
			<point x="458" y="296"/>
			<point x="241" y="84"/>
			<point x="141" y="5" type="curve"/>
		</contour>
	</outline>
</glyph>
<glyph name="less" format="2">
	<advance width="470"/>
	<unicode hex="003C"/>
	<outline>
		<contour>
			<point x="77" y="300" type="line"/>
			<point x="435" y="474" type="line"/>
			<point x="424" y="490" type="line"/>
			<point x="35" y="302" type="line"/>
			<point x="35" y="301" type="line"/>
			<point x="423" y="111" type="line"/>
			<point x="434" y="128" type="line"/>
			<point x="77" y="303" type="line"/>
		</contour>
	</outline>
</glyph>
<glyph name="question" format="2">
	<advance width="348"/>
	<unicode hex="003F"/>
	<outline>
		<contour>
			<point x="35" y="692" type="line"/>
			<point x="177" y="692"/>
			<point x="293" y="592"/>
			<point x="293" y="494" type="curve"/>
			<point x="293" y="399"/>
			<point x="230" y="309"/>
			<point x="111" y="246" type="curve"/>
			<point x="121" y="229" type="line"/>
			<point x="241" y="292"/>
			<point x="313" y="384"/>
			<point x="313" y="496" type="curve"/>
			<point x="313" y="608"/>
			<point x="188" y="710"/>
			<point x="35" y="710" type="curve"/>
		</contour>
		<contour>
			<point x="124" y="-10" type="curve"/>
			<point x="145" y="-10"/>
			<point x="159" y="7"/>
			<point x="159" y="29" type="curve"/>
			<point x="159" y="45"/>
			<point x="145" y="60"/>
			<point x="124" y="60" type="curve"/>
			<point x="104" y="60"/>
			<point x="89" y="43"/>
			<point x="89" y="21" type="curve"/>
			<point x="89" y="5"/>
			<point x="103" y="-10"/>
		</contour>
	</outline>
</glyph>
<glyph name="at" format="2">
	<advance width="890"/>
	<unicode hex="0040"/>
	<outline>
		<contour>
			<point x="445" y="-110" type="curve"/>
			<point x="524" y="-110"/>
			<point x="594" y="-90"/>
			<point x="655" y="-51" type="curve"/>
			<point x="643" y="-35" type="line"/>
			<point x="585" y="-72"/>
			<point x="519" y="-90"/>
			<point x="445" y="-90" type="curve"/>
			<point x="201" y="-90"/>
			<point x="55" y="85"/>
			<point x="55" y="257" type="curve"/>
			<point x="55" y="495"/>
			<point x="213" y="690"/>
			<point x="445" y="690" type="curve"/>
			<point x="689" y="690"/>
			<point x="835" y="515"/>
			<point x="835" y="343" type="curve"/>
			<point x="835" y="180"/>
			<point x="762" y="114"/>
			<point x="697" y="114" type="curve"/>
			<point x="663" y="114"/>
			<point x="574" y="117"/>
			<point x="574" y="231" type="curve"/>
			<point x="574" y="501" type="line"/>
			<point x="554" y="501" type="line"/>
			<point x="554" y="231" type="line"/>
			<point x="554" y="103"/>
			<point x="647" y="94"/>
			<point x="689" y="94" type="curve"/>
			<point x="787" y="94"/>
			<point x="855" y="178"/>
			<point x="855" y="346" type="curve"/>
			<point x="855" y="514"/>
			<point x="698" y="710"/>
			<point x="445" y="710" type="curve"/>
			<point x="208" y="710"/>
			<point x="35" y="516"/>
			<point x="35" y="254" type="curve"/>
			<point x="35" y="81"/>
			<point x="184" y="-110"/>
		</contour>
		<contour>
			<point x="574" y="512" type="line"/>
			<point x="374" y="512"/>
			<point x="265" y="379"/>
			<point x="265" y="240" type="curve"/>
			<point x="265" y="145"/>
			<point x="363" y="94"/>
			<point x="449" y="94" type="curve"/>
			<point x="502" y="94"/>
			<point x="540" y="97"/>
			<point x="606" y="121" type="curve"/>
			<point x="600" y="140" type="line"/>
			<point x="534" y="117"/>
			<point x="487" y="114"/>
			<point x="457" y="114" type="curve"/>
			<point x="381" y="114"/>
			<point x="285" y="153"/>
			<point x="285" y="240" type="curve"/>
			<point x="285" y="363"/>
			<point x="387" y="492"/>
			<point x="574" y="492" type="curve"/>
		</contour>
	</outline>
</glyph>
<glyph name="A" format="2">
	<advance width="763"/>
	<unicode hex="0041"/>
	<outline>
		<contour>
			<point x="162" y="238" type="line"/>
			<point x="601" y="238" type="line"/>
			<point x="591" y="258" type="line"/>
			<point x="172" y="258" type="line"/>
		</contour>
		<contour>
			<point x="381" y="714" type="line"/>
			<point x="35" y="4" type="line"/>
			<point x="52" y="-7" type="line"/>
			<point x="387" y="679" type="line"/>
			<point x="377" y="679" type="line"/>
			<point x="711" y="-7" type="line"/>
			<point x="728" y="4" type="line"/>
			<point x="383" y="714" type="line"/>
		</contour>
	</outline>
</glyph>
<glyph name="B" format="2">
	<advance width="464"/>
	<unicode hex="0042"/>
	<outline>
		<contour>
			<point x="90" y="0" type="line"/>
			<point x="90" y="700" type="line"/>
			<point x="70" y="700" type="line"/>
			<point x="70" y="0" type="line"/>
		</contour>
		<contour>
			<point x="70" y="350" type="line"/>
			<point x="259" y="350"/>
			<point x="393" y="436"/>
			<point x="393" y="557" type="curve"/>
			<point x="393" y="678"/>
			<point x="255" y="710"/>
			<point x="70" y="710" type="curve"/>
			<point x="70" y="690" type="line"/>
			<point x="242" y="690"/>
			<point x="373" y="662"/>
			<point x="374" y="557" type="curve"/>
			<point x="374" y="448"/>
			<point x="232" y="367"/>
			<point x="70" y="367" type="curve"/>
		</contour>
		<contour>
			<point x="70" y="-10" type="line"/>
			<point x="294" y="-10"/>
			<point x="429" y="92"/>
			<point x="429" y="214" type="curve"/>
			<point x="429" y="336"/>
			<point x="279" y="367"/>
			<point x="70" y="367" type="curve"/>
			<point x="70" y="347" type="line"/>
			<point x="270" y="347"/>
			<point x="408" y="318"/>
			<point x="408" y="214" type="curve"/>
			<point x="408" y="100"/>
			<point x="279" y="10"/>
			<point x="70" y="10" type="curve"/>
		</contour>
	</outline>
</glyph>
<glyph name="D" format="2">
	<advance width="613"/>
	<unicode hex="0044"/>
	<outline>
		<contour>
			<point x="90" y="0" type="line"/>
			<point x="90" y="700" type="line"/>
			<point x="70" y="700" type="line"/>
			<point x="70" y="0" type="line"/>
		</contour>
		<contour>
			<point x="70" y="-10" type="line"/>
			<point x="370" y="-10"/>
			<point x="578" y="180"/>
			<point x="578" y="418" type="curve"/>
			<point x="578" y="653"/>
			<point x="349" y="710"/>
			<point x="70" y="710" type="curve"/>
			<point x="70" y="690" type="line"/>
			<point x="335" y="690"/>
			<point x="558" y="643"/>
			<point x="558" y="418" type="curve"/>
			<point x="558" y="189"/>
			<point x="357" y="10"/>
			<point x="70" y="10" type="curve"/>
		</contour>
	</outline>
</glyph>
<glyph name="E" format="2">
	<advance width="421"/>
	<unicode hex="0045"/>
	<outline>
		<contour>
			<point x="90" y="371" type="line"/>
			<point x="90" y="680" type="line"/>
			<point x="357" y="680" type="line"/>
			<point x="357" y="700" type="line"/>
			<point x="70" y="700" type="line"/>
			<point x="70" y="0" type="line"/>
			<point x="386" y="0" type="line"/>
			<point x="386" y="20" type="line"/>
			<point x="90" y="20" type="line"/>
			<point x="90" y="351" type="line"/>
			<point x="342" y="351" type="line"/>
			<point x="342" y="371" type="line"/>
		</contour>
	</outline>
</glyph>
<glyph name="F" format="2">
	<advance width="392"/>
	<unicode hex="0046"/>
	<outline>
		<contour>
			<point x="90" y="361" type="line"/>
			<point x="90" y="680" type="line"/>
			<point x="357" y="680" type="line"/>
			<point x="357" y="700" type="line"/>
			<point x="70" y="700" type="line"/>
			<point x="70" y="0" type="line"/>
			<point x="90" y="0" type="line"/>
			<point x="90" y="341" type="line"/>
			<point x="342" y="341" type="line"/>
			<point x="342" y="361" type="line"/>
		</contour>
	</outline>
</glyph>
<glyph name="G" format="2">
	<advance width="638"/>
	<unicode hex="0047"/>
	<outline>
		<contour>
			<point x="538" y="710" type="line"/>
			<point x="223" y="710"/>
			<point x="35" y="480"/>
			<point x="35" y="242" type="curve"/>
			<point x="35" y="77"/>
			<point x="204" y="-10"/>
			<point x="353" y="-10" type="curve"/>
			<point x="444" y="-10"/>
			<point x="509" y="-4"/>
			<point x="568" y="16" type="curve"/>
			<point x="568" y="300" type="line"/>
			<point x="548" y="300" type="line"/>
			<point x="548" y="22" type="line"/>
			<point x="561" y="35" type="line"/>
			<point x="503" y="17"/>
			<point x="418" y="10"/>
			<point x="366" y="10" type="curve"/>
			<point x="218" y="10"/>
			<point x="55" y="84"/>
			<point x="55" y="242" type="curve"/>
			<point x="55" y="470"/>
			<point x="236" y="690"/>
			<point x="538" y="690" type="curve"/>
		</contour>
	</outline>
</glyph>
<glyph name="H" format="2">
	<advance width="697"/>
	<unicode hex="0048"/>
	<outline>
		<contour>
			<point x="90" y="361" type="line"/>
			<point x="607" y="361" type="line"/>
			<point x="607" y="0" type="line"/>
			<point x="627" y="0" type="line"/>
			<point x="627" y="700" type="line"/>
			<point x="607" y="700" type="line"/>
			<point x="607" y="381" type="line"/>
			<point x="90" y="381" type="line"/>
			<point x="90" y="700" type="line"/>
			<point x="70" y="700" type="line"/>
			<point x="70" y="0" type="line"/>
			<point x="90" y="0" type="line"/>
		</contour>
	</outline>
</glyph>
<glyph name="J" format="2">
	<advance width="300"/>
	<unicode hex="004A"/>
	<outline>
		<contour>
			<point x="39" y="-10" type="line"/>
			<point x="178" y="18"/>
			<point x="230" y="91"/>
			<point x="230" y="263" type="curve"/>
			<point x="230" y="700" type="line"/>
			<point x="210" y="700" type="line"/>
			<point x="210" y="263" type="line"/>
			<point x="210" y="99"/>
			<point x="160" y="36"/>
			<point x="35" y="10" type="curve"/>
		</contour>
	</outline>
</glyph>
<glyph name="K" format="2">
	<advance width="505"/>
	<unicode hex="004B"/>
	<outline>
		<contour>
			<point x="90" y="0" type="line"/>
			<point x="90" y="700" type="line"/>
			<point x="70" y="700" type="line"/>
			<point x="70" y="0" type="line"/>
		</contour>
		<contour>
			<point x="90" y="344" type="line"/>
			<point x="456" y="13" type="line"/>
			<point x="470" y="28" type="line"/>
			<point x="120" y="345" type="line"/>
			<point x="452" y="667" type="line"/>
			<point x="438" y="681" type="line"/>
		</contour>
	</outline>
</glyph>
<glyph name="L" format="2">
	<advance width="421"/>
	<unicode hex="004C"/>
	<outline>
		<contour>
			<point x="70" y="0" type="line"/>
			<point x="386" y="0" type="line"/>
			<point x="386" y="20" type="line"/>
			<point x="90" y="20" type="line"/>
			<point x="90" y="700" type="line"/>
			<point x="70" y="700" type="line"/>
		</contour>
	</outline>
</glyph>
<glyph name="M" format="2">
	<advance width="838"/>
	<unicode hex="004D"/>
	<outline>
		<contour>
			<point x="418" y="194" type="line"/>
			<point x="420" y="194" type="line"/>
			<point x="661" y="666" type="line"/>
			<point x="657" y="666" type="line"/>
			<point x="783" y="-4" type="line"/>
			<point x="803" y="2" type="line"/>
			<point x="668" y="722" type="line"/>
			<point x="667" y="722" type="line"/>
			<point x="417" y="234" type="line"/>
			<point x="421" y="234" type="line"/>
			<point x="171" y="722" type="line"/>
			<point x="170" y="722" type="line"/>
			<point x="35" y="2" type="line"/>
			<point x="55" y="-4" type="line"/>
			<point x="181" y="666" type="line"/>
			<point x="177" y="666" type="line"/>
		</contour>
	</outline>
</glyph>
<glyph name="N" format="2">
	<advance width="726"/>
	<unicode hex="004E"/>
	<outline>
		<contour>
			<point x="90" y="659" type="line"/>
			<point x="655" y="-14" type="line"/>
			<point x="656" y="-14" type="line"/>
			<point x="656" y="700" type="line"/>
			<point x="636" y="700" type="line"/>
			<point x="636" y="40" type="line"/>
			<point x="71" y="714" type="line"/>
			<point x="70" y="714" type="line"/>
			<point x="70" y="0" type="line"/>
			<point x="90" y="0" type="line"/>
		</contour>
	</outline>
</glyph>
<glyph name="O" format="2">
	<advance width="770"/>
	<unicode hex="004F"/>
	<outline>
		<contour>
			<point x="385" y="-10" type="curve"/>
			<point x="590" y="-10"/>
			<point x="735" y="168"/>
			<point x="735" y="390" type="curve"/>
			<point x="735" y="552"/>
			<point x="597" y="710"/>
			<point x="385" y="710" type="curve"/>
			<point x="180" y="710"/>
			<point x="35" y="532"/>
			<point x="35" y="310" type="curve"/>
			<point x="35" y="148"/>
			<point x="173" y="-10"/>
		</contour>
		<contour>
			<point x="385" y="10" type="curve"/>
			<point x="185" y="10"/>
			<point x="55" y="159"/>
			<point x="55" y="312" type="curve"/>
			<point x="55" y="522"/>
			<point x="192" y="690"/>
			<point x="385" y="690" type="curve"/>
			<point x="585" y="690"/>
			<point x="715" y="541"/>
			<point x="715" y="388" type="curve"/>
			<point x="715" y="178"/>
			<point x="578" y="10"/>
		</contour>
	</outline>
</glyph>
<glyph name="P" format="2">
	<advance width="448"/>
	<unicode hex="0050"/>
	<outline>
		<contour>
			<point x="70" y="232" type="line"/>
			<point x="269" y="232"/>
			<point x="413" y="358"/>
			<point x="413" y="516" type="curve"/>
			<point x="413" y="672"/>
			<point x="255" y="710"/>
			<point x="70" y="710" type="curve"/>
			<point x="70" y="690" type="line"/>
			<point x="246" y="690"/>
			<point x="393" y="656"/>
			<point x="394" y="516" type="curve"/>
			<point x="394" y="365"/>
			<point x="250" y="252"/>
			<point x="70" y="252" type="curve"/>
		</contour>
		<contour>
			<point x="90" y="0" type="line"/>
			<point x="90" y="700" type="line"/>
			<point x="70" y="700" type="line"/>
			<point x="70" y="0" type="line"/>
		</contour>
	</outline>
</glyph>
<glyph name="Q" format="2">
	<advance width="770"/>
	<unicode hex="0051"/>
	<outline>
		<contour>
			<point x="385" y="-10" type="curve"/>
			<point x="590" y="-10"/>
			<point x="735" y="168"/>
			<point x="735" y="390" type="curve"/>
			<point x="735" y="552"/>
			<point x="597" y="710"/>
			<point x="385" y="710" type="curve"/>
			<point x="180" y="710"/>
			<point x="35" y="532"/>
			<point x="35" y="310" type="curve"/>
			<point x="35" y="148"/>
			<point x="173" y="-10"/>
		</contour>
		<contour>
			<point x="385" y="10" type="curve"/>
			<point x="185" y="10"/>
			<point x="55" y="159"/>
			<point x="55" y="312" type="curve"/>
			<point x="55" y="522"/>
			<point x="192" y="690"/>
			<point x="385" y="690" type="curve"/>
			<point x="585" y="690"/>
			<point x="715" y="541"/>
			<point x="715" y="388" type="curve"/>
			<point x="715" y="178"/>
			<point x="578" y="10"/>
		</contour>
		<contour>
			<point x="385" y="6" type="line"/>
			<point x="363" y="-8" type="line"/>
			<point x="729" y="-125" type="line"/>
			<point x="735" y="-106" type="line"/>
		</contour>
	</outline>
</glyph>
<glyph name="R" format="2">
	<advance width="504"/>
	<unicode hex="0052"/>
	<outline>
		<contour>
			<point x="90" y="0" type="line"/>
			<point x="90" y="700" type="line"/>
			<point x="70" y="700" type="line"/>
			<point x="70" y="0" type="line"/>
		</contour>
		<contour>
			<point x="211" y="312" type="line"/>
			<point x="317" y="362"/>
			<point x="414" y="424"/>
			<point x="414" y="516" type="curve"/>
			<point x="414" y="672"/>
			<point x="256" y="710"/>
			<point x="71" y="710" type="curve"/>
			<point x="71" y="690" type="line"/>
			<point x="247" y="690"/>
			<point x="394" y="656"/>
			<point x="394" y="516" type="curve"/>
			<point x="394" y="431"/>
			<point x="298" y="375"/>
			<point x="188" y="324" type="curve"/>
			<point x="451" y="-6" type="line"/>
			<point x="469" y="4" type="line"/>
			<point x="215" y="321" type="line"/>
		</contour>
	</outline>
</glyph>
<glyph name="S" format="2">
	<advance width="377"/>
	<unicode hex="0053"/>
	<outline>
		<contour>
			<point x="291" y="710" type="line"/>
			<point x="188" y="710"/>
			<point x="35" y="618"/>
			<point x="35" y="511" type="curve"/>
			<point x="35" y="440"/>
			<point x="102" y="398"/>
			<point x="163" y="353" type="curve"/>
			<point x="224" y="308"/>
			<point x="322" y="249"/>
			<point x="322" y="179" type="curve"/>
			<point x="322" y="80"/>
			<point x="156" y="10"/>
			<point x="53" y="10" type="curve"/>
			<point x="53" y="-10" type="line"/>
			<point x="172" y="-10"/>
			<point x="342" y="69"/>
			<point x="342" y="179" type="curve"/>
			<point x="342" y="266"/>
			<point x="239" y="324"/>
			<point x="174" y="370" type="curve"/>
			<point x="125" y="405"/>
			<point x="55" y="456"/>
			<point x="55" y="511" type="curve"/>
			<point x="55" y="610"/>
			<point x="201" y="690"/>
			<point x="291" y="690" type="curve"/>
		</contour>
	</outline>
</glyph>
<glyph name="T" format="2">
	<advance width="681"/>
	<unicode hex="0054"/>
	<outline>
		<contour>
			<point x="331" y="680" type="line"/>
			<point x="331" y="0" type="line"/>
			<point x="351" y="0" type="line"/>
			<point x="351" y="680" type="line"/>
			<point x="646" y="680" type="line"/>
			<point x="646" y="700" type="line"/>
			<point x="35" y="700" type="line"/>
			<point x="35" y="680" type="line"/>
		</contour>
	</outline>
</glyph>
<glyph name="U" format="2">
	<advance width="680"/>
	<unicode hex="0055"/>
	<outline>
		<contour>
			<point x="70" y="313" type="line"/>
			<point x="70" y="172"/>
			<point x="132" y="-10"/>
			<point x="318" y="-10" type="curve"/>
			<point x="526" y="-10"/>
			<point x="610" y="123"/>
			<point x="610" y="313" type="curve"/>
			<point x="610" y="700" type="line"/>
			<point x="590" y="700" type="line"/>
			<point x="590" y="313" type="line"/>
			<point x="590" y="141"/>
			<point x="518" y="10"/>
			<point x="318" y="10" type="curve"/>
			<point x="150" y="10"/>
			<point x="90" y="181"/>
			<point x="90" y="313" type="curve"/>
			<point x="90" y="700" type="line"/>
			<point x="70" y="700" type="line"/>
		</contour>
	</outline>
</glyph>
<glyph name="V" format="2">
	<advance width="763"/>
	<unicode hex="0056"/>
	<outline>
		<contour>
			<point x="52" y="707" type="line"/>
			<point x="35" y="696" type="line"/>
			<point x="381" y="-14" type="line"/>
			<point x="383" y="-14" type="line"/>
			<point x="728" y="696" type="line"/>
			<point x="711" y="707" type="line"/>
			<point x="381" y="31" type="line"/>
			<point x="383" y="31" type="line"/>
		</contour>
	</outline>
</glyph>
<glyph name="W" format="2">
	<advance width="970"/>
	<unicode hex="0057"/>
	<outline>
		<contour>
			<point x="490" y="553" type="line"/>
			<point x="480" y="553" type="line"/>
			<point x="745" y="-14" type="line"/>
			<point x="746" y="-14" type="line"/>
			<point x="935" y="697" type="line"/>
			<point x="917" y="704" type="line"/>
			<point x="737" y="32" type="line"/>
			<point x="745" y="32" type="line"/>
			<point x="486" y="589" type="line"/>
			<point x="484" y="589" type="line"/>
			<point x="225" y="32" type="line"/>
			<point x="233" y="32" type="line"/>
			<point x="53" y="704" type="line"/>
			<point x="35" y="697" type="line"/>
			<point x="224" y="-14" type="line"/>
			<point x="225" y="-14" type="line"/>
		</contour>
	</outline>
</glyph>
<glyph name="X" format="2">
	<advance width="616"/>
	<unicode hex="0058"/>
	<outline>
		<contour>
			<point x="581" y="5" type="line"/>
			<point x="314" y="372" type="line"/>
			<point x="314" y="355" type="line"/>
			<point x="562" y="696" type="line"/>
			<point x="545" y="706" type="line"/>
			<point x="304" y="375" type="line"/>
			<point x="304" y="352" type="line"/>
			<point x="565" y="-7" type="line"/>
		</contour>
		<contour>
			<point x="35" y="5" type="line"/>
			<point x="51" y="-7" type="line"/>
			<point x="312" y="352" type="line"/>
			<point x="312" y="375" type="line"/>
			<point x="71" y="706" type="line"/>
			<point x="54" y="696" type="line"/>
			<point x="302" y="355" type="line"/>
			<point x="302" y="372" type="line"/>
		</contour>
	</outline>
</glyph>
<glyph name="Y" format="2">
	<advance width="616"/>
	<unicode hex="0059"/>
	<outline>
		<contour>
			<point x="318" y="0" type="line"/>
			<point x="318" y="318" type="line"/>
			<point x="298" y="318" type="line"/>
			<point x="298" y="0" type="line"/>
		</contour>
		<contour>
			<point x="308" y="291" type="line"/>
			<point x="581" y="694" type="line"/>
			<point x="565" y="706" type="line"/>
			<point x="303" y="318" type="line"/>
			<point x="313" y="318" type="line"/>
			<point x="51" y="706" type="line"/>
			<point x="35" y="694" type="line"/>
		</contour>
	</outline>
</glyph>
<glyph name="Z" format="2">
	<advance width="613"/>
	<unicode hex="005A"/>
	<outline>
		<contour>
			<point x="511" y="680" type="line"/>
			<point x="35" y="1" type="line"/>
			<point x="35" y="0" type="line"/>
			<point x="578" y="0" type="line"/>
			<point x="578" y="20" type="line"/>
			<point x="74" y="20" type="line"/>
			<point x="549" y="699" type="line"/>
			<point x="549" y="700" type="line"/>
			<point x="62" y="700" type="line"/>
			<point x="62" y="680" type="line"/>
		</contour>
	</outline>
</glyph>
<glyph name="bracketleft" format="2">
	<advance width="255"/>
	<unicode hex="005B"/>
	<outline>
		<contour>
			<point x="220" y="-160" type="line"/>
			<point x="220" y="-140" type="line"/>
			<point x="90" y="-140" type="line"/>
			<point x="90" y="680" type="line"/>
			<point x="220" y="680" type="line"/>
			<point x="220" y="700" type="line"/>
			<point x="70" y="700" type="line"/>
			<point x="70" y="-160" type="line"/>
		</contour>
	</outline>
</glyph>
<glyph name="underscore" format="2">
	<advance width="470"/>
	<unicode hex="005F"/>
	<outline>
		<contour>
			<point x="435" y="-150" type="line"/>
			<point x="35" y="-150" type="line"/>
			<point x="35" y="-170" type="line"/>
			<point x="435" y="-170" type="line"/>
		</contour>
	</outline>
</glyph>
<glyph name="grave" format="2">
	<advance width="221"/>
	<unicode hex="0060"/>
	<outline>
		<contour>
			<point x="186" y="577" type="line"/>
			<point x="65" y="736" type="line"/>
			<point x="35" y="710" type="line"/>
			<point x="170" y="564" type="line"/>
		</contour>
	</outline>
</glyph>
<glyph name="a" format="2">
	<advance width="459"/>
	<unicode hex="0061"/>
	<outline>
		<contour>
			<point x="377" y="300" type="line"/>
			<point x="139" y="300"/>
			<point x="35" y="206"/>
			<point x="35" y="128" type="curve"/>
			<point x="35" y="45"/>
			<point x="125" y="-10"/>
			<point x="233" y="-10" type="curve"/>
			<point x="299" y="-10"/>
			<point x="345" y="-7"/>
			<point x="389" y="3" type="curve"/>
			<point x="385" y="24" type="line"/>
			<point x="339" y="12"/>
			<point x="280" y="10"/>
			<point x="242" y="10" type="curve"/>
			<point x="139" y="10"/>
			<point x="55" y="51"/>
			<point x="55" y="128" type="curve"/>
			<point x="55" y="195"/>
			<point x="154" y="280"/>
			<point x="377" y="280" type="curve"/>
		</contour>
		<contour>
			<point x="369" y="3" type="line"/>
			<point x="389" y="3" type="line"/>
			<point x="388" y="261" type="line"/>
			<point x="388" y="445"/>
			<point x="300" y="502"/>
			<point x="76" y="510" type="curve"/>
			<point x="72" y="490" type="line"/>
			<point x="285" y="483"/>
			<point x="369" y="427"/>
			<point x="369" y="261" type="curve"/>
		</contour>
	</outline>
</glyph>
<glyph name="d" format="2">
	<advance width="479"/>
	<unicode hex="0064"/>
	<outline>
		<contour>
			<point x="397" y="8" type="line"/>
			<point x="417" y="8" type="line"/>
			<point x="417" y="730" type="line"/>
			<point x="397" y="730" type="line"/>
		</contour>
		<contour>
			<point x="417" y="510" type="line"/>
			<point x="170" y="510"/>
			<point x="35" y="350"/>
			<point x="35" y="178" type="curve"/>
			<point x="35" y="58"/>
			<point x="155" y="-10"/>
			<point x="272" y="-10" type="curve"/>
			<point x="344" y="-10"/>
			<point x="369" y="-6"/>
			<point x="417" y="8" type="curve"/>
			<point x="408" y="28" type="line"/>
			<point x="361" y="16"/>
			<point x="323" y="10"/>
			<point x="282" y="10" type="curve"/>
			<point x="169" y="10"/>
			<point x="55" y="66"/>
			<point x="55" y="178" type="curve"/>
			<point x="55" y="339"/>
			<point x="183" y="490"/>
			<point x="417" y="490" type="curve"/>
		</contour>
	</outline>
</glyph>
<glyph name="e" format="2">
	<advance width="493"/>
	<unicode hex="0065"/>
	<outline>
		<contour>
			<point x="48" y="278" type="line"/>
			<point x="48" y="258" type="line"/>
			<point x="458" y="258" type="line"/>
			<point x="458" y="378"/>
			<point x="403" y="510"/>
			<point x="250" y="510" type="curve"/>
			<point x="98" y="510"/>
			<point x="35" y="346"/>
			<point x="35" y="248" type="curve"/>
			<point x="35" y="66"/>
			<point x="188" y="-10"/>
			<point x="384" y="-10" type="curve"/>
			<point x="384" y="10" type="line"/>
			<point x="205" y="10"/>
			<point x="55" y="76"/>
			<point x="55" y="248" type="curve"/>
			<point x="55" y="338"/>
			<point x="114" y="490"/>
			<point x="250" y="490" type="curve"/>
			<point x="387" y="490"/>
			<point x="438" y="368"/>
			<point x="438" y="269" type="curve"/>
			<point x="450" y="278" type="line"/>
		</contour>
	</outline>
</glyph>
<glyph name="g" format="2">
	<advance width="488"/>
	<unicode hex="0067"/>
	<outline>
		<contour>
			<point x="418" y="510" type="line"/>
			<point x="171" y="510"/>
			<point x="35" y="382"/>
			<point x="35" y="210" type="curve"/>
			<point x="35" y="48"/>
			<point x="157" y="-10"/>
			<point x="273" y="-10" type="curve"/>
			<point x="345" y="-10"/>
			<point x="370" y="-6"/>
			<point x="418" y="9" type="curve"/>
			<point x="409" y="29" type="line"/>
			<point x="362" y="15"/>
			<point x="324" y="10"/>
			<point x="283" y="10" type="curve"/>
			<point x="170" y="10"/>
			<point x="55" y="55"/>
			<point x="55" y="210" type="curve"/>
			<point x="55" y="372"/>
			<point x="183" y="490"/>
			<point x="418" y="490" type="curve"/>
		</contour>
		<contour>
			<point x="99" y="-240" type="line"/>
			<point x="301" y="-240"/>
			<point x="418" y="-176"/>
			<point x="418" y="0" type="curve"/>
			<point x="418" y="500" type="line"/>
			<point x="398" y="500" type="line"/>
			<point x="398" y="0" type="line"/>
			<point x="398" y="-163"/>
			<point x="293" y="-220"/>
			<point x="99" y="-220" type="curve"/>
		</contour>
	</outline>
</glyph>
<glyph name="h" format="2">
	<advance width="560"/>
	<unicode hex="0068"/>
	<outline>
		<contour>
			<point x="490" y="257" type="line"/>
			<point x="490" y="379"/>
			<point x="478" y="510"/>
			<point x="323" y="510" type="curve"/>
			<point x="174" y="510"/>
			<point x="70" y="415"/>
			<point x="70" y="257" type="curve"/>
			<point x="90" y="257" type="line"/>
			<point x="90" y="399"/>
			<point x="182" y="490"/>
			<point x="323" y="490" type="curve"/>
			<point x="464" y="490"/>
			<point x="470" y="367"/>
			<point x="470" y="257" type="curve"/>
			<point x="470" y="0" type="line"/>
			<point x="490" y="0" type="line"/>
		</contour>
		<contour>
			<point x="70" y="730" type="line"/>
			<point x="70" y="0" type="line"/>
			<point x="90" y="0" type="line"/>
			<point x="90" y="730" type="line"/>
		</contour>
	</outline>
</glyph>
<glyph name="i" format="2">
	<advance width="160"/>
	<unicode hex="0069"/>
	<outline>
		<contour>
			<point x="90" y="0" type="line"/>
			<point x="90" y="500" type="line"/>
			<point x="70" y="500" type="line"/>
			<point x="70" y="0" type="line"/>
		</contour>
		<contour>
			<point x="80" y="640" type="curve"/>
			<point x="101" y="640"/>
			<point x="115" y="657"/>
			<point x="115" y="679" type="curve"/>
			<point x="115" y="695"/>
			<point x="101" y="710"/>
			<point x="80" y="710" type="curve"/>
			<point x="60" y="710"/>
			<point x="45" y="693"/>
			<point x="45" y="671" type="curve"/>
			<point x="45" y="655"/>
			<point x="59" y="640"/>
		</contour>
	</outline>
</glyph>
<glyph name="j" format="2">
	<advance width="161"/>
	<unicode hex="006A"/>
	<outline>
		<contour>
			<point x="-48" y="-239" type="line"/>
			<point x="38" y="-207"/>
			<point x="90" y="-137"/>
			<point x="90" y="0" type="curve"/>
			<point x="90" y="500" type="line"/>
			<point x="70" y="500" type="line"/>
			<point x="70" y="0" type="line"/>
			<point x="70" y="-129"/>
			<point x="21" y="-192"/>
			<point x="-55" y="-219" type="curve"/>
		</contour>
		<contour>
			<point x="81" y="640" type="curve"/>
			<point x="101" y="640"/>
			<point x="116" y="657"/>
			<point x="116" y="679" type="curve"/>
			<point x="116" y="695"/>
			<point x="102" y="710"/>
			<point x="81" y="710" type="curve"/>
			<point x="60" y="710"/>
			<point x="46" y="693"/>
			<point x="46" y="671" type="curve"/>
			<point x="46" y="655"/>
			<point x="59" y="640"/>
		</contour>
	</outline>
</glyph>
<glyph name="m" format="2">
	<advance width="830"/>
	<unicode hex="006D"/>
	<outline>
		<contour>
			<point x="425" y="257" type="line"/>
			<point x="425" y="379"/>
			<point x="416" y="510"/>
			<point x="285" y="510" type="curve"/>
			<point x="158" y="510"/>
			<point x="70" y="415"/>
			<point x="70" y="257" type="curve"/>
			<point x="90" y="257" type="line"/>
			<point x="90" y="398"/>
			<point x="167" y="490"/>
			<point x="285" y="490" type="curve"/>
			<point x="402" y="490"/>
			<point x="405" y="365"/>
			<point x="405" y="257" type="curve"/>
			<point x="405" y="0" type="line"/>
			<point x="425" y="0" type="line"/>
		</contour>
		<contour>
			<point x="70" y="500" type="line"/>
			<point x="70" y="0" type="line"/>
			<point x="90" y="0" type="line"/>
			<point x="90" y="500" type="line"/>
		</contour>
		<contour>
			<point x="760" y="257" type="line"/>
			<point x="760" y="379"/>
			<point x="751" y="510"/>
			<point x="620" y="510" type="curve"/>
			<point x="493" y="510"/>
			<point x="405" y="415"/>
			<point x="405" y="257" type="curve"/>
			<point x="425" y="257" type="line"/>
			<point x="425" y="398"/>
			<point x="502" y="490"/>
			<point x="620" y="490" type="curve"/>
			<point x="737" y="490"/>
			<point x="740" y="365"/>
			<point x="740" y="257" type="curve"/>
			<point x="740" y="0" type="line"/>
			<point x="760" y="0" type="line"/>
		</contour>
	</outline>
</glyph>
<glyph name="r" format="2">
	<advance width="302"/>
	<unicode hex="0072"/>
	<outline>
		<contour>
			<point x="258" y="510" type="line"/>
			<point x="188" y="481"/>
			<point x="70" y="415"/>
			<point x="70" y="257" type="curve"/>
			<point x="90" y="257" type="line"/>
			<point x="90" y="399"/>
			<point x="197" y="462"/>
			<point x="267" y="491" type="curve"/>
		</contour>
		<contour>
			<point x="70" y="500" type="line"/>
			<point x="70" y="0" type="line"/>
			<point x="90" y="0" type="line"/>
			<point x="90" y="500" type="line"/>
		</contour>
	</outline>
</glyph>
<glyph name="s" format="2">
	<advance width="292"/>
	<unicode hex="0073"/>
	<outline>
		<contour>
			<point x="220" y="510" type="line"/>
			<point x="145" y="510"/>
			<point x="35" y="443"/>
			<point x="35" y="366" type="curve"/>
			<point x="35" y="315"/>
			<point x="84" y="280"/>
			<point x="127" y="248" type="curve"/>
			<point x="171" y="215"/>
			<point x="237" y="177"/>
			<point x="237" y="126" type="curve"/>
			<point x="237" y="60"/>
			<point x="119" y="10"/>
			<point x="48" y="10" type="curve"/>
			<point x="48" y="-10" type="line"/>
			<point x="134" y="-10"/>
			<point x="257" y="47"/>
			<point x="257" y="126" type="curve"/>
			<point x="257" y="189"/>
			<point x="183" y="233"/>
			<point x="135" y="266" type="curve"/>
			<point x="100" y="291"/>
			<point x="55" y="326"/>
			<point x="55" y="366" type="curve"/>
			<point x="55" y="429"/>
			<point x="157" y="490"/>
			<point x="220" y="490" type="curve"/>
		</contour>
	</outline>
</glyph>
<glyph name="t" format="2">
	<advance width="286"/>
	<unicode hex="0074"/>
	<outline>
		<contour>
			<point x="251" y="500" type="line"/>
			<point x="35" y="500" type="line"/>
			<point x="35" y="480" type="line"/>
			<point x="251" y="480" type="line"/>
		</contour>
		<contour>
			<point x="251" y="-10" type="curve"/>
			<point x="251" y="10" type="line"/>
			<point x="174" y="10"/>
			<point x="130" y="69"/>
			<point x="130" y="193" type="curve"/>
			<point x="130" y="600" type="line"/>
			<point x="110" y="600" type="line"/>
			<point x="110" y="193" type="line"/>
			<point x="110" y="61"/>
			<point x="162" y="-10"/>
		</contour>
	</outline>
</glyph>
<glyph name="v" format="2">
	<advance width="567"/>
	<unicode hex="0076"/>
	<outline>
		<contour>
			<point x="285" y="28" type="line"/>
			<point x="51" y="506" type="line"/>
			<point x="35" y="495" type="line"/>
			<point x="283" y="-14" type="line"/>
			<point x="284" y="-14" type="line"/>
			<point x="532" y="495" type="line"/>
			<point x="515" y="506" type="line"/>
			<point x="282" y="28" type="line"/>
		</contour>
	</outline>
</glyph>
<glyph name="w" format="2">
	<advance width="701"/>
	<unicode hex="0077"/>
	<outline>
		<contour>
			<point x="351" y="370" type="line"/>
			<point x="530" y="-14" type="line"/>
			<point x="531" y="-14" type="line"/>
			<point x="666" y="500" type="line"/>
			<point x="648" y="506" type="line"/>
			<point x="523" y="36" type="line"/>
			<point x="528" y="36" type="line"/>
			<point x="352" y="417" type="line"/>
			<point x="350" y="417" type="line"/>
			<point x="173" y="36" type="line"/>
			<point x="179" y="36" type="line"/>
			<point x="53" y="506" type="line"/>
			<point x="35" y="500" type="line"/>
			<point x="170" y="-14" type="line"/>
			<point x="171" y="-14" type="line"/>
		</contour>
	</outline>
</glyph>
<glyph name="x" format="2">
	<advance width="464"/>
	<unicode hex="0078"/>
	<outline>
		<contour>
			<point x="429" y="6" type="line"/>
			<point x="239" y="268" type="line"/>
			<point x="239" y="253" type="line"/>
			<point x="413" y="494" type="line"/>
			<point x="398" y="507" type="line"/>
			<point x="227" y="271" type="line"/>
			<point x="227" y="251" type="line"/>
			<point x="413" y="-7" type="line"/>
		</contour>
		<contour>
			<point x="35" y="6" type="line"/>
			<point x="51" y="-7" type="line"/>
			<point x="237" y="251" type="line"/>
			<point x="237" y="271" type="line"/>
			<point x="66" y="507" type="line"/>
			<point x="51" y="494" type="line"/>
			<point x="225" y="253" type="line"/>
			<point x="225" y="268" type="line"/>
		</contour>
	</outline>
</glyph>
<glyph name="y" format="2">
	<advance width="517"/>
	<unicode hex="0079"/>
	<outline>
		<contour>
			<point x="289" y="6" type="line"/>
			<point x="53" y="505" type="line"/>
			<point x="35" y="497" type="line"/>
			<point x="274" y="-8" type="line"/>
		</contour>
		<contour>
			<point x="202" y="-235" type="line"/>
			<point x="292" y="0" type="line"/>
			<point x="482" y="498" type="line"/>
			<point x="463" y="505" type="line"/>
			<point x="274" y="8" type="line"/>
			<point x="271" y="0" type="line"/>
			<point x="184" y="-228" type="line"/>
		</contour>
	</outline>
</glyph>
<glyph name="z" format="2">
	<advance width="461"/>
	<unicode hex="007A"/>
	<outline>
		<contour>
			<point x="372" y="480" type="line"/>
			<point x="35" y="1" type="line"/>
			<point x="35" y="0" type="line"/>
			<point x="426" y="0" type="line"/>
			<point x="426" y="20" type="line"/>
			<point x="74" y="20" type="line"/>
			<point x="411" y="499" type="line"/>
			<point x="411" y="500" type="line"/>
			<point x="59" y="500" type="line"/>
			<point x="59" y="480" type="line"/>
		</contour>
	</outline>
</glyph>
<glyph name="braceleft" format="2">
	<advance width="400"/>
	<unicode hex="007B"/>
	<outline>
		<contour>
			<point x="365" y="700" type="line"/>
			<point x="285" y="700" type="line"/>
			<point x="203" y="700"/>
			<point x="165" y="660"/>
			<point x="165" y="560" type="curve"/>
			<point x="165" y="400" type="line"/>
			<point x="165" y="323"/>
			<point x="134" y="270"/>
			<point x="85" y="270" type="curve"/>
			<point x="35" y="270" type="line"/>
			<point x="35" y="250" type="line"/>
			<point x="85" y="250" type="line"/>
			<point x="134" y="250"/>
			<point x="165" y="197"/>
			<point x="165" y="120" type="curve"/>
			<point x="165" y="-40" type="line"/>
			<point x="165" y="-140"/>
			<point x="203" y="-180"/>
			<point x="285" y="-180" type="curve"/>
			<point x="365" y="-180" type="line"/>
			<point x="365" y="-160" type="line"/>
			<point x="285" y="-160" type="line"/>
			<point x="214" y="-160"/>
			<point x="185" y="-127"/>
			<point x="185" y="-40" type="curve"/>
			<point x="185" y="120" type="line"/>
			<point x="185" y="186"/>
			<point x="164" y="237"/>
			<point x="124" y="259" type="curve"/>
			<point x="124" y="261" type="line"/>
			<point x="164" y="283"/>
			<point x="185" y="334"/>
			<point x="185" y="400" type="curve"/>
			<point x="185" y="560" type="line"/>
			<point x="185" y="649"/>
			<point x="215" y="680"/>
			<point x="285" y="680" type="curve"/>
			<point x="365" y="680" type="line"/>
		</contour>
	</outline>
</glyph>
<glyph name="bar" format="2">
	<advance width="160"/>
	<unicode hex="007C"/>
	<outline>
		<contour>
			<point x="90" y="-235" type="line"/>
			<point x="90" y="700" type="line"/>
			<point x="70" y="700" type="line"/>
			<point x="70" y="-235" type="line"/>
		</contour>
	</outline>
</glyph>
<glyph name="asciitilde" format="2">
	<advance width="588"/>
	<unicode hex="007E"/>
	<outline>
		<contour>
			<point x="35" y="214" type="curve"/>
			<point x="53" y="206" type="line"/>
			<point x="73" y="250"/>
			<point x="124" y="297"/>
			<point x="177" y="297" type="curve"/>
			<point x="216" y="297"/>
			<point x="255" y="268"/>
			<point x="282" y="247" type="curve"/>
			<point x="317" y="219"/>
			<point x="354" y="183"/>
			<point x="416" y="183" type="curve"/>
			<point x="496" y="183"/>
			<point x="539" y="240"/>
			<point x="553" y="283" type="curve"/>
			<point x="533" y="289" type="line"/>
			<point x="519" y="245"/>
			<point x="483" y="203"/>
			<point x="416" y="203" type="curve"/>
			<point x="366" y="203"/>
			<point x="328" y="235"/>
			<point x="295" y="261" type="curve"/>
			<point x="262" y="288"/>
			<point x="228" y="317"/>
			<point x="177" y="317" type="curve"/>
			<point x="120" y="317"/>
			<point x="60" y="267"/>
		</contour>
	</outline>
</glyph>
<glyph name="currency" format="2">
	<advance width="594"/>
	<unicode hex="00A4"/>
	<outline>
		<contour>
			<point x="297" y="145" type="curve"/>
			<point x="418" y="145"/>
			<point x="517" y="240"/>
			<point x="517" y="365" type="curve"/>
			<point x="517" y="486"/>
			<point x="422" y="585"/>
			<point x="297" y="585" type="curve"/>
			<point x="176" y="585"/>
			<point x="77" y="490"/>
			<point x="77" y="365" type="curve"/>
			<point x="77" y="244"/>
			<point x="172" y="145"/>
		</contour>
		<contour>
			<point x="297" y="165" type="curve"/>
			<point x="188" y="165"/>
			<point x="97" y="252"/>
			<point x="97" y="365" type="curve"/>
			<point x="97" y="474"/>
			<point x="184" y="565"/>
			<point x="297" y="565" type="curve"/>
			<point x="406" y="565"/>
			<point x="497" y="478"/>
			<point x="497" y="365" type="curve"/>
			<point x="497" y="256"/>
			<point x="410" y="165"/>
		</contour>
		<contour>
			<point x="50" y="103" type="line"/>
			<point x="156" y="209" type="line"/>
			<point x="141" y="224" type="line"/>
			<point x="35" y="118" type="line"/>
		</contour>
		<contour>
			<point x="544" y="103" type="line"/>
			<point x="559" y="118" type="line"/>
			<point x="453" y="224" type="line"/>
			<point x="438" y="209" type="line"/>
		</contour>
		<contour>
			<point x="141" y="506" type="line"/>
			<point x="156" y="521" type="line"/>
			<point x="50" y="627" type="line"/>
			<point x="35" y="613" type="line"/>
		</contour>
		<contour>
			<point x="453" y="506" type="line"/>
			<point x="559" y="612" type="line"/>
			<point x="544" y="627" type="line"/>
			<point x="438" y="521" type="line"/>
		</contour>
	</outline>
</glyph>
<glyph name="yen" format="2">
	<advance width="616"/>
	<unicode hex="00A5"/>
	<outline>
		<contour>
			<point x="318" y="0" type="line"/>
			<point x="318" y="318" type="line"/>
			<point x="298" y="318" type="line"/>
			<point x="298" y="0" type="line"/>
		</contour>
		<contour>
			<point x="308" y="291" type="line"/>
			<point x="581" y="694" type="line"/>
			<point x="565" y="706" type="line"/>
			<point x="303" y="318" type="line"/>
			<point x="313" y="318" type="line"/>
			<point x="51" y="706" type="line"/>
			<point x="35" y="694" type="line"/>
		</contour>
		<contour>
			<point x="108" y="240" type="line"/>
			<point x="508" y="240" type="line"/>
			<point x="508" y="260" type="line"/>
			<point x="108" y="260" type="line"/>
		</contour>
	</outline>
</glyph>
<glyph name="brokenbar" format="2">
	<advance width="160"/>
	<unicode hex="00A6"/>
	<outline>
		<contour>
			<point x="90" y="326" type="line"/>
			<point x="90" y="700" type="line"/>
			<point x="70" y="700" type="line"/>
			<point x="70" y="326" type="line"/>
		</contour>
		<contour>
			<point x="90" y="-235" type="line"/>
			<point x="90" y="139" type="line"/>
			<point x="70" y="139" type="line"/>
			<point x="70" y="-235" type="line"/>
		</contour>
	</outline>
</glyph>
<glyph name="section" format="2">
	<advance width="392"/>
	<unicode hex="00A7"/>
	<outline>
		<contour>
			<point x="200" y="494" type="line"/>
			<point x="132" y="494"/>
			<point x="35" y="418"/>
			<point x="35" y="341" type="curve"/>
			<point x="35" y="216"/>
			<point x="307" y="198"/>
			<point x="307" y="101" type="curve"/>
			<point x="307" y="35"/>
			<point x="199" y="-15"/>
			<point x="78" y="-15" type="curve"/>
			<point x="78" y="-35" type="line"/>
			<point x="214" y="-35"/>
			<point x="327" y="22"/>
			<point x="327" y="101" type="curve"/>
			<point x="327" y="217"/>
			<point x="55" y="229"/>
			<point x="55" y="341" type="curve"/>
			<point x="55" y="404"/>
			<point x="147" y="475"/>
			<point x="213" y="475" type="curve"/>
		</contour>
		<contour>
			<point x="290" y="735" type="line"/>
			<point x="175" y="735"/>
			<point x="65" y="668"/>
			<point x="65" y="591" type="curve"/>
			<point x="65" y="500"/>
			<point x="337" y="452"/>
			<point x="337" y="351" type="curve"/>
			<point x="337" y="285"/>
			<point x="260" y="226"/>
			<point x="175" y="226" type="curve"/>
			<point x="184" y="206" type="line"/>
			<point x="273" y="206"/>
			<point x="357" y="272"/>
			<point x="357" y="351" type="curve"/>
			<point x="357" y="467"/>
			<point x="85" y="511"/>
			<point x="85" y="591" type="curve"/>
			<point x="85" y="654"/>
			<point x="187" y="715"/>
			<point x="290" y="715" type="curve"/>
		</contour>
	</outline>
</glyph>
<glyph name="ordfeminine" format="2">
	<advance width="274"/>
	<unicode hex="00AA"/>
	<outline>
		<contour>
			<point x="232" y="669" type="line"/>
			<point x="95" y="669"/>
			<point x="35" y="615"/>
			<point x="35" y="570" type="curve"/>
			<point x="35" y="522"/>
			<point x="87" y="490"/>
			<point x="149" y="490" type="curve"/>
			<point x="187" y="490"/>
			<point x="214" y="492"/>
			<point x="239" y="498" type="curve"/>
			<point x="237" y="518" type="line"/>
			<point x="210" y="511"/>
			<point x="176" y="510"/>
			<point x="154" y="510" type="curve"/>
			<point x="95" y="510"/>
			<point x="55" y="535"/>
			<point x="55" y="570" type="curve"/>
			<point x="55" y="604"/>
			<point x="104" y="649"/>
			<point x="232" y="649" type="curve"/>
		</contour>
		<contour>
			<point x="218" y="498" type="line"/>
			<point x="239" y="498" type="line"/>
			<point x="238" y="646" type="line"/>
			<point x="238" y="753"/>
			<point x="188" y="785"/>
			<point x="59" y="790" type="curve"/>
			<point x="56" y="770" type="line"/>
			<point x="179" y="763"/>
			<point x="218" y="740"/>
			<point x="218" y="646" type="curve"/>
		</contour>
		<contour>
			<point x="238" y="400" type="line"/>
			<point x="55" y="400" type="line"/>
			<point x="55" y="380" type="line"/>
			<point x="238" y="380" type="line"/>
		</contour>
	</outline>
</glyph>
<glyph name="logicalnot" format="2">
	<advance width="605"/>
	<unicode hex="00AC"/>
	<outline>
		<contour>
			<point x="535" y="363" type="line"/>
			<point x="35" y="363" type="line"/>
			<point x="35" y="342" type="line"/>
			<point x="515" y="342" type="line"/>
			<point x="515" y="137" type="line"/>
			<point x="535" y="137" type="line"/>
		</contour>
	</outline>
</glyph>
<glyph name="macron" format="2">
	<advance width="347"/>
	<unicode hex="00AF"/>
	<outline>
		<contour>
			<point x="312" y="660" type="line"/>
			<point x="312" y="680" type="line"/>
			<point x="35" y="680" type="line"/>
			<point x="35" y="660" type="line"/>
		</contour>
	</outline>
</glyph>
<glyph name="degree" format="2">
	<advance width="270"/>
	<unicode hex="00B0"/>
	<outline>
		<contour>
			<point x="135" y="510" type="curve"/>
			<point x="194" y="510"/>
			<point x="235" y="559"/>
			<point x="235" y="621" type="curve"/>
			<point x="235" y="666"/>
			<point x="196" y="710"/>
			<point x="135" y="710" type="curve"/>
			<point x="76" y="710"/>
			<point x="35" y="661"/>
			<point x="35" y="599" type="curve"/>
			<point x="35" y="554"/>
			<point x="74" y="510"/>
		</contour>
		<contour>
			<point x="135" y="530" type="curve"/>
			<point x="87" y="530"/>
			<point x="55" y="565"/>
			<point x="55" y="601" type="curve"/>
			<point x="55" y="650"/>
			<point x="88" y="690"/>
			<point x="135" y="690" type="curve"/>
			<point x="183" y="690"/>
			<point x="215" y="655"/>
			<point x="215" y="619" type="curve"/>
			<point x="215" y="570"/>
			<point x="182" y="530"/>
		</contour>
	</outline>
</glyph>
<glyph name="mu" format="2">
	<advance width="560"/>
	<unicode hex="00B5"/>
	<outline>
		<contour>
			<point x="70" y="-230" type="line"/>
			<point x="90" y="-230" type="line"/>
			<point x="90" y="500" type="line"/>
			<point x="70" y="500" type="line"/>
		</contour>
		<contour>
			<point x="490" y="0" type="line"/>
			<point x="490" y="500" type="line"/>
			<point x="470" y="500" type="line"/>
			<point x="470" y="0" type="line"/>
		</contour>
		<contour>
			<point x="70" y="244" type="line"/>
			<point x="70" y="121"/>
			<point x="83" y="-10"/>
			<point x="237" y="-10" type="curve"/>
			<point x="386" y="-10"/>
			<point x="490" y="85"/>
			<point x="490" y="243" type="curve"/>
			<point x="470" y="243" type="line"/>
			<point x="470" y="102"/>
			<point x="378" y="10"/>
			<point x="237" y="10" type="curve"/>
			<point x="97" y="10"/>
			<point x="90" y="134"/>
			<point x="90" y="244" type="curve"/>
		</contour>
	</outline>
</glyph>
<glyph name="paragraph" format="2">
	<advance width="448"/>
	<unicode hex="00B6"/>
	<outline>
		<contour>
			<point x="267" y="245" type="curve"/>
			<point x="267" y="267" type="line"/>
			<point x="150" y="300"/>
			<point x="55" y="391"/>
			<point x="55" y="516" type="curve"/>
			<point x="55" y="660"/>
			<point x="208" y="690"/>
			<point x="378" y="690" type="curve"/>
			<point x="378" y="710" type="line"/>
			<point x="194" y="710"/>
			<point x="35" y="672"/>
			<point x="35" y="516" type="curve"/>
			<point x="35" y="386"/>
			<point x="133" y="280"/>
		</contour>
		<contour>
			<point x="378" y="0" type="line"/>
			<point x="378" y="700" type="line"/>
			<point x="358" y="700" type="line"/>
			<point x="358" y="0" type="line"/>
		</contour>
		<contour>
			<point x="258" y="0" type="line"/>
			<point x="278" y="0" type="line"/>
			<point x="278" y="700" type="line"/>
			<point x="258" y="700" type="line"/>
		</contour>
		<contour>
			<point x="269" y="254" type="curve"/>
			<point x="270" y="699" type="line"/>
			<point x="206" y="689"/>
			<point x="47" y="671"/>
			<point x="47" y="515" type="curve"/>
			<point x="47" y="385"/>
			<point x="148" y="289"/>
		</contour>
	</outline>
</glyph>
<glyph name="ordmasculine" format="2">
	<advance width="362"/>
	<unicode hex="00BA"/>
	<outline>
		<contour>
			<point x="181" y="490" type="curve"/>
			<point x="266" y="490"/>
			<point x="327" y="564"/>
			<point x="327" y="657" type="curve"/>
			<point x="327" y="724"/>
			<point x="269" y="790"/>
			<point x="181" y="790" type="curve"/>
			<point x="96" y="790"/>
			<point x="35" y="716"/>
			<point x="35" y="623" type="curve"/>
			<point x="35" y="556"/>
			<point x="93" y="490"/>
		</contour>
		<contour>
			<point x="181" y="510" type="curve"/>
			<point x="104" y="510"/>
			<point x="55" y="567"/>
			<point x="55" y="626" type="curve"/>
			<point x="55" y="706"/>
			<point x="106" y="770"/>
			<point x="181" y="770" type="curve"/>
			<point x="258" y="770"/>
			<point x="307" y="713"/>
			<point x="307" y="654" type="curve"/>
			<point x="307" y="574"/>
			<point x="256" y="510"/>
		</contour>
		<contour>
			<point x="307" y="400" type="line"/>
			<point x="55" y="400" type="line"/>
			<point x="55" y="380" type="line"/>
			<point x="307" y="380" type="line"/>
		</contour>
	</outline>
</glyph>
<glyph name="multiply" format="2">
	<advance width="470"/>
	<unicode hex="00D7"/>
	<outline>
		<contour>
			<point x="398" y="477" type="line"/>
			<point x="58" y="137" type="line"/>
			<point x="72" y="123" type="line"/>
			<point x="412" y="463" type="line"/>
		</contour>
		<contour>
			<point x="412" y="137" type="line"/>
			<point x="72" y="477" type="line"/>
			<point x="58" y="463" type="line"/>
			<point x="398" y="123" type="line"/>
		</contour>
	</outline>
</glyph>
<glyph name="Thorn" format="2">
	<advance width="448"/>
	<unicode hex="00DE"/>
	<outline>
		<contour>
			<point x="90" y="0" type="line"/>
			<point x="90" y="700" type="line"/>
			<point x="70" y="700" type="line"/>
			<point x="70" y="0" type="line"/>
		</contour>
		<contour>
			<point x="70" y="122" type="line"/>
			<point x="269" y="122"/>
			<point x="413" y="248"/>
			<point x="413" y="406" type="curve"/>
			<point x="413" y="562"/>
			<point x="255" y="600"/>
			<point x="70" y="600" type="curve"/>
			<point x="70" y="580" type="line"/>
			<point x="246" y="580"/>
			<point x="393" y="546"/>
			<point x="394" y="406" type="curve"/>
			<point x="394" y="255"/>
			<point x="250" y="142"/>
			<point x="70" y="142" type="curve"/>
		</contour>
	</outline>
</glyph>
<glyph name="germandbls" format="2">
	<advance width="442"/>
	<unicode hex="00DF"/>
	<outline>
		<contour>
			<point x="90" y="0" type="line"/>
			<point x="90" y="551" type="line"/>
			<point x="70" y="551" type="line"/>
			<point x="70" y="0" type="line"/>
		</contour>
		<contour>
			<point x="370" y="540" type="line"/>
			<point x="370" y="668"/>
			<point x="295" y="740"/>
			<point x="210" y="740" type="curve"/>
			<point x="210" y="720" type="line"/>
			<point x="282" y="720"/>
			<point x="351" y="652"/>
			<point x="351" y="540" type="curve"/>
		</contour>
		<contour>
			<point x="90" y="551" type="line"/>
			<point x="90" y="656"/>
			<point x="138" y="720"/>
			<point x="210" y="720" type="curve"/>
			<point x="210" y="740" type="line"/>
			<point x="126" y="740"/>
			<point x="70" y="666"/>
			<point x="70" y="551" type="curve"/>
		</contour>
		<contour>
			<point x="367" y="560" type="line"/>
			<point x="275" y="560"/>
			<point x="195" y="473"/>
			<point x="195" y="396" type="curve"/>
			<point x="195" y="345"/>
			<point x="234" y="310"/>
			<point x="277" y="278" type="curve"/>
			<point x="321" y="245"/>
			<point x="407" y="207"/>
			<point x="407" y="136" type="curve"/>
			<point x="407" y="40"/>
			<point x="269" y="10"/>
			<point x="198" y="10" type="curve"/>
			<point x="198" y="-10" type="line"/>
			<point x="284" y="-10"/>
			<point x="427" y="27"/>
			<point x="427" y="136" type="curve"/>
			<point x="427" y="219"/>
			<point x="333" y="263"/>
			<point x="285" y="296" type="curve"/>
			<point x="250" y="321"/>
			<point x="215" y="363"/>
			<point x="215" y="396" type="curve"/>
			<point x="215" y="459"/>
			<point x="287" y="540"/>
			<point x="370" y="540" type="curve"/>
		</contour>
	</outline>
</glyph>
<glyph name="ae" format="2">
	<advance width="827"/>
	<unicode hex="00E6"/>
	<outline>
		<contour>
			<point x="377" y="300" type="line"/>
			<point x="139" y="300"/>
			<point x="35" y="206"/>
			<point x="35" y="128" type="curve"/>
			<point x="35" y="45"/>
			<point x="117" y="-10"/>
			<point x="213" y="-10" type="curve"/>
			<point x="309" y="-10"/>
			<point x="389" y="44"/>
			<point x="389" y="245" type="curve"/>
			<point x="369" y="245" type="line"/>
			<point x="369" y="53"/>
			<point x="287" y="10"/>
			<point x="212" y="10" type="curve"/>
			<point x="137" y="10"/>
			<point x="55" y="51"/>
			<point x="55" y="128" type="curve"/>
			<point x="55" y="195"/>
			<point x="154" y="280"/>
			<point x="377" y="280" type="curve"/>
		</contour>
		<contour>
			<point x="369" y="253" type="line"/>
			<point x="389" y="253" type="line"/>
			<point x="388" y="261" type="line"/>
			<point x="388" y="445"/>
			<point x="300" y="502"/>
			<point x="76" y="510" type="curve"/>
			<point x="72" y="490" type="line"/>
			<point x="285" y="483"/>
			<point x="369" y="427"/>
			<point x="369" y="261" type="curve"/>
		</contour>
		<contour>
			<point x="382" y="278" type="line"/>
			<point x="382" y="258" type="line"/>
			<point x="792" y="258" type="line"/>
			<point x="792" y="378"/>
			<point x="737" y="510"/>
			<point x="584" y="510" type="curve"/>
			<point x="432" y="510"/>
			<point x="369" y="346"/>
			<point x="369" y="248" type="curve"/>
			<point x="369" y="66"/>
			<point x="522" y="-10"/>
			<point x="718" y="-10" type="curve"/>
			<point x="718" y="10" type="line"/>
			<point x="539" y="10"/>
			<point x="389" y="76"/>
			<point x="389" y="248" type="curve"/>
			<point x="389" y="338"/>
			<point x="448" y="490"/>
			<point x="584" y="490" type="curve"/>
			<point x="721" y="490"/>
			<point x="772" y="368"/>
			<point x="772" y="269" type="curve"/>
			<point x="784" y="278" type="line"/>
		</contour>
	</outline>
</glyph>
<glyph name="eth" format="2">
	<advance width="550"/>
	<unicode hex="00F0"/>
	<outline>
		<contour>
			<point x="123" y="740" type="curve"/>
			<point x="113" y="723" type="line"/>
			<point x="316" y="629"/>
			<point x="458" y="444"/>
			<point x="458" y="219" type="curve"/>
			<point x="458" y="87"/>
			<point x="372" y="10"/>
			<point x="256" y="10" type="curve"/>
			<point x="137" y="10"/>
			<point x="59" y="100"/>
			<point x="59" y="226" type="curve"/>
			<point x="59" y="351"/>
			<point x="153" y="490"/>
			<point x="388" y="490" type="curve"/>
			<point x="388" y="510" type="line"/>
			<point x="147" y="510"/>
			<point x="40" y="369"/>
			<point x="40" y="226" type="curve"/>
			<point x="40" y="89"/>
			<point x="124" y="-10"/>
			<point x="256" y="-10" type="curve"/>
			<point x="387" y="-10"/>
			<point x="478" y="73"/>
			<point x="478" y="219" type="curve"/>
			<point x="478" y="463"/>
			<point x="319" y="650"/>
		</contour>
		<contour>
			<point x="375" y="740" type="line"/>
			<point x="112" y="557" type="line"/>
			<point x="123" y="541" type="line"/>
			<point x="386" y="724" type="line"/>
		</contour>
	</outline>
</glyph>
<glyph name="divide" format="2">
	<advance width="470"/>
	<unicode hex="00F7"/>
	<outline>
		<contour>
			<point x="435" y="310" type="line"/>
			<point x="35" y="310" type="line"/>
			<point x="35" y="290" type="line"/>
			<point x="435" y="290" type="line"/>
		</contour>
		<contour>
			<point x="235" y="400" type="curve"/>
			<point x="256" y="400"/>
			<point x="270" y="417"/>
			<point x="270" y="439" type="curve"/>
			<point x="270" y="455"/>
			<point x="256" y="470"/>
			<point x="235" y="470" type="curve"/>
			<point x="215" y="470"/>
			<point x="200" y="453"/>
			<point x="200" y="431" type="curve"/>
			<point x="200" y="415"/>
			<point x="214" y="400"/>
		</contour>
		<contour>
			<point x="235" y="130" type="curve"/>
			<point x="256" y="130"/>
			<point x="270" y="147"/>
			<point x="270" y="169" type="curve"/>
			<point x="270" y="185"/>
			<point x="256" y="200"/>
			<point x="235" y="200" type="curve"/>
			<point x="215" y="200"/>
			<point x="200" y="183"/>
			<point x="200" y="161" type="curve"/>
			<point x="200" y="145"/>
			<point x="214" y="130"/>
		</contour>
	</outline>
</glyph>
<glyph name="thorn" format="2">
	<advance width="488"/>
	<unicode hex="00FE"/>
	<outline>
		<contour>
			<point x="90" y="-230" type="line"/>
			<point x="90" y="730" type="line"/>
			<point x="70" y="730" type="line"/>
			<point x="70" y="-230" type="line"/>
		</contour>
		<contour>
			<point x="70" y="-10" type="line"/>
			<point x="303" y="-10"/>
			<point x="453" y="121"/>
			<point x="453" y="291" type="curve"/>
			<point x="453" y="437"/>
			<point x="265" y="510"/>
			<point x="70" y="510" type="curve"/>
			<point x="70" y="490" type="line"/>
			<point x="254" y="490"/>
			<point x="433" y="419"/>
			<point x="433" y="291" type="curve"/>
			<point x="433" y="128"/>
			<point x="283" y="10"/>
			<point x="70" y="10" type="curve"/>
		</contour>
	</outline>
</glyph>
<glyph name="idotless" format="2">
	<advance width="160"/>
	<unicode hex="0131"/>
	<outline>
		<contour>
			<point x="90" y="0" type="line"/>
			<point x="90" y="500" type="line"/>
			<point x="70" y="500" type="line"/>
			<point x="70" y="0" type="line"/>
		</contour>
	</outline>
</glyph>
<glyph name="longs" format="2">
	<advance width="300"/>
	<unicode hex="017F"/>
	<outline>
		<contour>
			<point x="261" y="740" type="line"/>
			<point x="122" y="712"/>
			<point x="70" y="639"/>
			<point x="70" y="467" type="curve"/>
			<point x="70" y="0" type="line"/>
			<point x="90" y="0" type="line"/>
			<point x="90" y="467" type="line"/>
			<point x="90" y="631"/>
			<point x="140" y="694"/>
			<point x="265" y="720" type="curve"/>
		</contour>
	</outline>
</glyph>
<glyph name="Oopen" format="2">
	<advance width="603"/>
	<unicode hex="0186"/>
	<outline>
		<contour>
			<point x="65" y="710" type="curve"/>
			<point x="65" y="690" type="line"/>
			<point x="367" y="690"/>
			<point x="548" y="540"/>
			<point x="548" y="312" type="curve"/>
			<point x="548" y="144"/>
			<point x="385" y="10"/>
			<point x="237" y="10" type="curve"/>
			<point x="185" y="10"/>
			<point x="100" y="17"/>
			<point x="42" y="35" type="curve"/>
			<point x="35" y="16" type="line"/>
			<point x="94" y="-4"/>
			<point x="159" y="-10"/>
			<point x="250" y="-10" type="curve"/>
			<point x="399" y="-10"/>
			<point x="568" y="133"/>
			<point x="568" y="312" type="curve"/>
			<point x="568" y="550"/>
			<point x="380" y="710"/>
		</contour>
	</outline>
</glyph>
<glyph name="nlongrightleg" format="2">
	<advance width="560"/>
	<unicode hex="019E"/>
	<outline>
		<contour>
			<point x="70" y="500" type="line"/>
			<point x="70" y="0" type="line"/>
			<point x="90" y="0" type="line"/>
			<point x="90" y="500" type="line"/>
		</contour>
		<contour>
			<point x="490" y="257" type="line"/>
			<point x="490" y="379"/>
			<point x="478" y="510"/>
			<point x="323" y="510" type="curve"/>
			<point x="174" y="510"/>
			<point x="70" y="415"/>
			<point x="70" y="257" type="curve"/>
			<point x="90" y="257" type="line"/>
			<point x="90" y="399"/>
			<point x="182" y="490"/>
			<point x="323" y="490" type="curve"/>
			<point x="464" y="490"/>
			<point x="470" y="367"/>
			<point x="470" y="257" type="curve"/>
			<point x="470" y="-230" type="line"/>
			<point x="490" y="-230" type="line"/>
		</contour>
	</outline>
</glyph>
<glyph name="jdotless" format="2">
	<advance width="161"/>
	<unicode hex="0237"/>
	<outline>
		<contour>
			<point x="-48" y="-239" type="line"/>
			<point x="38" y="-207"/>
			<point x="90" y="-137"/>
			<point x="90" y="0" type="curve"/>
			<point x="90" y="500" type="line"/>
			<point x="70" y="500" type="line"/>
			<point x="70" y="0" type="line"/>
			<point x="70" y="-129"/>
			<point x="21" y="-192"/>
			<point x="-55" y="-219" type="curve"/>
		</contour>
	</outline>
</glyph>
<glyph name="alpha" format="2">
	<advance width="498"/>
	<unicode hex="0251"/>
	<outline>
		<contour>
			<point x="428" y="510" type="line"/>
			<point x="181" y="510"/>
			<point x="35" y="382"/>
			<point x="35" y="210" type="curve"/>
			<point x="35" y="48"/>
			<point x="147" y="-10"/>
			<point x="223" y="-10" type="curve"/>
			<point x="305" y="-10"/>
			<point x="370" y="34"/>
			<point x="428" y="119" type="curve"/>
			<point x="415" y="133" type="line"/>
			<point x="362" y="55"/>
			<point x="294" y="10"/>
			<point x="233" y="10" type="curve"/>
			<point x="160" y="10"/>
			<point x="55" y="55"/>
			<point x="55" y="210" type="curve"/>
			<point x="55" y="372"/>
			<point x="193" y="490"/>
			<point x="428" y="490" type="curve"/>
		</contour>
		<contour>
			<point x="428" y="0" type="line"/>
			<point x="428" y="500" type="line"/>
			<point x="408" y="500" type="line"/>
			<point x="408" y="0" type="line"/>
		</contour>
	</outline>
</glyph>
<glyph name="eopen" format="2">
	<advance width="379"/>
	<unicode hex="025B"/>
	<outline>
		<contour>
			<point x="304" y="247" type="curve"/>
			<point x="304" y="265" type="line"/>
			<point x="192" y="265"/>
			<point x="70" y="294"/>
			<point x="70" y="370" type="curve"/>
			<point x="70" y="437"/>
			<point x="179" y="490"/>
			<point x="334" y="490" type="curve"/>
			<point x="334" y="510" type="line"/>
			<point x="169" y="510"/>
			<point x="50" y="457"/>
			<point x="50" y="370" type="curve"/>
			<point x="50" y="282"/>
			<point x="165" y="247"/>
		</contour>
		<contour>
			<point x="344" y="-10" type="curve"/>
			<point x="344" y="10" type="line"/>
			<point x="135" y="10"/>
			<point x="56" y="43"/>
			<point x="56" y="112" type="curve"/>
			<point x="56" y="181"/>
			<point x="154" y="245"/>
			<point x="304" y="245" type="curve"/>
			<point x="304" y="265" type="line"/>
			<point x="145" y="265"/>
			<point x="35" y="200"/>
			<point x="35" y="112" type="curve"/>
			<point x="35" y="24"/>
			<point x="120" y="-10"/>
		</contour>
	</outline>
</glyph>
<glyph name="gsmallcapital" format="2">
	<advance width="455"/>
	<unicode hex="0262"/>
	<outline>
		<contour>
			<point x="398" y="510" type="line"/>
			<point x="171" y="510"/>
			<point x="35" y="344"/>
			<point x="35" y="172" type="curve"/>
			<point x="35" y="53"/>
			<point x="157" y="-10"/>
			<point x="265" y="-10" type="curve"/>
			<point x="331" y="-10"/>
			<point x="377" y="-6"/>
			<point x="420" y="9" type="curve"/>
			<point x="420" y="214" type="line"/>
			<point x="400" y="214" type="line"/>
			<point x="400" y="13" type="line"/>
			<point x="412" y="29" type="line"/>
			<point x="370" y="15"/>
			<point x="312" y="10"/>
			<point x="274" y="10" type="curve"/>
			<point x="171" y="10"/>
			<point x="55" y="63"/>
			<point x="55" y="172" type="curve"/>
			<point x="55" y="333"/>
			<point x="183" y="490"/>
			<point x="398" y="490" type="curve"/>
		</contour>
	</outline>
</glyph>
<glyph name="ismallcapital" format="2">
	<advance width="365"/>
	<unicode hex="026A"/>
	<outline>
		<contour>
			<point x="193" y="0" type="line"/>
			<point x="193" y="500" type="line"/>
			<point x="173" y="500" type="line"/>
			<point x="173" y="0" type="line"/>
		</contour>
		<contour>
			<point x="330" y="480" type="line"/>
			<point x="330" y="500" type="line"/>
			<point x="35" y="500" type="line"/>
			<point x="35" y="480" type="line"/>
		</contour>
		<contour>
			<point x="330" y="0" type="line"/>
			<point x="330" y="20" type="line"/>
			<point x="35" y="20" type="line"/>
			<point x="35" y="0" type="line"/>
		</contour>
	</outline>
</glyph>
<glyph name="nsmallcapital" format="2">
	<advance width="565"/>
	<unicode hex="0274"/>
	<outline>
		<contour>
			<point x="90" y="460" type="line"/>
			<point x="494" y="-14" type="line"/>
			<point x="495" y="-14" type="line"/>
			<point x="495" y="500" type="line"/>
			<point x="475" y="500" type="line"/>
			<point x="475" y="39" type="line"/>
			<point x="71" y="514" type="line"/>
			<point x="70" y="514" type="line"/>
			<point x="70" y="0" type="line"/>
			<point x="90" y="0" type="line"/>
		</contour>
	</outline>
</glyph>
<glyph name="rsmallcapital" format="2">
	<advance width="397"/>
	<unicode hex="0280"/>
	<outline>
		<contour>
			<point x="90" y="0" type="line"/>
			<point x="90" y="500" type="line"/>
			<point x="70" y="500" type="line"/>
			<point x="70" y="0" type="line"/>
		</contour>
		<contour>
			<point x="177" y="221" type="line"/>
			<point x="251" y="254"/>
			<point x="319" y="304"/>
			<point x="319" y="371" type="curve"/>
			<point x="319" y="483"/>
			<point x="204" y="510"/>
			<point x="70" y="510" type="curve"/>
			<point x="70" y="490" type="line"/>
			<point x="198" y="490"/>
			<point x="299" y="471"/>
			<point x="299" y="371" type="curve"/>
			<point x="299" y="309"/>
			<point x="235" y="269"/>
			<point x="155" y="232" type="curve"/>
			<point x="345" y="-6" type="line"/>
			<point x="362" y="4" type="line"/>
			<point x="182" y="229" type="line"/>
		</contour>
	</outline>
</glyph>
<glyph name="ysmallcapital" format="2">
	<advance width="470"/>
	<unicode hex="028F"/>
	<outline>
		<contour>
			<point x="245" y="0" type="line"/>
			<point x="245" y="228" type="line"/>
			<point x="225" y="228" type="line"/>
			<point x="225" y="0" type="line"/>
		</contour>
		<contour>
			<point x="235" y="199" type="line"/>
			<point x="435" y="494" type="line"/>
			<point x="419" y="506" type="line"/>
			<point x="231" y="228" type="line"/>
			<point x="239" y="228" type="line"/>
			<point x="51" y="506" type="line"/>
			<point x="35" y="494" type="line"/>
		</contour>
	</outline>
</glyph>
<glyph name="lsmallcapital" format="2">
	<advance width="331"/>
	<unicode hex="029F"/>
	<outline>
		<contour>
			<point x="70" y="0" type="line"/>
			<point x="296" y="0" type="line"/>
			<point x="296" y="19" type="line"/>
			<point x="90" y="19" type="line"/>
			<point x="90" y="500" type="line"/>
			<point x="70" y="500" type="line"/>
		</contour>
	</outline>
</glyph>
<glyph name="gravecomb" format="2">
	<advance width="0"/>
	<unicode hex="0300"/>
	<outline>
		<contour>
			<point x="187" y="613" type="line"/>
			<point x="66" y="772" type="line"/>
			<point x="36" y="746" type="line"/>
			<point x="171" y="600" type="line"/>
		</contour>
	</outline>
</glyph>
<glyph name="acutecomb" format="2">
	<advance width="0"/>
	<unicode hex="0301"/>
	<outline>
		<contour>
			<point x="36" y="613" type="line"/>
			<point x="52" y="600" type="line"/>
			<point x="187" y="746" type="line"/>
			<point x="157" y="772" type="line"/>
		</contour>
	</outline>
</glyph>
<glyph name="circumflexcomb" format="2">
	<advance width="0"/>
	<unicode hex="0302"/>
	<outline>
		<contour>
			<point x="303" y="627" type="line"/>
			<point x="313" y="644" type="line"/>
			<point x="175" y="724" type="line"/>
			<point x="174" y="724" type="line"/>
			<point x="36" y="644" type="line"/>
			<point x="46" y="627" type="line"/>
			<point x="181" y="705" type="line"/>
			<point x="168" y="705" type="line"/>
		</contour>
	</outline>
</glyph>
<glyph name="tildecomb" format="2">
	<advance width="0"/>
	<unicode hex="0303"/>
	<outline>
		<contour>
			<point x="35" y="656" type="curve"/>
			<point x="52" y="646" type="line"/>
			<point x="63" y="670"/>
			<point x="90" y="686"/>
			<point x="118" y="686" type="curve"/>
			<point x="169" y="686"/>
			<point x="183" y="634"/>
			<point x="246" y="634" type="curve"/>
			<point x="279" y="634"/>
			<point x="307" y="663"/>
			<point x="320" y="687" type="curve"/>
			<point x="303" y="697" type="line"/>
			<point x="287" y="669"/>
			<point x="272" y="654"/>
			<point x="246" y="654" type="curve"/>
			<point x="190" y="654"/>
			<point x="176" y="706"/>
			<point x="118" y="706" type="curve"/>
			<point x="88" y="706"/>
			<point x="48" y="684"/>
		</contour>
	</outline>
</glyph>
<glyph name="macroncomb" format="2">
	<advance width="0"/>
	<unicode hex="0304"/>
	<outline>
		<contour>
			<point x="313" y="660" type="line"/>
			<point x="313" y="680" type="line"/>
			<point x="36" y="680" type="line"/>
			<point x="36" y="660" type="line"/>
		</contour>
	</outline>
</glyph>
<glyph name="brevecomb" format="2">
	<advance width="0"/>
	<unicode hex="0306"/>
	<outline>
		<contour>
			<point x="309" y="724" type="line"/>
			<point x="277" y="675"/>
			<point x="230" y="646"/>
			<point x="181" y="646" type="curve"/>
			<point x="132" y="646"/>
			<point x="85" y="675"/>
			<point x="53" y="724" type="curve"/>
			<point x="35" y="712" type="line"/>
			<point x="73" y="658"/>
			<point x="119" y="627"/>
			<point x="181" y="627" type="curve"/>
			<point x="243" y="627"/>
			<point x="289" y="658"/>
			<point x="327" y="712" type="curve"/>
		</contour>
	</outline>
</glyph>
<glyph name="dotaccentcomb" format="2">
	<advance width="0"/>
	<unicode hex="0307"/>
	<outline>
		<contour>
			<point x="80" y="640" type="curve"/>
			<point x="101" y="640"/>
			<point x="115" y="657"/>
			<point x="115" y="679" type="curve"/>
			<point x="115" y="695"/>
			<point x="101" y="710"/>
			<point x="80" y="710" type="curve"/>
			<point x="60" y="710"/>
			<point x="45" y="693"/>
			<point x="45" y="671" type="curve"/>
			<point x="45" y="655"/>
			<point x="59" y="640"/>
		</contour>
	</outline>
</glyph>
<glyph name="dieresiscomb" format="2">
	<advance width="0"/>
	<unicode hex="0308"/>
	<outline>
		<contour>
			<point x="240" y="640" type="curve"/>
			<point x="261" y="640"/>
			<point x="275" y="657"/>
			<point x="275" y="679" type="curve"/>
			<point x="275" y="695"/>
			<point x="261" y="710"/>
			<point x="240" y="710" type="curve"/>
			<point x="220" y="710"/>
			<point x="205" y="693"/>
			<point x="205" y="671" type="curve"/>
			<point x="205" y="655"/>
			<point x="219" y="640"/>
		</contour>
		<contour>
			<point x="80" y="640" type="curve"/>
			<point x="101" y="640"/>
			<point x="115" y="657"/>
			<point x="115" y="679" type="curve"/>
			<point x="115" y="695"/>
			<point x="101" y="710"/>
			<point x="80" y="710" type="curve"/>
			<point x="60" y="710"/>
			<point x="45" y="693"/>
			<point x="45" y="671" type="curve"/>
			<point x="45" y="655"/>
			<point x="59" y="640"/>
		</contour>
	</outline>
</glyph>
<glyph name="hookcomb" format="2">
	<advance width="0"/>
	<unicode hex="0309"/>
	<outline>
		<contour>
			<point x="83" y="590" type="line"/>
			<point x="103" y="590" type="line"/>
			<point x="103" y="607" type="line"/>
			<point x="97" y="604" type="line"/>
			<point x="144" y="604"/>
			<point x="210" y="618"/>
			<point x="210" y="675" type="curve"/>
			<point x="210" y="722"/>
			<point x="138" y="768"/>
			<point x="36" y="770" type="curve"/>
			<point x="35" y="751" type="line"/>
			<point x="131" y="750"/>
			<point x="190" y="705"/>
			<point x="190" y="675" type="curve"/>
			<point x="190" y="633"/>
			<point x="133" y="622"/>
			<point x="83" y="622" type="curve"/>
		</contour>
	</outline>
</glyph>
<glyph name="ringcomb" format="2">
	<advance width="0"/>
	<unicode hex="030A"/>
	<outline>
		<contour>
			<point x="115" y="605" type="curve"/>
			<point x="147" y="605"/>
			<point x="170" y="632"/>
			<point x="170" y="666" type="curve"/>
			<point x="170" y="691"/>
			<point x="148" y="715"/>
			<point x="115" y="715" type="curve"/>
			<point x="83" y="715"/>
			<point x="60" y="688"/>
			<point x="60" y="654" type="curve"/>
			<point x="60" y="629"/>
			<point x="82" y="605"/>
		</contour>
		<contour>
			<point x="115" y="580" type="curve"/>
			<point x="67" y="580"/>
			<point x="35" y="615"/>
			<point x="35" y="651" type="curve"/>
			<point x="35" y="700"/>
			<point x="68" y="740"/>
			<point x="115" y="740" type="curve"/>
			<point x="163" y="740"/>
			<point x="195" y="705"/>
			<point x="195" y="669" type="curve"/>
			<point x="195" y="620"/>
			<point x="162" y="580"/>
		</contour>
	</outline>
</glyph>
<glyph name="doubleacutecomb" format="2">
	<advance width="0"/>
	<unicode hex="030B"/>
	<outline>
		<contour>
			<point x="155" y="613" type="line"/>
			<point x="171" y="600" type="line"/>
			<point x="306" y="746" type="line"/>
			<point x="276" y="772" type="line"/>
		</contour>
		<contour>
			<point x="35" y="613" type="line"/>
			<point x="51" y="600" type="line"/>
			<point x="186" y="746" type="line"/>
			<point x="156" y="772" type="line"/>
		</contour>
	</outline>
</glyph>
<glyph name="caroncomb" format="2">
	<advance width="0"/>
	<unicode hex="030C"/>
	<outline>
		<contour>
			<point x="303" y="724" type="line"/>
			<point x="168" y="646" type="line"/>
			<point x="181" y="646" type="line"/>
			<point x="46" y="724" type="line"/>
			<point x="36" y="707" type="line"/>
			<point x="174" y="627" type="line"/>
			<point x="175" y="627" type="line"/>
			<point x="313" y="707" type="line"/>
		</contour>
	</outline>
</glyph>
<glyph name="doublegravecomb" format="2">
	<advance width="0"/>
	<unicode hex="030F"/>
	<outline>
		<contour>
			<point x="187" y="613" type="line"/>
			<point x="66" y="772" type="line"/>
			<point x="36" y="746" type="line"/>
			<point x="171" y="600" type="line"/>
		</contour>
		<contour>
			<point x="307" y="613" type="line"/>
			<point x="186" y="772" type="line"/>
			<point x="156" y="746" type="line"/>
			<point x="291" y="600" type="line"/>
		</contour>
	</outline>
</glyph>
<glyph name="horncomb" format="2">
	<advance width="0"/>
	<unicode hex="031B"/>
	<outline>
		<contour>
			<point x="0" y="500" type="line"/>
			<point x="0" y="480" type="line"/>
			<point x="23" y="480" type="line"/>
			<point x="93" y="480"/>
			<point x="136" y="530"/>
			<point x="143" y="590" type="curve"/>
			<point x="124" y="595" type="line"/>
			<point x="118" y="538"/>
			<point x="77" y="500"/>
			<point x="27" y="500" type="curve"/>
		</contour>
	</outline>
</glyph>
<glyph name="dotbelowcomb" format="2">
	<advance width="0"/>
	<unicode hex="0323"/>
	<outline>
		<contour>
			<point x="80" y="-210" type="curve"/>
			<point x="101" y="-210"/>
			<point x="115" y="-193"/>
			<point x="115" y="-171" type="curve"/>
			<point x="115" y="-155"/>
			<point x="101" y="-140"/>
			<point x="80" y="-140" type="curve"/>
			<point x="60" y="-140"/>
			<point x="45" y="-157"/>
			<point x="45" y="-179" type="curve"/>
			<point x="45" y="-195"/>
			<point x="59" y="-210"/>
		</contour>
	</outline>
</glyph>
<glyph name="commaaccentcomb" format="2">
	<advance width="0"/>
	<unicode hex="0326"/>
	<outline>
		<contour>
			<point x="35" y="-262" type="line"/>
			<point x="53" y="-269" type="line"/>
			<point x="121" y="-114" type="line"/>
			<point x="83" y="-100" type="line"/>
		</contour>
	</outline>
</glyph>
<glyph name="cedillacomb" format="2">
	<advance width="0"/>
	<unicode hex="0327"/>
	<outline>
		<contour>
			<point x="71" y="10" type="line"/>
			<point x="48" y="-72" type="line"/>
			<point x="103" y="-72"/>
			<point x="131" y="-88"/>
			<point x="131" y="-114" type="curve"/>
			<point x="131" y="-144"/>
			<point x="92" y="-165"/>
			<point x="35" y="-171" type="curve"/>
			<point x="40" y="-190" type="line"/>
			<point x="100" y="-183"/>
			<point x="150" y="-160"/>
			<point x="150" y="-110" type="curve"/>
			<point x="150" y="-73"/>
			<point x="104" y="-54"/>
			<point x="67" y="-54" type="curve"/>
			<point x="73" y="-57" type="line"/>
			<point x="91" y="10" type="line"/>
		</contour>
	</outline>
</glyph>
<glyph name="ogonekcomb" format="2">
	<advance width="0"/>
	<unicode hex="0328"/>
	<outline>
		<contour>
			<point x="130" y="0" type="curve"/>
			<point x="117" y="12" type="line"/>
			<point x="63" y="-28"/>
			<point x="35" y="-59"/>
			<point x="35" y="-88" type="curve"/>
			<point x="35" y="-138"/>
			<point x="85" y="-161"/>
			<point x="145" y="-168" type="curve"/>
			<point x="150" y="-149" type="line"/>
			<point x="93" y="-143"/>
			<point x="55" y="-122"/>
			<point x="55" y="-92" type="curve"/>
			<point x="55" y="-66"/>
			<point x="80" y="-39"/>
		</contour>
	</outline>
</glyph>
<glyph name="strokelongcomb" format="2">
	<advance width="470"/>
	<unicode hex="0336"/>
	<outline>
		<contour>
			<point x="35" y="240" type="line"/>
			<point x="435" y="240" type="line"/>
			<point x="435" y="260" type="line"/>
			<point x="35" y="260" type="line"/>
		</contour>
	</outline>
</glyph>
<glyph name="greekanoteleia" format="2">
	<advance width="160"/>
	<unicode hex="0387"/>
	<outline>
		<contour>
			<point x="80" y="315" type="curve"/>
			<point x="101" y="315"/>
			<point x="115" y="332"/>
			<point x="115" y="354" type="curve"/>
			<point x="115" y="370"/>
			<point x="101" y="385"/>
			<point x="80" y="385" type="curve"/>
			<point x="60" y="385"/>
			<point x="45" y="368"/>
			<point x="45" y="346" type="curve"/>
			<point x="45" y="330"/>
			<point x="59" y="315"/>
		</contour>
	</outline>
</glyph>
<glyph name="Xi-grek" format="2">
	<advance width="581"/>
	<unicode hex="039E"/>
	<outline>
		<contour>
			<point x="517" y="680" type="line"/>
			<point x="517" y="700" type="line"/>
			<point x="64" y="700" type="line"/>
			<point x="64" y="680" type="line"/>
		</contour>
		<contour>
			<point x="546" y="0" type="line"/>
			<point x="546" y="20" type="line"/>
			<point x="35" y="20" type="line"/>
			<point x="35" y="0" type="line"/>
		</contour>
		<contour>
			<point x="502" y="351" type="line"/>
			<point x="502" y="371" type="line"/>
			<point x="79" y="371" type="line"/>
			<point x="79" y="351" type="line"/>
		</contour>
	</outline>
</glyph>
<glyph name="Sigma-grek" format="2">
	<advance width="620"/>
	<unicode hex="03A3"/>
	<outline>
		<contour>
			<point x="506" y="358" type="line"/>
			<point x="506" y="360" type="line"/>
			<point x="85" y="606" type="line"/>
			<point x="85" y="602" type="line"/>
			<point x="585" y="700" type="line"/>
			<point x="580" y="719" type="line"/>
			<point x="35" y="613" type="line"/>
			<point x="35" y="612" type="line"/>
			<point x="471" y="357" type="line"/>
			<point x="471" y="361" type="line"/>
			<point x="35" y="107" type="line"/>
			<point x="35" y="106" type="line"/>
			<point x="580" y="-1" type="line"/>
			<point x="585" y="18" type="line"/>
			<point x="85" y="116" type="line"/>
			<point x="85" y="112" type="line"/>
		</contour>
	</outline>
</glyph>
<glyph name="Psi-grek" format="2">
	<advance width="680"/>
	<unicode hex="03A8"/>
	<outline>
		<contour>
			<point x="350" y="0" type="line"/>
			<point x="350" y="700" type="line"/>
			<point x="330" y="700" type="line"/>
			<point x="330" y="0" type="line"/>
		</contour>
		<contour>
			<point x="318" y="190" type="line"/>
			<point x="526" y="190"/>
			<point x="610" y="323"/>
			<point x="610" y="513" type="curve"/>
			<point x="610" y="700" type="line"/>
			<point x="590" y="700" type="line"/>
			<point x="590" y="513" type="line"/>
			<point x="590" y="341"/>
			<point x="518" y="210"/>
			<point x="318" y="210" type="curve"/>
		</contour>
		<contour>
			<point x="70" y="513" type="line"/>
			<point x="70" y="372"/>
			<point x="132" y="190"/>
			<point x="318" y="190" type="curve"/>
			<point x="318" y="210" type="line"/>
			<point x="150" y="210"/>
			<point x="90" y="381"/>
			<point x="90" y="513" type="curve"/>
			<point x="90" y="700" type="line"/>
			<point x="70" y="700" type="line"/>
		</contour>
	</outline>
</glyph>
<glyph name="Omega-grek" format="2">
	<advance width="820"/>
	<unicode hex="03A9"/>
	<outline>
		<contour>
			<point x="526" y="0" type="line"/>
			<point x="676" y="87"/>
			<point x="760" y="206"/>
			<point x="760" y="390" type="curve"/>
			<point x="760" y="542"/>
			<point x="634" y="710"/>
			<point x="410" y="710" type="curve"/>
			<point x="209" y="710"/>
			<point x="60" y="559"/>
			<point x="60" y="330" type="curve"/>
			<point x="60" y="187"/>
			<point x="178" y="80"/>
			<point x="292" y="0" type="curve"/>
			<point x="282" y="20" type="line"/>
			<point x="35" y="20" type="line"/>
			<point x="35" y="1" type="line"/>
			<point x="330" y="0" type="line"/>
			<point x="195" y="86"/>
			<point x="80" y="195"/>
			<point x="80" y="332" type="curve"/>
			<point x="80" y="541"/>
			<point x="214" y="690"/>
			<point x="410" y="690" type="curve"/>
			<point x="618" y="690"/>
			<point x="740" y="535"/>
			<point x="740" y="388" type="curve"/>
			<point x="740" y="209"/>
			<point x="662" y="95"/>
			<point x="490" y="0" type="curve"/>
			<point x="785" y="0" type="line"/>
			<point x="785" y="20" type="line"/>
			<point x="536" y="20" type="line"/>
		</contour>
	</outline>
</glyph>
<glyph name="alpha-grek" format="2">
	<advance width="636"/>
	<unicode hex="03B1"/>
	<outline>
		<contour>
			<point x="278" y="-10" type="curve"/>
			<point x="278" y="10" type="line"/>
			<point x="161" y="10"/>
			<point x="55" y="93"/>
			<point x="55" y="222" type="curve"/>
			<point x="55" y="373"/>
			<point x="153" y="490"/>
			<point x="278" y="490" type="curve"/>
			<point x="278" y="510" type="line"/>
			<point x="141" y="510"/>
			<point x="35" y="384"/>
			<point x="35" y="222" type="curve"/>
			<point x="35" y="83"/>
			<point x="147" y="-10"/>
		</contour>
		<contour>
			<point x="278" y="510" type="curve"/>
			<point x="278" y="490" type="line"/>
			<point x="403" y="490"/>
			<point x="477" y="385"/>
			<point x="514" y="249" type="curve"/>
			<point x="581" y="-4" type="line"/>
			<point x="601" y="2" type="line"/>
			<point x="536" y="249" type="line"/>
			<point x="496" y="395"/>
			<point x="421" y="510"/>
		</contour>
		<contour>
			<point x="278" y="-10" type="line"/>
			<point x="421" y="-10"/>
			<point x="496" y="105"/>
			<point x="536" y="251" type="curve"/>
			<point x="601" y="498" type="line"/>
			<point x="581" y="504" type="line"/>
			<point x="514" y="251" type="line"/>
			<point x="477" y="115"/>
			<point x="403" y="10"/>
			<point x="278" y="10" type="curve"/>
		</contour>
	</outline>
</glyph>
<glyph name="beta-grek" format="2">
	<advance width="464"/>
	<unicode hex="03B2"/>
	<outline>
		<contour>
			<point x="90" y="-230" type="line"/>
			<point x="90" y="571" type="line"/>
			<point x="70" y="571" type="line"/>
			<point x="70" y="-230" type="line"/>
		</contour>
		<contour>
			<point x="130" y="380" type="line"/>
			<point x="269" y="380"/>
			<point x="393" y="486"/>
			<point x="393" y="607" type="curve"/>
			<point x="393" y="688"/>
			<point x="315" y="740"/>
			<point x="230" y="740" type="curve"/>
			<point x="230" y="720" type="line"/>
			<point x="302" y="720"/>
			<point x="374" y="672"/>
			<point x="374" y="607" type="curve"/>
			<point x="374" y="489"/>
			<point x="242" y="397"/>
			<point x="130" y="397" type="curve"/>
		</contour>
		<contour>
			<point x="70" y="-10" type="line"/>
			<point x="294" y="-10"/>
			<point x="429" y="92"/>
			<point x="429" y="229" type="curve"/>
			<point x="429" y="366"/>
			<point x="289" y="397"/>
			<point x="130" y="397" type="curve"/>
			<point x="130" y="377" type="line"/>
			<point x="280" y="377"/>
			<point x="408" y="348"/>
			<point x="408" y="229" type="curve"/>
			<point x="408" y="100"/>
			<point x="279" y="10"/>
			<point x="70" y="10" type="curve"/>
		</contour>
		<contour>
			<point x="90" y="571" type="line"/>
			<point x="90" y="656"/>
			<point x="128" y="720"/>
			<point x="230" y="720" type="curve"/>
			<point x="230" y="740" type="line"/>
			<point x="116" y="740"/>
			<point x="70" y="666"/>
			<point x="70" y="571" type="curve"/>
		</contour>
	</outline>
</glyph>
<glyph name="gamma-grek" format="2">
	<advance width="567"/>
	<unicode hex="03B3"/>
	<outline>
		<contour>
			<point x="285" y="28" type="line"/>
			<point x="51" y="506" type="line"/>
			<point x="35" y="495" type="line"/>
			<point x="283" y="-14" type="line"/>
			<point x="284" y="-14" type="line"/>
			<point x="532" y="495" type="line"/>
			<point x="515" y="506" type="line"/>
			<point x="282" y="28" type="line"/>
		</contour>
		<contour>
			<point x="294" y="-230" type="line"/>
			<point x="294" y="17" type="line"/>
			<point x="274" y="17" type="line"/>
			<point x="274" y="-230" type="line"/>
		</contour>
	</outline>
</glyph>
<glyph name="delta-grek" format="2">
	<advance width="508"/>
	<unicode hex="03B4"/>
	<outline>
		<contour>
			<point x="131" y="720" type="curve"/>
			<point x="131" y="710" type="line"/>
			<point x="448" y="710" type="line"/>
			<point x="448" y="730" type="line"/>
			<point x="91" y="730" type="line"/>
			<point x="91" y="729" type="line"/>
			<point x="248" y="595"/>
			<point x="453" y="404"/>
			<point x="453" y="239" type="curve"/>
			<point x="453" y="74"/>
			<point x="367" y="10"/>
			<point x="251" y="10" type="curve"/>
			<point x="132" y="10"/>
			<point x="54" y="90"/>
			<point x="54" y="196" type="curve"/>
			<point x="54" y="302"/>
			<point x="128" y="490"/>
			<point x="338" y="490" type="curve"/>
			<point x="338" y="510" type="line"/>
			<point x="126" y="510"/>
			<point x="35" y="327"/>
			<point x="35" y="196" type="curve"/>
			<point x="35" y="79"/>
			<point x="119" y="-10"/>
			<point x="251" y="-10" type="curve"/>
			<point x="382" y="-10"/>
			<point x="473" y="67"/>
			<point x="473" y="239" type="curve"/>
			<point x="473" y="411"/>
			<point x="251" y="616"/>
		</contour>
	</outline>
</glyph>
<glyph name="zeta-grek" format="2">
	<advance width="412"/>
	<unicode hex="03B6"/>
	<outline>
		<contour>
			<point x="339" y="720" type="line"/>
			<point x="227" y="606"/>
			<point x="35" y="341"/>
			<point x="35" y="199" type="curve"/>
			<point x="35" y="47"/>
			<point x="156" y="-10"/>
			<point x="287" y="-10" type="curve"/>
			<point x="287" y="10" type="line"/>
			<point x="171" y="10"/>
			<point x="55" y="54"/>
			<point x="55" y="199" type="curve"/>
			<point x="55" y="314"/>
			<point x="212" y="565"/>
			<point x="377" y="729" type="curve"/>
			<point x="377" y="730" type="line"/>
			<point x="60" y="730" type="line"/>
			<point x="60" y="710" type="line"/>
			<point x="339" y="710" type="line"/>
		</contour>
		<contour>
			<point x="311" y="-193" type="line"/>
			<point x="366" y="18" type="line"/>
			<point x="348" y="14"/>
			<point x="308" y="10"/>
			<point x="287" y="10" type="curve"/>
			<point x="287" y="-10" type="line"/>
			<point x="305" y="-10"/>
			<point x="335" y="-8"/>
			<point x="347" y="-5" type="curve"/>
			<point x="343" y="5" type="line"/>
			<point x="292" y="-188" type="line"/>
		</contour>
	</outline>
</glyph>
<glyph name="theta-grek" format="2">
	<advance width="576"/>
	<unicode hex="03B8"/>
	<outline>
		<contour>
			<point x="288" y="-10" type="curve"/>
			<point x="436" y="-10"/>
			<point x="541" y="173"/>
			<point x="541" y="401" type="curve"/>
			<point x="541" y="568"/>
			<point x="441" y="730"/>
			<point x="288" y="730" type="curve"/>
			<point x="140" y="730"/>
			<point x="35" y="547"/>
			<point x="35" y="319" type="curve"/>
			<point x="35" y="152"/>
			<point x="135" y="-10"/>
		</contour>
		<contour>
			<point x="288" y="10" type="curve"/>
			<point x="147" y="10"/>
			<point x="55" y="163"/>
			<point x="55" y="321" type="curve"/>
			<point x="55" y="537"/>
			<point x="152" y="710"/>
			<point x="288" y="710" type="curve"/>
			<point x="429" y="710"/>
			<point x="521" y="557"/>
			<point x="521" y="399" type="curve"/>
			<point x="521" y="183"/>
			<point x="424" y="10"/>
		</contour>
		<contour>
			<point x="532" y="375" type="line"/>
			<point x="45" y="375" type="line"/>
			<point x="45" y="355" type="line"/>
			<point x="532" y="355" type="line"/>
		</contour>
	</outline>
</glyph>
<glyph name="lamda-grek" format="2">
	<advance width="517"/>
	<unicode hex="03BB"/>
	<outline>
		<contour>
			<point x="289" y="494" type="line"/>
			<point x="274" y="508" type="line"/>
			<point x="35" y="3" type="line"/>
			<point x="53" y="-5" type="line"/>
		</contour>
		<contour>
			<point x="202" y="735" type="line"/>
			<point x="184" y="728" type="line"/>
			<point x="271" y="500" type="line"/>
			<point x="274" y="492" type="line"/>
			<point x="463" y="-5" type="line"/>
			<point x="482" y="2" type="line"/>
			<point x="292" y="500" type="line"/>
		</contour>
	</outline>
</glyph>
<glyph name="xi-grek" format="2">
	<advance width="421"/>
	<unicode hex="03BE"/>
	<outline>
		<contour>
			<point x="344" y="380" type="curve"/>
			<point x="344" y="397" type="line"/>
			<point x="232" y="397"/>
			<point x="90" y="413"/>
			<point x="90" y="527" type="curve"/>
			<point x="91" y="632"/>
			<point x="222" y="720"/>
			<point x="364" y="720" type="curve"/>
			<point x="364" y="740" type="line"/>
			<point x="209" y="740"/>
			<point x="71" y="648"/>
			<point x="71" y="527" type="curve"/>
			<point x="71" y="406"/>
			<point x="205" y="380"/>
		</contour>
		<contour>
			<point x="307" y="-10" type="curve"/>
			<point x="307" y="10" type="line"/>
			<point x="185" y="10"/>
			<point x="56" y="25"/>
			<point x="56" y="154" type="curve"/>
			<point x="56" y="273"/>
			<point x="195" y="377"/>
			<point x="344" y="377" type="curve"/>
			<point x="344" y="397" type="line"/>
			<point x="185" y="397"/>
			<point x="35" y="286"/>
			<point x="35" y="154" type="curve"/>
			<point x="35" y="12"/>
			<point x="170" y="-10"/>
		</contour>
		<contour>
			<point x="331" y="-193" type="line"/>
			<point x="386" y="18" type="line"/>
			<point x="368" y="14"/>
			<point x="328" y="10"/>
			<point x="307" y="10" type="curve"/>
			<point x="307" y="-10" type="line"/>
			<point x="325" y="-10"/>
			<point x="355" y="-8"/>
			<point x="367" y="-5" type="curve"/>
			<point x="363" y="5" type="line"/>
			<point x="312" y="-188" type="line"/>
		</contour>
	</outline>
</glyph>
<glyph name="rho-grek" format="2">
	<advance width="576"/>
	<unicode hex="03C1"/>
	<outline>
		<contour>
			<point x="396" y="-10"/>
			<point x="491" y="109"/>
			<point x="491" y="269" type="curve"/>
			<point x="491" y="386"/>
			<point x="401" y="510"/>
			<point x="263" y="510" type="curve"/>
			<point x="130" y="510"/>
			<point x="35" y="381"/>
			<point x="35" y="221" type="curve"/>
			<point x="35" y="221" type="line"/>
			<point x="35" y="104"/>
			<point x="131" y="-10"/>
			<point x="263" y="-10" type="curve"/>
		</contour>
		<contour>
			<point x="263" y="10" type="curve"/>
			<point x="137" y="10"/>
			<point x="55" y="115"/>
			<point x="55" y="223" type="curve"/>
			<point x="55" y="371"/>
			<point x="142" y="490"/>
			<point x="263" y="490" type="curve"/>
			<point x="389" y="490"/>
			<point x="471" y="375"/>
			<point x="471" y="267" type="curve"/>
			<point x="471" y="119"/>
			<point x="384" y="10"/>
		</contour>
		<contour>
			<point x="55" y="-230" type="line"/>
			<point x="55" y="223" type="line"/>
			<point x="35" y="221" type="line"/>
			<point x="35" y="-230" type="line"/>
		</contour>
	</outline>
</glyph>
<glyph name="finalsigma-grek" format="2">
	<advance width="448"/>
	<unicode hex="03C2"/>
	<outline>
		<contour>
			<point x="398" y="510" type="line"/>
			<point x="171" y="510"/>
			<point x="35" y="344"/>
			<point x="35" y="172" type="curve"/>
			<point x="35" y="53"/>
			<point x="157" y="-10"/>
			<point x="334" y="-10" type="curve"/>
			<point x="334" y="10" type="line"/>
			<point x="171" y="10"/>
			<point x="55" y="63"/>
			<point x="55" y="172" type="curve"/>
			<point x="55" y="333"/>
			<point x="183" y="490"/>
			<point x="398" y="490" type="curve"/>
		</contour>
		<contour>
			<point x="358" y="-193" type="line"/>
			<point x="413" y="18" type="line"/>
			<point x="395" y="14"/>
			<point x="355" y="10"/>
			<point x="334" y="10" type="curve"/>
			<point x="334" y="-10" type="line"/>
			<point x="352" y="-10"/>
			<point x="382" y="-8"/>
			<point x="394" y="-5" type="curve"/>
			<point x="390" y="5" type="line"/>
			<point x="339" y="-188" type="line"/>
		</contour>
	</outline>
</glyph>
<glyph name="sigma-grek" format="2">
	<advance width="670"/>
	<unicode hex="03C3"/>
	<outline>
		<contour>
			<point x="288" y="-10" type="curve"/>
			<point x="436" y="-10"/>
			<point x="541" y="119"/>
			<point x="541" y="279" type="curve"/>
			<point x="541" y="396"/>
			<point x="441" y="510"/>
			<point x="288" y="510" type="curve"/>
			<point x="140" y="510"/>
			<point x="35" y="381"/>
			<point x="35" y="221" type="curve"/>
			<point x="35" y="104"/>
			<point x="135" y="-10"/>
		</contour>
		<contour>
			<point x="288" y="10" type="curve"/>
			<point x="147" y="10"/>
			<point x="55" y="115"/>
			<point x="55" y="223" type="curve"/>
			<point x="55" y="371"/>
			<point x="152" y="490"/>
			<point x="288" y="490" type="curve"/>
			<point x="429" y="490"/>
			<point x="521" y="385"/>
			<point x="521" y="277" type="curve"/>
			<point x="521" y="129"/>
			<point x="424" y="10"/>
		</contour>
		<contour>
			<point x="635" y="500" type="line"/>
			<point x="345" y="500" type="line"/>
			<point x="385" y="480" type="line"/>
			<point x="635" y="480" type="line"/>
		</contour>
	</outline>
</glyph>
<glyph name="phi-grek" format="2">
	<advance width="616"/>
	<unicode hex="03C6"/>
	<outline>
		<contour>
			<point x="318" y="-230" type="line"/>
			<point x="318" y="500" type="line"/>
			<point x="298" y="500" type="line"/>
			<point x="298" y="-230" type="line"/>
		</contour>
		<contour>
			<point x="318" y="-10" type="curve"/>
			<point x="318" y="10" type="line"/>
			<point x="165" y="10"/>
			<point x="55" y="124"/>
			<point x="55" y="233" type="curve"/>
			<point x="55" y="348"/>
			<point x="112" y="425"/>
			<point x="186" y="495" type="curve"/>
			<point x="170" y="506" type="line"/>
			<point x="97" y="442"/>
			<point x="35" y="354"/>
			<point x="35" y="231" type="curve"/>
			<point x="35" y="121"/>
			<point x="148" y="-10"/>
		</contour>
		<contour>
			<point x="298" y="-10" type="line"/>
			<point x="471" y="-10"/>
			<point x="581" y="121"/>
			<point x="581" y="291" type="curve"/>
			<point x="581" y="437"/>
			<point x="433" y="510"/>
			<point x="298" y="510" type="curve"/>
			<point x="298" y="490" type="line"/>
			<point x="422" y="490"/>
			<point x="561" y="419"/>
			<point x="561" y="291" type="curve"/>
			<point x="561" y="128"/>
			<point x="451" y="10"/>
			<point x="298" y="10" type="curve"/>
		</contour>
	</outline>
</glyph>
<glyph name="chi-grek" format="2">
	<advance width="480"/>
	<unicode hex="03C7"/>
	<outline>
		<contour>
			<point x="425" y="497" type="line"/>
			<point x="407" y="506" type="line"/>
			<point x="35" y="-228" type="line"/>
			<point x="53" y="-236" type="line"/>
		</contour>
		<contour>
			<point x="45" y="497" type="line"/>
			<point x="417" y="-236" type="line"/>
			<point x="435" y="-228" type="line"/>
			<point x="63" y="506" type="line"/>
		</contour>
	</outline>
</glyph>
<glyph name="psi-grek" format="2">
	<advance width="680"/>
	<unicode hex="03C8"/>
	<outline>
		<contour>
			<point x="350" y="-230" type="line"/>
			<point x="350" y="600" type="line"/>
			<point x="330" y="600" type="line"/>
			<point x="330" y="-230" type="line"/>
		</contour>
		<contour>
			<point x="318" y="-10" type="line"/>
			<point x="526" y="-10"/>
			<point x="610" y="123"/>
			<point x="610" y="313" type="curve"/>
			<point x="610" y="500" type="line"/>
			<point x="590" y="500" type="line"/>
			<point x="590" y="313" type="line"/>
			<point x="590" y="141"/>
			<point x="518" y="10"/>
			<point x="318" y="10" type="curve"/>
		</contour>
		<contour>
			<point x="70" y="313" type="line"/>
			<point x="70" y="172"/>
			<point x="132" y="-10"/>
			<point x="318" y="-10" type="curve"/>
			<point x="318" y="10" type="line"/>
			<point x="150" y="10"/>
			<point x="90" y="181"/>
			<point x="90" y="313" type="curve"/>
			<point x="90" y="500" type="line"/>
			<point x="70" y="500" type="line"/>
		</contour>
	</outline>
</glyph>
<glyph name="omega-grek" format="2">
	<advance width="722"/>
	<unicode hex="03C9"/>
	<outline>
		<contour>
			<point x="35" y="195" type="curve"/>
			<point x="35" y="70"/>
			<point x="107" y="-10"/>
			<point x="199" y="-10" type="curve"/>
			<point x="311" y="-10"/>
			<point x="371" y="145"/>
			<point x="371" y="325" type="curve"/>
			<point x="351" y="325" type="line"/>
			<point x="351" y="164"/>
			<point x="299" y="12"/>
			<point x="199" y="12" type="curve"/>
			<point x="119" y="12"/>
			<point x="55" y="78"/>
			<point x="55" y="195" type="curve"/>
			<point x="55" y="350"/>
			<point x="86" y="425"/>
			<point x="125" y="500" type="curve"/>
			<point x="105" y="507" type="line"/>
			<point x="66" y="426"/>
			<point x="35" y="351"/>
		</contour>
		<contour>
			<point x="687" y="195" type="curve"/>
			<point x="687" y="351"/>
			<point x="656" y="426"/>
			<point x="617" y="507" type="curve"/>
			<point x="597" y="500" type="line"/>
			<point x="636" y="425"/>
			<point x="667" y="350"/>
			<point x="667" y="195" type="curve"/>
			<point x="667" y="78"/>
			<point x="603" y="12"/>
			<point x="523" y="12" type="curve"/>
			<point x="423" y="12"/>
			<point x="371" y="164"/>
			<point x="371" y="325" type="curve"/>
			<point x="351" y="325" type="line"/>
			<point x="351" y="145"/>
			<point x="411" y="-10"/>
			<point x="523" y="-10" type="curve"/>
			<point x="615" y="-10"/>
			<point x="687" y="70"/>
		</contour>
	</outline>
</glyph>
<glyph name="thetasymbol-grek" format="2">
	<advance width="565"/>
	<unicode hex="03D1"/>
	<outline>
		<contour>
			<point x="236" y="-10" type="curve"/>
			<point x="353" y="-10"/>
			<point x="439" y="167"/>
			<point x="439" y="401" type="curve"/>
			<point x="439" y="567"/>
			<point x="361" y="730"/>
			<point x="236" y="730" type="curve"/>
			<point x="126" y="730"/>
			<point x="48" y="576"/>
			<point x="35" y="385" type="curve"/>
			<point x="55" y="385" type="line"/>
			<point x="67" y="557"/>
			<point x="134" y="710"/>
			<point x="236" y="710" type="curve"/>
			<point x="343" y="710"/>
			<point x="419" y="568"/>
			<point x="419" y="399" type="curve"/>
			<point x="419" y="185"/>
			<point x="344" y="10"/>
			<point x="236" y="10" type="curve"/>
			<point x="127" y="10"/>
			<point x="69" y="155"/>
			<point x="58" y="253" type="curve"/>
			<point x="38" y="250" type="line"/>
			<point x="50" y="141"/>
			<point x="116" y="-10"/>
		</contour>
		<contour>
			<point x="530" y="385" type="line"/>
			<point x="530" y="405" type="line"/>
			<point x="43" y="405" type="line"/>
			<point x="43" y="385" type="line"/>
		</contour>
	</outline>
</glyph>
<glyph name="pisymbol-grek" format="2">
	<advance width="792"/>
	<unicode hex="03D6"/>
	<outline>
		<contour>
			<point x="70" y="195" type="curve"/>
			<point x="70" y="70"/>
			<point x="142" y="-10"/>
			<point x="234" y="-10" type="curve"/>
			<point x="346" y="-10"/>
			<point x="406" y="145"/>
			<point x="406" y="325" type="curve"/>
			<point x="386" y="325" type="line"/>
			<point x="386" y="164"/>
			<point x="334" y="12"/>
			<point x="234" y="12" type="curve"/>
			<point x="154" y="12"/>
			<point x="90" y="78"/>
			<point x="90" y="195" type="curve"/>
			<point x="90" y="350"/>
			<point x="121" y="425"/>
			<point x="160" y="500" type="curve"/>
			<point x="137" y="500" type="line"/>
			<point x="101" y="426"/>
			<point x="70" y="351"/>
		</contour>
		<contour>
			<point x="722" y="195" type="curve"/>
			<point x="722" y="351"/>
			<point x="691" y="426"/>
			<point x="655" y="500" type="curve"/>
			<point x="632" y="500" type="line"/>
			<point x="671" y="425"/>
			<point x="702" y="350"/>
			<point x="702" y="195" type="curve"/>
			<point x="702" y="78"/>
			<point x="638" y="12"/>
			<point x="558" y="12" type="curve"/>
			<point x="458" y="12"/>
			<point x="406" y="164"/>
			<point x="406" y="325" type="curve"/>
			<point x="386" y="325" type="line"/>
			<point x="386" y="145"/>
			<point x="446" y="-10"/>
			<point x="558" y="-10" type="curve"/>
			<point x="650" y="-10"/>
			<point x="722" y="70"/>
		</contour>
		<contour>
			<point x="757" y="480" type="line"/>
			<point x="757" y="500" type="line"/>
			<point x="35" y="500" type="line"/>
			<point x="35" y="480" type="line"/>
		</contour>
	</outline>
</glyph>
<glyph name="kappasymbol-grek" format="2">
	<advance width="669"/>
	<unicode hex="03F0"/>
	<outline>
		<contour>
			<point x="44" y="510" type="curve"/>
			<point x="35" y="491" type="line"/>
			<point x="99" y="466"/>
			<point x="152" y="408"/>
			<point x="152" y="287" type="curve"/>
			<point x="172" y="287" type="line"/>
			<point x="172" y="425"/>
			<point x="114" y="481"/>
		</contour>
		<contour>
			<point x="625" y="-10" type="curve"/>
			<point x="634" y="9" type="line"/>
			<point x="570" y="34"/>
			<point x="517" y="92"/>
			<point x="517" y="213" type="curve"/>
			<point x="497" y="213" type="line"/>
			<point x="497" y="75"/>
			<point x="555" y="19"/>
		</contour>
		<contour>
			<point x="497" y="453" type="line"/>
			<point x="497" y="213" type="line"/>
			<point x="517" y="213" type="line"/>
			<point x="517" y="514" type="line"/>
			<point x="516" y="514" type="line"/>
			<point x="172" y="44" type="line"/>
			<point x="172" y="287" type="line"/>
			<point x="152" y="287" type="line"/>
			<point x="152" y="-14" type="line"/>
			<point x="153" y="-14" type="line"/>
		</contour>
	</outline>
</glyph>
<glyph name="Ghe-cyrl" format="2">
	<advance width="421"/>
	<unicode hex="0413"/>
	<outline>
		<contour>
			<point x="70" y="700" type="line"/>
			<point x="70" y="0" type="line"/>
			<point x="90" y="0" type="line"/>
			<point x="90" y="680" type="line"/>
			<point x="386" y="680" type="line"/>
			<point x="386" y="700" type="line"/>
		</contour>
	</outline>
</glyph>
<glyph name="De-cyrl" format="2">
	<advance width="677"/>
	<unicode hex="0414"/>
	<outline>
		<contour>
			<point x="546" y="700" type="line"/>
			<point x="260" y="700" type="line"/>
			<point x="260" y="680" type="line"/>
			<point x="526" y="680" type="line"/>
			<point x="526" y="0" type="line"/>
			<point x="546" y="0" type="line"/>
		</contour>
		<contour>
			<point x="55" y="0" type="line"/>
			<point x="622" y="0" type="line"/>
			<point x="622" y="-150" type="line"/>
			<point x="642" y="-150" type="line"/>
			<point x="642" y="20" type="line"/>
			<point x="35" y="20" type="line"/>
			<point x="35" y="-150" type="line"/>
			<point x="55" y="-150" type="line"/>
		</contour>
		<contour>
			<point x="129" y="4" type="line"/>
			<point x="216" y="251"/>
			<point x="244" y="416"/>
			<point x="270" y="700" type="curve"/>
			<point x="250" y="700" type="line"/>
			<point x="224" y="424"/>
			<point x="198" y="259"/>
			<point x="113" y="15" type="curve"/>
		</contour>
	</outline>
</glyph>
<glyph name="Zhe-cyrl" format="2">
	<advance width="850"/>
	<unicode hex="0416"/>
	<outline>
		<contour>
			<point x="435" y="0" type="line"/>
			<point x="435" y="700" type="line"/>
			<point x="415" y="700" type="line"/>
			<point x="415" y="0" type="line"/>
		</contour>
		<contour>
			<point x="435" y="344" type="line"/>
			<point x="801" y="13" type="line"/>
			<point x="815" y="28" type="line"/>
			<point x="465" y="345" type="line"/>
			<point x="797" y="667" type="line"/>
			<point x="783" y="681" type="line"/>
		</contour>
		<contour>
			<point x="415" y="344" type="line"/>
			<point x="67" y="681" type="line"/>
			<point x="53" y="667" type="line"/>
			<point x="385" y="345" type="line"/>
			<point x="35" y="28" type="line"/>
			<point x="49" y="13" type="line"/>
		</contour>
	</outline>
</glyph>
<glyph name="Ze-cyrl" format="2">
	<advance width="419"/>
	<unicode hex="0417"/>
	<outline>
		<contour>
			<point x="75" y="350" type="line"/>
			<point x="214" y="350"/>
			<point x="348" y="436"/>
			<point x="348" y="557" type="curve"/>
			<point x="348" y="678"/>
			<point x="210" y="710"/>
			<point x="55" y="710" type="curve"/>
			<point x="55" y="690" type="line"/>
			<point x="197" y="690"/>
			<point x="328" y="662"/>
			<point x="329" y="557" type="curve"/>
			<point x="329" y="439"/>
			<point x="187" y="367"/>
			<point x="75" y="367" type="curve"/>
		</contour>
		<contour>
			<point x="35" y="-10" type="line"/>
			<point x="249" y="-10"/>
			<point x="384" y="72"/>
			<point x="384" y="194" type="curve"/>
			<point x="384" y="316"/>
			<point x="234" y="367"/>
			<point x="75" y="367" type="curve"/>
			<point x="75" y="347" type="line"/>
			<point x="225" y="347"/>
			<point x="363" y="303"/>
			<point x="363" y="194" type="curve"/>
			<point x="363" y="85"/>
			<point x="234" y="10"/>
			<point x="35" y="10" type="curve"/>
		</contour>
	</outline>
</glyph>
<glyph name="U-cyrl" format="2">
	<advance width="570"/>
	<unicode hex="0423"/>
	<outline>
		<contour>
			<point x="193" y="-8" type="line"/>
			<point x="535" y="696" type="line"/>
			<point x="518" y="707" type="line"/>
			<point x="284" y="226" type="line"/>
			<point x="275" y="207" type="line"/>
			<point x="175" y="2" type="line"/>
		</contour>
		<contour>
			<point x="281" y="191" type="line"/>
			<point x="293" y="213" type="line"/>
			<point x="52" y="707" type="line"/>
			<point x="35" y="696" type="line"/>
		</contour>
	</outline>
</glyph>
<glyph name="Ef-cyrl" format="2">
	<advance width="670"/>
	<unicode hex="0424"/>
	<outline>
		<contour>
			<point x="345" y="0" type="line"/>
			<point x="345" y="700" type="line"/>
			<point x="325" y="700" type="line"/>
			<point x="325" y="0" type="line"/>
		</contour>
		<contour>
			<point x="335" y="90" type="line"/>
			<point x="510" y="90"/>
			<point x="635" y="216"/>
			<point x="635" y="379" type="curve"/>
			<point x="635" y="494"/>
			<point x="520" y="610"/>
			<point x="335" y="610" type="curve"/>
			<point x="335" y="590" type="line"/>
			<point x="503" y="590"/>
			<point x="615" y="488"/>
			<point x="615" y="377" type="curve"/>
			<point x="615" y="235"/>
			<point x="507" y="110"/>
			<point x="335" y="110" type="curve"/>
		</contour>
		<contour>
			<point x="335" y="90" type="curve"/>
			<point x="335" y="110" type="line"/>
			<point x="167" y="110"/>
			<point x="55" y="212"/>
			<point x="55" y="323" type="curve"/>
			<point x="55" y="465"/>
			<point x="163" y="590"/>
			<point x="335" y="590" type="curve"/>
			<point x="335" y="610" type="line"/>
			<point x="160" y="610"/>
			<point x="35" y="484"/>
			<point x="35" y="321" type="curve"/>
			<point x="35" y="206"/>
			<point x="150" y="90"/>
		</contour>
	</outline>
</glyph>
<glyph name="Che-cyrl" format="2">
	<advance width="610"/>
	<unicode hex="0427"/>
	<outline>
		<contour>
			<point x="70" y="523" type="line"/>
			<point x="70" y="372"/>
			<point x="132" y="240"/>
			<point x="298" y="240" type="curve"/>
			<point x="406" y="240"/>
			<point x="483" y="268"/>
			<point x="540" y="328" type="curve"/>
			<point x="540" y="353" type="line"/>
			<point x="470" y="282"/>
			<point x="398" y="260"/>
			<point x="298" y="260" type="curve"/>
			<point x="150" y="260"/>
			<point x="90" y="381"/>
			<point x="90" y="523" type="curve"/>
			<point x="90" y="700" type="line"/>
			<point x="70" y="700" type="line"/>
		</contour>
		<contour>
			<point x="540" y="0" type="line"/>
			<point x="540" y="700" type="line"/>
			<point x="520" y="700" type="line"/>
			<point x="520" y="0" type="line"/>
		</contour>
	</outline>
</glyph>
<glyph name="Sha-cyrl" format="2">
	<advance width="850"/>
	<unicode hex="0428"/>
	<outline>
		<contour>
			<point x="780" y="0" type="line"/>
			<point x="780" y="700" type="line"/>
			<point x="760" y="700" type="line"/>
			<point x="760" y="20" type="line"/>
			<point x="435" y="20" type="line"/>
			<point x="435" y="700" type="line"/>
			<point x="415" y="700" type="line"/>
			<point x="415" y="20" type="line"/>
			<point x="90" y="20" type="line"/>
			<point x="90" y="700" type="line"/>
			<point x="70" y="700" type="line"/>
			<point x="70" y="0" type="line"/>
		</contour>
	</outline>
</glyph>
<glyph name="Signsoft-cyrl" format="2">
	<advance width="448"/>
	<unicode hex="042C"/>
	<outline>
		<contour>
			<point x="70" y="-10" type="line"/>
			<point x="269" y="-10"/>
			<point x="413" y="116"/>
			<point x="413" y="274" type="curve"/>
			<point x="413" y="430"/>
			<point x="255" y="468"/>
			<point x="70" y="468" type="curve"/>
			<point x="70" y="448" type="line"/>
			<point x="246" y="448"/>
			<point x="393" y="414"/>
			<point x="394" y="274" type="curve"/>
			<point x="394" y="122"/>
			<point x="250" y="10"/>
			<point x="70" y="10" type="curve"/>
		</contour>
		<contour>
			<point x="90" y="0" type="line"/>
			<point x="90" y="700" type="line"/>
			<point x="70" y="700" type="line"/>
			<point x="70" y="0" type="line"/>
		</contour>
	</outline>
</glyph>
<glyph name="Yu-cyrl" format="2">
	<advance width="911"/>
	<unicode hex="042E"/>
	<outline>
		<contour>
			<point x="90" y="371" type="line"/>
			<point x="90" y="700" type="line"/>
			<point x="70" y="700" type="line"/>
			<point x="70" y="0" type="line"/>
			<point x="90" y="0" type="line"/>
			<point x="90" y="351" type="line"/>
			<point x="238" y="351" type="line"/>
			<point x="238" y="371" type="line"/>
		</contour>
		<contour>
			<point x="551" y="-10" type="curve"/>
			<point x="741" y="-10"/>
			<point x="876" y="168"/>
			<point x="876" y="390" type="curve"/>
			<point x="876" y="552"/>
			<point x="748" y="710"/>
			<point x="551" y="710" type="curve"/>
			<point x="361" y="710"/>
			<point x="226" y="532"/>
			<point x="226" y="310" type="curve"/>
			<point x="226" y="148"/>
			<point x="354" y="-10"/>
		</contour>
		<contour>
			<point x="551" y="10" type="curve"/>
			<point x="366" y="10"/>
			<point x="246" y="159"/>
			<point x="246" y="312" type="curve"/>
			<point x="246" y="522"/>
			<point x="372" y="690"/>
			<point x="551" y="690" type="curve"/>
			<point x="736" y="690"/>
			<point x="856" y="541"/>
			<point x="856" y="388" type="curve"/>
			<point x="856" y="178"/>
			<point x="730" y="10"/>
		</contour>
	</outline>
</glyph>
<glyph name="be-cyrl" format="2">
	<advance width="526"/>
	<unicode hex="0431"/>
	<outline>
		<contour>
			<point x="263" y="-10" type="curve"/>
			<point x="396" y="-10"/>
			<point x="491" y="119"/>
			<point x="491" y="279" type="curve"/>
			<point x="491" y="396"/>
			<point x="401" y="510"/>
			<point x="263" y="510" type="curve"/>
			<point x="137" y="510"/>
			<point x="35" y="381"/>
			<point x="35" y="221" type="curve"/>
			<point x="35" y="221" type="line"/>
			<point x="35" y="104"/>
			<point x="125" y="-10"/>
		</contour>
		<contour>
			<point x="263" y="10" type="curve"/>
			<point x="137" y="10"/>
			<point x="55" y="115"/>
			<point x="55" y="223" type="curve"/>
			<point x="55" y="371"/>
			<point x="142" y="490"/>
			<point x="263" y="490" type="curve"/>
			<point x="389" y="490"/>
			<point x="471" y="385"/>
			<point x="471" y="277" type="curve"/>
			<point x="471" y="129"/>
			<point x="384" y="10"/>
		</contour>
		<contour>
			<point x="406" y="740" type="line"/>
			<point x="87" y="712"/>
			<point x="35" y="489"/>
			<point x="35" y="327" type="curve"/>
			<point x="35" y="221" type="line"/>
			<point x="55" y="223" type="line"/>
			<point x="55" y="327" type="line"/>
			<point x="55" y="481"/>
			<point x="105" y="694"/>
			<point x="410" y="720" type="curve"/>
		</contour>
	</outline>
</glyph>
<glyph name="ve-cyrl" format="2">
	<advance width="424"/>
	<unicode hex="0432"/>
	<outline>
		<contour>
			<point x="91" y="0" type="line"/>
			<point x="91" y="500" type="line"/>
			<point x="70" y="500" type="line"/>
			<point x="70" y="0" type="line"/>
		</contour>
		<contour>
			<point x="70" y="247" type="line"/>
			<point x="239" y="247"/>
			<point x="353" y="312"/>
			<point x="353" y="400" type="curve"/>
			<point x="353" y="487"/>
			<point x="235" y="510"/>
			<point x="70" y="510" type="curve"/>
			<point x="70" y="490" type="line"/>
			<point x="227" y="490"/>
			<point x="334" y="467"/>
			<point x="334" y="400" type="curve"/>
			<point x="334" y="321"/>
			<point x="212" y="265"/>
			<point x="70" y="265" type="curve"/>
		</contour>
		<contour>
			<point x="70" y="-10" type="line"/>
			<point x="284" y="-10"/>
			<point x="389" y="64"/>
			<point x="389" y="152" type="curve"/>
			<point x="389" y="240"/>
			<point x="259" y="265"/>
			<point x="70" y="265" type="curve"/>
			<point x="70" y="245" type="line"/>
			<point x="250" y="245"/>
			<point x="368" y="221"/>
			<point x="368" y="152" type="curve"/>
			<point x="368" y="83"/>
			<point x="269" y="10"/>
			<point x="70" y="10" type="curve"/>
		</contour>
	</outline>
</glyph>
<glyph name="ghe-cyrl" format="2">
	<advance width="331"/>
	<unicode hex="0433"/>
	<outline>
		<contour>
			<point x="70" y="500" type="line"/>
			<point x="70" y="0" type="line"/>
			<point x="90" y="0" type="line"/>
			<point x="90" y="480" type="line"/>
			<point x="296" y="480" type="line"/>
			<point x="296" y="500" type="line"/>
		</contour>
	</outline>
</glyph>
<glyph name="de-cyrl" format="2">
	<advance width="587"/>
	<unicode hex="0434"/>
	<outline>
		<contour>
			<point x="452" y="500" type="line"/>
			<point x="218" y="500" type="line"/>
			<point x="218" y="480" type="line"/>
			<point x="432" y="480" type="line"/>
			<point x="432" y="0" type="line"/>
			<point x="452" y="0" type="line"/>
		</contour>
		<contour>
			<point x="55" y="0" type="line"/>
			<point x="532" y="0" type="line"/>
			<point x="532" y="-150" type="line"/>
			<point x="552" y="-150" type="line"/>
			<point x="552" y="20" type="line"/>
			<point x="35" y="20" type="line"/>
			<point x="35" y="-150" type="line"/>
			<point x="55" y="-150" type="line"/>
		</contour>
		<contour>
			<point x="130" y="3" type="line"/>
			<point x="193" y="179"/>
			<point x="212" y="297"/>
			<point x="231" y="500" type="curve"/>
			<point x="211" y="500" type="line"/>
			<point x="192" y="303"/>
			<point x="174" y="185"/>
			<point x="113" y="11" type="curve"/>
		</contour>
	</outline>
</glyph>
<glyph name="zhe-cyrl" format="2">
	<advance width="643"/>
	<unicode hex="0436"/>
	<outline>
		<contour>
			<point x="331" y="0" type="line"/>
			<point x="331" y="500" type="line"/>
			<point x="311" y="500" type="line"/>
			<point x="311" y="0" type="line"/>
		</contour>
		<contour>
			<point x="332" y="246" type="line"/>
			<point x="594" y="10" type="line"/>
			<point x="608" y="25" type="line"/>
			<point x="354" y="253" type="line"/>
			<point x="354" y="240" type="line"/>
			<point x="595" y="472" type="line"/>
			<point x="581" y="486" type="line"/>
		</contour>
		<contour>
			<point x="311" y="246" type="line"/>
			<point x="62" y="486" type="line"/>
			<point x="48" y="472" type="line"/>
			<point x="289" y="240" type="line"/>
			<point x="289" y="253" type="line"/>
			<point x="35" y="25" type="line"/>
			<point x="49" y="10" type="line"/>
		</contour>
	</outline>
</glyph>
<glyph name="ze-cyrl" format="2">
	<advance width="319"/>
	<unicode hex="0437"/>
	<outline>
		<contour>
			<point x="65" y="247" type="line"/>
			<point x="154" y="247"/>
			<point x="268" y="312"/>
			<point x="268" y="400" type="curve"/>
			<point x="268" y="487"/>
			<point x="150" y="510"/>
			<point x="45" y="510" type="curve"/>
			<point x="45" y="490" type="line"/>
			<point x="140" y="490"/>
			<point x="249" y="467"/>
			<point x="249" y="400" type="curve"/>
			<point x="249" y="321"/>
			<point x="127" y="265"/>
			<point x="65" y="265" type="curve"/>
		</contour>
		<contour>
			<point x="35" y="-10" type="line"/>
			<point x="199" y="-10"/>
			<point x="284" y="54"/>
			<point x="284" y="142" type="curve"/>
			<point x="284" y="230"/>
			<point x="174" y="265"/>
			<point x="65" y="265" type="curve"/>
			<point x="65" y="245" type="line"/>
			<point x="165" y="245"/>
			<point x="263" y="211"/>
			<point x="263" y="142" type="curve"/>
			<point x="263" y="73"/>
			<point x="184" y="10"/>
			<point x="35" y="10" type="curve"/>
		</contour>
	</outline>
</glyph>
<glyph name="ka-cyrl" format="2">
	<advance width="402"/>
	<unicode hex="043A"/>
	<outline>
		<contour>
			<point x="90" y="0" type="line"/>
			<point x="90" y="500" type="line"/>
			<point x="70" y="500" type="line"/>
			<point x="70" y="0" type="line"/>
		</contour>
		<contour>
			<point x="90" y="246" type="line"/>
			<point x="353" y="10" type="line"/>
			<point x="367" y="25" type="line"/>
			<point x="113" y="253" type="line"/>
			<point x="113" y="240" type="line"/>
			<point x="354" y="472" type="line"/>
			<point x="340" y="486" type="line"/>
		</contour>
	</outline>
</glyph>
<glyph name="em-cyrl" format="2">
	<advance width="626"/>
	<unicode hex="043C"/>
	<outline>
		<contour>
			<point x="312" y="139" type="line"/>
			<point x="314" y="139" type="line"/>
			<point x="495" y="481" type="line"/>
			<point x="480" y="481" type="line"/>
			<point x="571" y="-4" type="line"/>
			<point x="591" y="2" type="line"/>
			<point x="494" y="522" type="line"/>
			<point x="493" y="522" type="line"/>
			<point x="312" y="178" type="line"/>
			<point x="314" y="178" type="line"/>
			<point x="133" y="522" type="line"/>
			<point x="132" y="522" type="line"/>
			<point x="35" y="2" type="line"/>
			<point x="55" y="-4" type="line"/>
			<point x="146" y="481" type="line"/>
			<point x="131" y="481" type="line"/>
		</contour>
	</outline>
</glyph>
<glyph name="en-cyrl" format="2">
	<advance width="538"/>
	<unicode hex="043D"/>
	<outline>
		<contour>
			<point x="90" y="255" type="line"/>
			<point x="448" y="255" type="line"/>
			<point x="448" y="0" type="line"/>
			<point x="468" y="0" type="line"/>
			<point x="468" y="500" type="line"/>
			<point x="448" y="500" type="line"/>
			<point x="448" y="275" type="line"/>
			<point x="90" y="275" type="line"/>
			<point x="90" y="500" type="line"/>
			<point x="70" y="500" type="line"/>
			<point x="70" y="0" type="line"/>
			<point x="90" y="0" type="line"/>
		</contour>
	</outline>
</glyph>
<glyph name="pe-cyrl" format="2">
	<advance width="585"/>
	<unicode hex="043F"/>
	<outline>
		<contour>
			<point x="132" y="480" type="line"/>
			<point x="453" y="480" type="line"/>
			<point x="453" y="0" type="line"/>
			<point x="473" y="0" type="line"/>
			<point x="473" y="480" type="line"/>
			<point x="550" y="480" type="line"/>
			<point x="550" y="500" type="line"/>
			<point x="35" y="500" type="line"/>
			<point x="35" y="480" type="line"/>
			<point x="112" y="480" type="line"/>
			<point x="112" y="0" type="line"/>
			<point x="132" y="0" type="line"/>
		</contour>
	</outline>
</glyph>
<glyph name="te-cyrl" format="2">
	<advance width="505"/>
	<unicode hex="0442"/>
	<outline>
		<contour>
			<point x="243" y="480" type="line"/>
			<point x="243" y="0" type="line"/>
			<point x="263" y="0" type="line"/>
			<point x="263" y="480" type="line"/>
			<point x="470" y="480" type="line"/>
			<point x="470" y="500" type="line"/>
			<point x="35" y="500" type="line"/>
			<point x="35" y="480" type="line"/>
		</contour>
	</outline>
</glyph>
<glyph name="ef-cyrl" format="2">
	<advance width="576"/>
	<unicode hex="0444"/>
	<outline>
		<contour>
			<point x="298" y="-230" type="line"/>
			<point x="298" y="700" type="line"/>
			<point x="278" y="700" type="line"/>
			<point x="278" y="-230" type="line"/>
		</contour>
		<contour>
			<point x="288" y="-10" type="curve"/>
			<point x="288" y="10" type="line"/>
			<point x="147" y="10"/>
			<point x="55" y="114"/>
			<point x="55" y="223" type="curve"/>
			<point x="55" y="366"/>
			<point x="146" y="490"/>
			<point x="288" y="490" type="curve"/>
			<point x="288" y="510" type="line"/>
			<point x="134" y="510"/>
			<point x="35" y="376"/>
			<point x="35" y="221" type="curve"/>
			<point x="35" y="111"/>
			<point x="128" y="-10"/>
		</contour>
		<contour>
			<point x="288" y="-10" type="line"/>
			<point x="442" y="-10"/>
			<point x="541" y="124"/>
			<point x="541" y="279" type="curve"/>
			<point x="541" y="389"/>
			<point x="448" y="510"/>
			<point x="288" y="510" type="curve"/>
			<point x="288" y="490" type="line"/>
			<point x="429" y="490"/>
			<point x="521" y="386"/>
			<point x="521" y="277" type="curve"/>
			<point x="521" y="134"/>
			<point x="430" y="10"/>
			<point x="288" y="10" type="curve"/>
		</contour>
	</outline>
</glyph>
<glyph name="che-cyrl" format="2">
	<advance width="488"/>
	<unicode hex="0447"/>
	<outline>
		<contour>
			<point x="70" y="374" type="line"/>
			<point x="70" y="266"/>
			<point x="121" y="168"/>
			<point x="239" y="168" type="curve"/>
			<point x="316" y="168"/>
			<point x="377" y="188"/>
			<point x="418" y="231" type="curve"/>
			<point x="418" y="255" type="line"/>
			<point x="368" y="204"/>
			<point x="311" y="188"/>
			<point x="239" y="188" type="curve"/>
			<point x="133" y="188"/>
			<point x="90" y="272"/>
			<point x="90" y="374" type="curve"/>
			<point x="90" y="500" type="line"/>
			<point x="70" y="500" type="line"/>
		</contour>
		<contour>
			<point x="418" y="0" type="line"/>
			<point x="418" y="500" type="line"/>
			<point x="398" y="500" type="line"/>
			<point x="398" y="0" type="line"/>
		</contour>
	</outline>
</glyph>
<glyph name="sha-cyrl" format="2">
	<advance width="648"/>
	<unicode hex="0448"/>
	<outline>
		<contour>
			<point x="578" y="0" type="line"/>
			<point x="578" y="500" type="line"/>
			<point x="558" y="500" type="line"/>
			<point x="558" y="20" type="line"/>
			<point x="335" y="20" type="line"/>
			<point x="335" y="500" type="line"/>
			<point x="315" y="500" type="line"/>
			<point x="315" y="20" type="line"/>
			<point x="90" y="20" type="line"/>
			<point x="90" y="500" type="line"/>
			<point x="70" y="500" type="line"/>
			<point x="70" y="0" type="line"/>
		</contour>
	</outline>
</glyph>
<glyph name="signsoft-cyrl" format="2">
	<advance width="398"/>
	<unicode hex="044C"/>
	<outline>
		<contour>
			<point x="70" y="-10" type="line"/>
			<point x="249" y="-10"/>
			<point x="363" y="71"/>
			<point x="363" y="184" type="curve"/>
			<point x="363" y="296"/>
			<point x="235" y="333"/>
			<point x="70" y="333" type="curve"/>
			<point x="70" y="313" type="line"/>
			<point x="226" y="313"/>
			<point x="343" y="284"/>
			<point x="343" y="184" type="curve"/>
			<point x="343" y="75"/>
			<point x="230" y="10"/>
			<point x="70" y="10" type="curve"/>
		</contour>
		<contour>
			<point x="90" y="0" type="line"/>
			<point x="90" y="500" type="line"/>
			<point x="70" y="500" type="line"/>
			<point x="70" y="0" type="line"/>
		</contour>
	</outline>
</glyph>
<glyph name="e-cyrl" format="2">
	<advance width="455"/>
	<unicode hex="044D"/>
	<outline>
		<contour>
			<point x="57" y="510" type="curve"/>
			<point x="57" y="490" type="line"/>
			<point x="272" y="490"/>
			<point x="400" y="385"/>
			<point x="400" y="223" type="curve"/>
			<point x="400" y="98"/>
			<point x="288" y="10"/>
			<point x="181" y="10" type="curve"/>
			<point x="144" y="10"/>
			<point x="82" y="15"/>
			<point x="40" y="31" type="curve"/>
			<point x="35" y="9" type="line"/>
			<point x="78" y="-6"/>
			<point x="124" y="-10"/>
			<point x="190" y="-10" type="curve"/>
			<point x="298" y="-10"/>
			<point x="420" y="83"/>
			<point x="420" y="223" type="curve"/>
			<point x="420" y="394"/>
			<point x="284" y="510"/>
		</contour>
		<contour>
			<point x="411" y="261" type="line"/>
			<point x="107" y="261" type="line"/>
			<point x="107" y="241" type="line"/>
			<point x="411" y="241" type="line"/>
		</contour>
	</outline>
</glyph>
<glyph name="yu-cyrl" format="2">
	<advance width="756"/>
	<unicode hex="044E"/>
	<outline>
		<contour>
			<point x="468" y="-10" type="curve"/>
			<point x="616" y="-10"/>
			<point x="721" y="119"/>
			<point x="721" y="279" type="curve"/>
			<point x="721" y="396"/>
			<point x="621" y="510"/>
			<point x="468" y="510" type="curve"/>
			<point x="320" y="510"/>
			<point x="215" y="381"/>
			<point x="215" y="221" type="curve"/>
			<point x="215" y="104"/>
			<point x="315" y="-10"/>
		</contour>
		<contour>
			<point x="468" y="10" type="curve"/>
			<point x="327" y="10"/>
			<point x="235" y="115"/>
			<point x="235" y="223" type="curve"/>
			<point x="235" y="371"/>
			<point x="332" y="490"/>
			<point x="468" y="490" type="curve"/>
			<point x="609" y="490"/>
			<point x="701" y="385"/>
			<point x="701" y="277" type="curve"/>
			<point x="701" y="129"/>
			<point x="604" y="10"/>
		</contour>
		<contour>
			<point x="90" y="271" type="line"/>
			<point x="90" y="500" type="line"/>
			<point x="70" y="500" type="line"/>
			<point x="70" y="0" type="line"/>
			<point x="90" y="0" type="line"/>
			<point x="90" y="251" type="line"/>
			<point x="228" y="251" type="line"/>
			<point x="228" y="271" type="line"/>
		</contour>
	</outline>
</glyph>
<glyph name="asmallcapital" format="2">
	<advance width="567"/>
	<unicode hex="1D00"/>
	<outline>
		<contour>
			<point x="286" y="471" type="line"/>
			<point x="283" y="471" type="line"/>
			<point x="516" y="-7" type="line"/>
			<point x="533" y="4" type="line"/>
			<point x="285" y="513" type="line"/>
			<point x="284" y="513" type="line"/>
			<point x="36" y="4" type="line"/>
			<point x="52" y="-7" type="line"/>
		</contour>
		<contour>
			<point x="130" y="166" type="line"/>
			<point x="439" y="166" type="line"/>
			<point x="429" y="186" type="line"/>
			<point x="140" y="186" type="line"/>
		</contour>
	</outline>
</glyph>
<glyph name="dsmallcapital" format="2">
	<advance width="472"/>
	<unicode hex="1D05"/>
	<outline>
		<contour>
			<point x="90" y="-3" type="line"/>
			<point x="90" y="503" type="line"/>
			<point x="70" y="503" type="line"/>
			<point x="70" y="-3" type="line"/>
		</contour>
		<contour>
			<point x="70" y="-10" type="line"/>
			<point x="287" y="-10"/>
			<point x="437" y="127"/>
			<point x="437" y="299" type="curve"/>
			<point x="437" y="469"/>
			<point x="272" y="510"/>
			<point x="70" y="510" type="curve"/>
			<point x="70" y="490" type="line"/>
			<point x="258" y="490"/>
			<point x="417" y="456"/>
			<point x="417" y="299" type="curve"/>
			<point x="417" y="142"/>
			<point x="277" y="10"/>
			<point x="70" y="10" type="curve"/>
		</contour>
	</outline>
</glyph>
<glyph name="esmallcapital" format="2">
	<advance width="334"/>
	<unicode hex="1D07"/>
	<outline>
		<contour>
			<point x="90" y="268" type="line"/>
			<point x="90" y="480" type="line"/>
			<point x="278" y="480" type="line"/>
			<point x="278" y="500" type="line"/>
			<point x="70" y="500" type="line"/>
			<point x="70" y="0" type="line"/>
			<point x="299" y="0" type="line"/>
			<point x="299" y="20" type="line"/>
			<point x="90" y="20" type="line"/>
			<point x="90" y="248" type="line"/>
			<point x="268" y="248" type="line"/>
			<point x="268" y="268" type="line"/>
		</contour>
	</outline>
</glyph>
<glyph name="jsmallcapital" format="2">
	<advance width="300"/>
	<unicode hex="1D0A"/>
	<outline>
		<contour>
			<point x="39" y="-10" type="line"/>
			<point x="178" y="18"/>
			<point x="230" y="91"/>
			<point x="230" y="263" type="curve"/>
			<point x="230" y="500" type="line"/>
			<point x="210" y="500" type="line"/>
			<point x="210" y="263" type="line"/>
			<point x="210" y="99"/>
			<point x="160" y="36"/>
			<point x="35" y="10" type="curve"/>
		</contour>
	</outline>
</glyph>
<glyph name="psmallcapital" format="2">
	<advance width="351"/>
	<unicode hex="1D18"/>
	<outline>
		<contour>
			<point x="70" y="167" type="line"/>
			<point x="213" y="167"/>
			<point x="316" y="257"/>
			<point x="316" y="371" type="curve"/>
			<point x="316" y="483"/>
			<point x="203" y="510"/>
			<point x="70" y="510" type="curve"/>
			<point x="70" y="490" type="line"/>
			<point x="196" y="490"/>
			<point x="296" y="461"/>
			<point x="296" y="371" type="curve"/>
			<point x="296" y="272"/>
			<point x="199" y="187"/>
			<point x="70" y="187" type="curve"/>
		</contour>
		<contour>
			<point x="90" y="0" type="line"/>
			<point x="90" y="503" type="line"/>
			<point x="70" y="503" type="line"/>
			<point x="70" y="0" type="line"/>
		</contour>
	</outline>
</glyph>
<glyph name="usmallcapital" format="2">
	<advance width="534"/>
	<unicode hex="1D1C"/>
	<outline>
		<contour>
			<point x="70" y="222" type="line"/>
			<point x="70" y="121"/>
			<point x="118" y="-10"/>
			<point x="251" y="-10" type="curve"/>
			<point x="400" y="-10"/>
			<point x="464" y="85"/>
			<point x="464" y="222" type="curve"/>
			<point x="464" y="500" type="line"/>
			<point x="444" y="500" type="line"/>
			<point x="444" y="222" type="line"/>
			<point x="444" y="100"/>
			<point x="393" y="10"/>
			<point x="251" y="10" type="curve"/>
			<point x="133" y="10"/>
			<point x="90" y="129"/>
			<point x="90" y="222" type="curve"/>
			<point x="90" y="500" type="line"/>
			<point x="70" y="500" type="line"/>
		</contour>
	</outline>
</glyph>
<glyph name="Germandbls" format="2">
	<advance width="539"/>
	<unicode hex="1E9E"/>
	<outline>
		<contour>
			<point x="301" y="392" type="curve"/>
			<point x="305" y="383" type="line"/>
			<point x="476" y="595" type="line"/>
			<point x="458" y="605" type="line"/>
			<point x="278" y="380" type="line"/>
			<point x="388" y="329"/>
			<point x="484" y="273"/>
			<point x="484" y="188" type="curve"/>
			<point x="484" y="48"/>
			<point x="337" y="14"/>
			<point x="191" y="14" type="curve"/>
			<point x="191" y="-6" type="line"/>
			<point x="346" y="-6"/>
			<point x="504" y="32"/>
			<point x="504" y="188" type="curve"/>
			<point x="504" y="280"/>
			<point x="407" y="343"/>
		</contour>
		<contour>
			<point x="90" y="0" type="line"/>
			<point x="90" y="501" type="line"/>
			<point x="70" y="501" type="line"/>
			<point x="70" y="0" type="line"/>
		</contour>
		<contour>
			<point x="476" y="595" type="line"/>
			<point x="434" y="662"/>
			<point x="375" y="710"/>
			<point x="260" y="710" type="curve"/>
			<point x="260" y="690" type="line"/>
			<point x="355" y="690"/>
			<point x="421" y="649"/>
			<point x="464" y="583" type="curve"/>
		</contour>
		<contour>
			<point x="90" y="501" type="line"/>
			<point x="90" y="626"/>
			<point x="138" y="690"/>
			<point x="260" y="690" type="curve"/>
			<point x="260" y="710" type="line"/>
			<point x="126" y="710"/>
			<point x="70" y="636"/>
			<point x="70" y="501" type="curve"/>
		</contour>
	</outline>
</glyph>
<glyph name="quoteleft" format="2">
	<advance width="167"/>
	<unicode hex="2018"/>
	<outline>
		<contour>
			<point x="132" y="519" type="line"/>
			<point x="73" y="710" type="line"/>
			<point x="35" y="697" type="line"/>
			<point x="113" y="513" type="line"/>
		</contour>
	</outline>
</glyph>
<glyph name="quoteright" format="2">
	<advance width="167"/>
	<unicode hex="2019"/>
	<outline>
		<contour>
			<point x="35" y="519" type="line"/>
			<point x="54" y="513" type="line"/>
			<point x="132" y="697" type="line"/>
			<point x="94" y="710" type="line"/>
		</contour>
	</outline>
</glyph>
<glyph name="bullet" format="2">
	<advance width="270"/>
	<unicode hex="2022"/>
	<outline>
		<contour>
			<point x="135" y="150" type="curve"/>
			<point x="194" y="150"/>
			<point x="235" y="199"/>
			<point x="235" y="261" type="curve"/>
			<point x="235" y="306"/>
			<point x="196" y="350"/>
			<point x="135" y="350" type="curve"/>
			<point x="76" y="350"/>
			<point x="35" y="301"/>
			<point x="35" y="239" type="curve"/>
			<point x="35" y="194"/>
			<point x="74" y="150"/>
		</contour>
	</outline>
</glyph>
<glyph name="guilsinglleft" format="2">
	<advance width="188"/>
	<unicode hex="2039"/>
	<outline>
		<contour>
			<point x="153" y="84" type="line"/>
			<point x="54" y="256" type="line"/>
			<point x="54" y="243" type="line"/>
			<point x="152" y="415" type="line"/>
			<point x="135" y="425" type="line"/>
			<point x="35" y="250" type="line"/>
			<point x="35" y="249" type="line"/>
			<point x="136" y="74" type="line"/>
		</contour>
	</outline>
</glyph>
<glyph name="fraction" format="2">
	<advance width="442"/>
	<unicode hex="2044"/>
	<unicode hex="2215"/>
	<outline>
		<contour>
			<point x="17" y="-23" type="line"/>
			<point x="442" y="713" type="line"/>
			<point x="425" y="723" type="line"/>
			<point x="0" y="-13" type="line"/>
		</contour>
	</outline>
</glyph>
<glyph name="zeroinferior" format="2">
	<advance width="315"/>
	<unicode hex="2080"/>
	<outline>
		<contour>
			<point x="154" y="-110" type="curve"/>
			<point x="233" y="-110"/>
			<point x="289" y="-6"/>
			<point x="289" y="123" type="curve"/>
			<point x="289" y="218"/>
			<point x="236" y="310"/>
			<point x="154" y="310" type="curve"/>
			<point x="74" y="310"/>
			<point x="18" y="206"/>
			<point x="18" y="77" type="curve"/>
			<point x="18" y="-18"/>
			<point x="71" y="-110"/>
		</contour>
		<contour>
			<point x="154" y="-90" type="curve"/>
			<point x="84" y="-90"/>
			<point x="38" y="-7"/>
			<point x="38" y="79" type="curve"/>
			<point x="38" y="196"/>
			<point x="86" y="290"/>
			<point x="154" y="290" type="curve"/>
			<point x="224" y="290"/>
			<point x="269" y="207"/>
			<point x="269" y="121" type="curve"/>
			<point x="269" y="4"/>
			<point x="221" y="-90"/>
		</contour>
	</outline>
</glyph>
<glyph name="oneinferior" format="2">
	<advance width="315"/>
	<unicode hex="2081"/>
	<outline>
		<contour>
			<point x="204" y="-100" type="line"/>
			<point x="204" y="310" type="line"/>
			<point x="203" y="310" type="line"/>
			<point x="68" y="182" type="line"/>
			<point x="83" y="169" type="line"/>
			<point x="200" y="279" type="line"/>
			<point x="184" y="277" type="line"/>
			<point x="184" y="-100" type="line"/>
		</contour>
	</outline>
</glyph>
<glyph name="twoinferior" format="2">
	<advance width="315"/>
	<unicode hex="2082"/>
	<outline>
		<contour>
			<point x="54" y="-99" type="line"/>
			<point x="155" y="-43"/>
			<point x="263" y="73"/>
			<point x="263" y="171" type="curve"/>
			<point x="263" y="247"/>
			<point x="177" y="310"/>
			<point x="56" y="310" type="curve"/>
			<point x="56" y="290" type="line"/>
			<point x="164" y="290"/>
			<point x="243" y="234"/>
			<point x="243" y="171" type="curve"/>
			<point x="243" y="77"/>
			<point x="138" y="-32"/>
			<point x="22" y="-99" type="curve"/>
			<point x="22" y="-100" type="line"/>
			<point x="281" y="-99" type="line"/>
			<point x="281" y="-80" type="line"/>
			<point x="69" y="-80" type="line"/>
		</contour>
	</outline>
</glyph>
<glyph name="threeinferior" format="2">
	<advance width="315"/>
	<unicode hex="2083"/>
	<outline>
		<contour>
			<point x="168" y="108" type="line"/>
			<point x="201" y="119"/>
			<point x="255" y="157"/>
			<point x="255" y="215" type="curve"/>
			<point x="255" y="279"/>
			<point x="174" y="310"/>
			<point x="60" y="310" type="curve"/>
			<point x="60" y="290" type="line"/>
			<point x="166" y="290"/>
			<point x="235" y="260"/>
			<point x="235" y="215" type="curve"/>
			<point x="235" y="175"/>
			<point x="193" y="130"/>
			<point x="113" y="111" type="curve"/>
			<point x="113" y="110" type="line"/>
			<point x="170" y="100"/>
			<point x="248" y="71"/>
			<point x="248" y="8" type="curve"/>
			<point x="248" y="-57"/>
			<point x="154" y="-90"/>
			<point x="42" y="-90" type="curve"/>
			<point x="42" y="-110" type="line"/>
			<point x="180" y="-110"/>
			<point x="268" y="-69"/>
			<point x="268" y="8" type="curve"/>
			<point x="268" y="87"/>
			<point x="193" y="105"/>
			<point x="168" y="112" type="curve"/>
		</contour>
	</outline>
</glyph>
<glyph name="fourinferior" format="2">
	<advance width="315"/>
	<unicode hex="2084"/>
	<outline>
		<contour>
			<point x="217" y="259" type="line"/>
			<point x="217" y="23" type="line"/>
			<point x="217" y="19" type="line"/>
			<point x="217" y="-100" type="line"/>
			<point x="237" y="-100" type="line"/>
			<point x="237" y="324" type="line"/>
			<point x="236" y="324" type="line"/>
			<point x="22" y="12" type="line"/>
			<point x="22" y="11" type="line"/>
			<point x="295" y="11" type="line"/>
			<point x="295" y="31" type="line"/>
			<point x="230" y="31" type="line"/>
			<point x="225" y="31" type="line"/>
			<point x="60" y="31" type="line"/>
		</contour>
	</outline>
</glyph>
<glyph name="fiveinferior" format="2">
	<advance width="315"/>
	<unicode hex="2085"/>
	<outline>
		<contour>
			<point x="275" y="280" type="line"/>
			<point x="275" y="300" type="line"/>
			<point x="67" y="300" type="line"/>
			<point x="61" y="149" type="line"/>
			<point x="163" y="149"/>
			<point x="250" y="116"/>
			<point x="250" y="60" type="curve"/>
			<point x="250" y="-34"/>
			<point x="125" y="-76"/>
			<point x="41" y="-91" type="curve"/>
			<point x="45" y="-110" type="line"/>
			<point x="130" y="-95"/>
			<point x="270" y="-48"/>
			<point x="270" y="63" type="curve"/>
			<point x="270" y="128"/>
			<point x="169" y="169"/>
			<point x="69" y="169" type="curve"/>
			<point x="81" y="162" type="line"/>
			<point x="87" y="298" type="line"/>
			<point x="69" y="280" type="line"/>
		</contour>
	</outline>
</glyph>
<glyph name="sixinferior" format="2">
	<advance width="315"/>
	<unicode hex="2086"/>
	<outline>
		<contour>
			<point x="226" y="310" type="line"/>
			<point x="172" y="267"/>
			<point x="36" y="143"/>
			<point x="36" y="29" type="curve"/>
			<point x="36" y="-56"/>
			<point x="83" y="-110"/>
			<point x="154" y="-110" type="curve"/>
			<point x="225" y="-110"/>
			<point x="280" y="-70"/>
			<point x="280" y="10" type="curve"/>
			<point x="280" y="76"/>
			<point x="206" y="145"/>
			<point x="81" y="145" type="curve"/>
			<point x="81" y="125" type="line"/>
			<point x="202" y="125"/>
			<point x="260" y="63"/>
			<point x="260" y="10" type="curve"/>
			<point x="260" y="-61"/>
			<point x="216" y="-90"/>
			<point x="154" y="-90" type="curve"/>
			<point x="90" y="-90"/>
			<point x="56" y="-43"/>
			<point x="56" y="29" type="curve"/>
			<point x="56" y="132"/>
			<point x="181" y="251"/>
			<point x="239" y="295" type="curve"/>
		</contour>
	</outline>
</glyph>
<glyph name="seveninferior" format="2">
	<advance width="315"/>
	<unicode hex="2087"/>
	<outline>
		<contour>
			<point x="255" y="280" type="line"/>
			<point x="255" y="296" type="line"/>
			<point x="75" y="-101" type="line"/>
			<point x="94" y="-109" type="line"/>
			<point x="278" y="299" type="line"/>
			<point x="278" y="300" type="line"/>
			<point x="31" y="300" type="line"/>
			<point x="31" y="280" type="line"/>
		</contour>
	</outline>
</glyph>
<glyph name="eightinferior" format="2">
	<advance width="315"/>
	<unicode hex="2088"/>
	<outline>
		<contour>
			<point x="157" y="-110" type="curve"/>
			<point x="234" y="-110"/>
			<point x="288" y="-51"/>
			<point x="288" y="21" type="curve"/>
			<point x="288" y="73"/>
			<point x="229" y="130"/>
			<point x="157" y="130" type="curve"/>
			<point x="87" y="130"/>
			<point x="26" y="73"/>
			<point x="26" y="1" type="curve"/>
			<point x="26" y="-52"/>
			<point x="78" y="-110"/>
		</contour>
		<contour>
			<point x="157" y="-93" type="curve"/>
			<point x="90" y="-93"/>
			<point x="46" y="-42"/>
			<point x="46" y="4" type="curve"/>
			<point x="46" y="66"/>
			<point x="96" y="110"/>
			<point x="157" y="110" type="curve"/>
			<point x="222" y="110"/>
			<point x="268" y="66"/>
			<point x="268" y="20" type="curve"/>
			<point x="268" y="-42"/>
			<point x="222" y="-93"/>
		</contour>
		<contour>
			<point x="157" y="110" type="curve"/>
			<point x="215" y="110"/>
			<point x="268" y="161"/>
			<point x="268" y="222" type="curve"/>
			<point x="268" y="266"/>
			<point x="225" y="310"/>
			<point x="157" y="310" type="curve"/>
			<point x="92" y="310"/>
			<point x="46" y="261"/>
			<point x="46" y="200" type="curve"/>
			<point x="46" y="155"/>
			<point x="98" y="110"/>
		</contour>
		<contour>
			<point x="157" y="130" type="curve"/>
			<point x="102" y="130"/>
			<point x="66" y="168"/>
			<point x="66" y="203" type="curve"/>
			<point x="66" y="252"/>
			<point x="104" y="290"/>
			<point x="157" y="290" type="curve"/>
			<point x="212" y="290"/>
			<point x="248" y="256"/>
			<point x="248" y="221" type="curve"/>
			<point x="248" y="172"/>
			<point x="210" y="130"/>
		</contour>
	</outline>
</glyph>
<glyph name="nineinferior" format="2">
	<advance width="315"/>
	<unicode hex="2089"/>
	<outline>
		<contour>
			<point x="89" y="-110" type="line"/>
			<point x="143" y="-67"/>
			<point x="279" y="57"/>
			<point x="279" y="171" type="curve"/>
			<point x="279" y="256"/>
			<point x="232" y="310"/>
			<point x="161" y="310" type="curve"/>
			<point x="90" y="310"/>
			<point x="35" y="268"/>
			<point x="35" y="188" type="curve"/>
			<point x="35" y="112"/>
			<point x="95" y="55"/>
			<point x="234" y="55" type="curve"/>
			<point x="234" y="75" type="line"/>
			<point x="99" y="75"/>
			<point x="55" y="125"/>
			<point x="55" y="188" type="curve"/>
			<point x="55" y="259"/>
			<point x="99" y="290"/>
			<point x="161" y="290" type="curve"/>
			<point x="225" y="290"/>
			<point x="259" y="243"/>
			<point x="259" y="171" type="curve"/>
			<point x="259" y="68"/>
			<point x="134" y="-51"/>
			<point x="76" y="-95" type="curve"/>
		</contour>
	</outline>
</glyph>
<glyph name="partialdifferential" format="2">
	<advance width="560"/>
	<unicode hex="2202"/>
	<outline>
		<contour>
			<point x="280" y="-10" type="curve"/>
			<point x="438" y="-10"/>
			<point x="525" y="100"/>
			<point x="525" y="270" type="curve"/>
			<point x="525" y="586"/>
			<point x="452" y="740"/>
			<point x="260" y="740" type="curve"/>
			<point x="208" y="740"/>
			<point x="122" y="714"/>
			<point x="65" y="678" type="curve"/>
			<point x="75" y="662" type="line"/>
			<point x="126" y="695"/>
			<point x="211" y="720"/>
			<point x="260" y="720" type="curve"/>
			<point x="424" y="720"/>
			<point x="490" y="601"/>
			<point x="503" y="357" type="curve"/>
			<point x="501" y="357" type="line"/>
			<point x="462" y="430"/>
			<point x="378" y="480"/>
			<point x="280" y="480" type="curve"/>
			<point x="134" y="480"/>
			<point x="35" y="384"/>
			<point x="35" y="250" type="curve"/>
			<point x="35" y="90"/>
			<point x="151" y="-10"/>
		</contour>
		<contour>
			<point x="280" y="10" type="curve"/>
			<point x="161" y="10"/>
			<point x="55" y="101"/>
			<point x="55" y="250" type="curve"/>
			<point x="55" y="376"/>
			<point x="149" y="460"/>
			<point x="280" y="460" type="curve"/>
			<point x="404" y="460"/>
			<point x="505" y="377"/>
			<point x="505" y="270" type="curve"/>
			<point x="505" y="110"/>
			<point x="424" y="10"/>
		</contour>
	</outline>
</glyph>
<glyph name="increment" format="2">
	<advance width="767"/>
	<unicode hex="2206"/>
	<outline>
		<contour>
			<point x="45" y="0" type="line"/>
			<point x="724" y="0" type="line"/>
			<point x="714" y="20" type="line"/>
			<point x="55" y="20" type="line"/>
		</contour>
		<contour>
			<point x="383" y="714" type="line"/>
			<point x="35" y="0" type="line"/>
			<point x="57" y="0" type="line"/>
			<point x="389" y="679" type="line"/>
			<point x="379" y="679" type="line"/>
			<point x="710" y="0" type="line"/>
			<point x="732" y="0" type="line"/>
			<point x="385" y="714" type="line"/>
		</contour>
	</outline>
</glyph>
<glyph name="naryproduct" format="2">
	<advance width="791"/>
	<unicode hex="220F"/>
	<outline>
		<contour>
			<point x="161" y="680" type="line"/>
			<point x="630" y="680" type="line"/>
			<point x="630" y="-230" type="line"/>
			<point x="650" y="-230" type="line"/>
			<point x="650" y="680" type="line"/>
			<point x="756" y="680" type="line"/>
			<point x="756" y="700" type="line"/>
			<point x="35" y="700" type="line"/>
			<point x="35" y="680" type="line"/>
			<point x="141" y="680" type="line"/>
			<point x="141" y="-230" type="line"/>
			<point x="161" y="-230" type="line"/>
		</contour>
	</outline>
</glyph>
<glyph name="narysummation" format="2">
	<advance width="620"/>
	<unicode hex="2211"/>
	<outline>
		<contour>
			<point x="416" y="234" type="line"/>
			<point x="416" y="236" type="line"/>
			<point x="71" y="685" type="line"/>
			<point x="71" y="680" type="line"/>
			<point x="585" y="680" type="line"/>
			<point x="585" y="700" type="line"/>
			<point x="35" y="700" type="line"/>
			<point x="35" y="699" type="line"/>
			<point x="393" y="232" type="line"/>
			<point x="393" y="238" type="line"/>
			<point x="35" y="-228" type="line"/>
			<point x="35" y="-230" type="line"/>
			<point x="585" y="-230" type="line"/>
			<point x="585" y="-210" type="line"/>
			<point x="71" y="-210" type="line"/>
			<point x="71" y="-215" type="line"/>
		</contour>
	</outline>
</glyph>
<glyph name="minus" format="2">
	<advance width="470"/>
	<unicode hex="2212"/>
	<outline>
		<contour>
			<point x="435" y="310" type="line"/>
			<point x="35" y="310" type="line"/>
			<point x="35" y="290" type="line"/>
			<point x="435" y="290" type="line"/>
		</contour>
	</outline>
</glyph>
<glyph name="squareroot" format="2">
	<advance width="793"/>
	<unicode hex="221A"/>
	<outline>
		<contour>
			<point x="404" y="-114" type="line"/>
			<point x="783" y="810" type="line"/>
			<point x="761" y="810" type="line"/>
			<point x="400" y="-74" type="line"/>
			<point x="406" y="-74" type="line"/>
			<point x="195" y="440" type="line"/>
			<point x="35" y="352" type="line"/>
			<point x="45" y="335" type="line"/>
			<point x="199" y="419" type="line"/>
			<point x="178" y="427" type="line"/>
			<point x="402" y="-114" type="line"/>
		</contour>
	</outline>
</glyph>
<glyph name="infinity" format="2">
	<advance width="830"/>
	<unicode hex="221E"/>
	<outline>
		<contour>
			<point x="615" y="60" type="curve"/>
			<point x="723" y="60"/>
			<point x="795" y="157"/>
			<point x="795" y="260" type="curve"/>
			<point x="795" y="380"/>
			<point x="724" y="460"/>
			<point x="615" y="460" type="curve"/>
			<point x="520" y="460"/>
			<point x="453" y="405"/>
			<point x="416" y="295" type="curve"/>
			<point x="414" y="295" type="line"/>
			<point x="377" y="405"/>
			<point x="310" y="460"/>
			<point x="215" y="460" type="curve"/>
			<point x="106" y="460"/>
			<point x="35" y="380"/>
			<point x="35" y="260" type="curve"/>
			<point x="35" y="140"/>
			<point x="106" y="60"/>
			<point x="215" y="60" type="curve"/>
			<point x="310" y="60"/>
			<point x="377" y="115"/>
			<point x="414" y="225" type="curve"/>
			<point x="416" y="225" type="line"/>
			<point x="453" y="115"/>
			<point x="520" y="60"/>
		</contour>
		<contour>
			<point x="215" y="80" type="curve"/>
			<point x="115" y="80"/>
			<point x="55" y="153"/>
			<point x="55" y="260" type="curve"/>
			<point x="55" y="367"/>
			<point x="115" y="440"/>
			<point x="215" y="440" type="curve"/>
			<point x="306" y="440"/>
			<point x="374" y="379"/>
			<point x="405" y="260" type="curve"/>
			<point x="374" y="141"/>
			<point x="306" y="80"/>
		</contour>
		<contour>
			<point x="615" y="80" type="curve"/>
			<point x="524" y="80"/>
			<point x="456" y="141"/>
			<point x="425" y="260" type="curve"/>
			<point x="456" y="379"/>
			<point x="524" y="440"/>
			<point x="615" y="440" type="curve"/>
			<point x="715" y="440"/>
			<point x="775" y="367"/>
			<point x="775" y="260" type="curve"/>
			<point x="775" y="170"/>
			<point x="712" y="80"/>
		</contour>
	</outline>
</glyph>
<glyph name="integral" format="2">
	<advance width="516"/>
	<unicode hex="222B"/>
	<outline>
		<contour>
			<point x="123" y="-230" type="curve"/>
			<point x="192" y="-230"/>
			<point x="231" y="-189"/>
			<point x="238" y="-106" type="curve"/>
			<point x="298" y="614" type="line"/>
			<point x="304" y="685"/>
			<point x="336" y="720"/>
			<point x="393" y="720" type="curve"/>
			<point x="422" y="720"/>
			<point x="450" y="715"/>
			<point x="475" y="706" type="curve"/>
			<point x="481" y="724" type="line"/>
			<point x="449" y="735"/>
			<point x="420" y="740"/>
			<point x="393" y="740" type="curve"/>
			<point x="324" y="740"/>
			<point x="285" y="699"/>
			<point x="278" y="616" type="curve"/>
			<point x="218" y="-104" type="line"/>
			<point x="212" y="-175"/>
			<point x="180" y="-210"/>
			<point x="123" y="-210" type="curve"/>
			<point x="94" y="-210"/>
			<point x="66" y="-205"/>
			<point x="41" y="-196" type="curve"/>
			<point x="35" y="-214" type="line"/>
			<point x="67" y="-225"/>
			<point x="96" y="-230"/>
		</contour>
	</outline>
</glyph>
<glyph name="almostequalto" format="2">
	<advance width="630"/>
	<unicode hex="2248"/>
	<outline>
		<contour>
			<point x="439" y="120" type="curve"/>
			<point x="503" y="120"/>
			<point x="555" y="150"/>
			<point x="595" y="209" type="curve"/>
			<point x="578" y="220" type="line"/>
			<point x="543" y="167"/>
			<point x="496" y="140"/>
			<point x="439" y="140" type="curve"/>
			<point x="398" y="140"/>
			<point x="359" y="159"/>
			<point x="322" y="197" type="curve"/>
			<point x="281" y="239"/>
			<point x="238" y="260"/>
			<point x="191" y="260" type="curve"/>
			<point x="127" y="260"/>
			<point x="75" y="230"/>
			<point x="35" y="171" type="curve"/>
			<point x="52" y="160" type="line"/>
			<point x="88" y="213"/>
			<point x="134" y="240"/>
			<point x="191" y="240" type="curve"/>
			<point x="232" y="240"/>
			<point x="271" y="221"/>
			<point x="308" y="183" type="curve"/>
			<point x="349" y="141"/>
			<point x="392" y="120"/>
		</contour>
		<contour>
			<point x="439" y="320" type="curve"/>
			<point x="503" y="320"/>
			<point x="555" y="350"/>
			<point x="595" y="409" type="curve"/>
			<point x="578" y="420" type="line"/>
			<point x="543" y="367"/>
			<point x="496" y="340"/>
			<point x="439" y="340" type="curve"/>
			<point x="398" y="340"/>
			<point x="359" y="359"/>
			<point x="322" y="397" type="curve"/>
			<point x="281" y="439"/>
			<point x="238" y="460"/>
			<point x="191" y="460" type="curve"/>
			<point x="127" y="460"/>
			<point x="75" y="430"/>
			<point x="35" y="371" type="curve"/>
			<point x="52" y="360" type="line"/>
			<point x="88" y="413"/>
			<point x="134" y="440"/>
			<point x="191" y="440" type="curve"/>
			<point x="232" y="440"/>
			<point x="271" y="421"/>
			<point x="308" y="383" type="curve"/>
			<point x="349" y="341"/>
			<point x="392" y="320"/>
		</contour>
	</outline>
</glyph>
<glyph name="twoemdash" format="2">
	<advance width="2000"/>
	<unicode hex="2E3A"/>
	<outline>
		<contour>
			<point x="1965" y="260" type="line"/>
			<point x="35" y="260" type="line"/>
			<point x="35" y="240" type="line"/>
			<point x="1965" y="240" type="line"/>
		</contour>
	</outline>
</glyph>
<glyph name="fsmallcapital" format="2">
	<advance width="313"/>
	<unicode hex="A730"/>
	<outline>
		<contour>
			<point x="90" y="261" type="line"/>
			<point x="90" y="480" type="line"/>
			<point x="278" y="480" type="line"/>
			<point x="278" y="500" type="line"/>
			<point x="70" y="500" type="line"/>
			<point x="70" y="0" type="line"/>
			<point x="90" y="0" type="line"/>
			<point x="90" y="241" type="line"/>
			<point x="267" y="241" type="line"/>
			<point x="267" y="261" type="line"/>
		</contour>
	</outline>
</glyph>
<glyph name="uF000" format="2">
	<advance width="1000"/>
	<unicode hex="F000"/>
	<outline>
		<contour>
			<point x="931" y="350" type="line"/>
			<point x="881" y="473"/>
			<point x="714" y="586"/>
			<point x="547" y="586" type="curve"/>
			<point x="410" y="586"/>
			<point x="299" y="531"/>
			<point x="250" y="480" type="curve"/>
			<point x="250" y="350" type="line"/>
			<point x="470" y="350" type="line"/>
			<point x="470" y="480" type="line"/>
			<point x="700" y="350" type="line"/>
		</contour>
		<contour>
			<point x="350" y="593" type="curve"/>
			<point x="350" y="660" type="line"/>
			<point x="101" y="660" type="line"/>
			<point x="250" y="590" type="line"/>
			<point x="250" y="530" type="line"/>
			<point x="286" y="564"/>
			<point x="314" y="579"/>
		</contour>
		<contour>
			<point x="200" y="350" type="line"/>
			<point x="200" y="476" type="line"/>
			<point x="110" y="446" type="line"/>
			<point x="110" y="350" type="line"/>
		</contour>
		<contour>
			<point x="399" y="660" type="line"/>
			<point x="399" y="606" type="line"/>
			<point x="440" y="616"/>
			<point x="495" y="621"/>
			<point x="547" y="621" type="curve"/>
		</contour>
		<contour>
			<point x="547" y="114" type="curve"/>
			<point x="714" y="114"/>
			<point x="881" y="227"/>
			<point x="931" y="350" type="curve"/>
			<point x="700" y="350" type="line"/>
			<point x="470" y="220" type="line"/>
			<point x="470" y="350" type="line"/>
			<point x="250" y="350" type="line"/>
			<point x="250" y="220" type="line"/>
			<point x="299" y="169"/>
			<point x="410" y="114"/>
		</contour>
		<contour>
			<point x="350" y="107" type="line"/>
			<point x="314" y="121"/>
			<point x="286" y="136"/>
			<point x="250" y="170" type="curve"/>
			<point x="250" y="110" type="line"/>
			<point x="101" y="40" type="line"/>
			<point x="350" y="40" type="line"/>
		</contour>
		<contour>
			<point x="200" y="224" type="line"/>
			<point x="200" y="350" type="line"/>
			<point x="110" y="350" type="line"/>
			<point x="110" y="254" type="line"/>
		</contour>
		<contour>
			<point x="399" y="40" type="line"/>
			<point x="547" y="79" type="line"/>
			<point x="495" y="79"/>
			<point x="440" y="84"/>
			<point x="399" y="94" type="curve"/>
		</contour>
		<contour>
			<point x="71" y="350" type="line"/>
			<point x="71" y="350" type="line"/>
			<point x="71" y="350"/>
			<point x="71" y="350"/>
			<point x="71" y="350" type="curve"/>
			<point x="71" y="350"/>
			<point x="71" y="350"/>
			<point x="71" y="350" type="curve"/>
		</contour>
		<contour>
			<point x="71" y="350" type="line"/>
			<point x="71" y="350"/>
			<point x="71" y="350"/>
			<point x="71" y="350" type="curve"/>
			<point x="71" y="350"/>
			<point x="71" y="350"/>
			<point x="71" y="350" type="curve"/>
			<point x="71" y="350" type="line"/>
			<point x="71" y="350"/>
			<point x="71" y="350"/>
			<point x="71" y="350" type="curve"/>
			<point x="71" y="350"/>
			<point x="71" y="350"/>
			<point x="71" y="350" type="curve"/>
		</contour>
		<contour>
			<point x="71" y="350" type="line"/>
			<point x="71" y="350" type="line"/>
			<point x="71" y="350"/>
			<point x="71" y="350"/>
			<point x="71" y="350" type="curve"/>
			<point x="71" y="350"/>
			<point x="71" y="350"/>
			<point x="71" y="350" type="curve"/>
		</contour>
		<contour>
			<point x="71" y="350" type="curve"/>
			<point x="71" y="350" type="line"/>
			<point x="71" y="350"/>
			<point x="71" y="350"/>
			<point x="71" y="350" type="curve"/>
			<point x="71" y="350"/>
			<point x="71" y="350"/>
			<point x="71" y="350" type="curve"/>
			<point x="71" y="350" type="line"/>
			<point x="71" y="350"/>
			<point x="71" y="350"/>
			<point x="71" y="350" type="curve"/>
			<point x="71" y="350"/>
			<point x="71" y="350"/>
		</contour>
	</outline>
</glyph>
<glyph name="Longs" format="2">
	<advance width="300"/>
	<outline>
		<contour>
			<point x="261" y="710" type="line"/>
			<point x="122" y="682"/>
			<point x="70" y="609"/>
			<point x="70" y="437" type="curve"/>
			<point x="70" y="0" type="line"/>
			<point x="90" y="0" type="line"/>
			<point x="90" y="437" type="line"/>
			<point x="90" y="601"/>
			<point x="140" y="664"/>
			<point x="265" y="690" type="curve"/>
		</contour>
	</outline>
</glyph>
<glyph name="__AE" format="2">
	<advance width="891"/>
	<outline>
		<contour>
			<point x="50" y="-7" type="line"/>
			<point x="559" y="693" type="line"/>
			<point x="540" y="700" type="line"/>
			<point x="35" y="6" type="line"/>
		</contour>
	</outline>
</glyph>
<glyph name="__AE_2" format="2">
	<advance width="891"/>
	<outline>
		<contour>
			<point x="212" y="238" type="line"/>
			<point x="551" y="238" type="line"/>
			<point x="551" y="258" type="line"/>
			<point x="232" y="258" type="line"/>
		</contour>
	</outline>
</glyph>
<glyph name="__Be-cyrl" format="2">
	<advance width="464"/>
	<outline>
		<contour>
			<point x="70" y="700" type="line"/>
			<point x="70" y="0" type="line"/>
			<point x="90" y="0" type="line"/>
			<point x="90" y="700" type="line"/>
		</contour>
		<contour>
			<point x="71" y="-10" type="line"/>
			<point x="294" y="-10"/>
			<point x="429" y="92"/>
			<point x="429" y="214" type="curve"/>
			<point x="429" y="336"/>
			<point x="279" y="367"/>
			<point x="71" y="367" type="curve"/>
			<point x="71" y="347" type="line"/>
			<point x="270" y="347"/>
			<point x="408" y="318"/>
			<point x="408" y="214" type="curve"/>
			<point x="408" y="106"/>
			<point x="279" y="10"/>
			<point x="71" y="10" type="curve"/>
		</contour>
	</outline>
</glyph>
<glyph name="__Dje-cyrl" format="2">
	<advance width="799"/>
	<outline>
		<contour>
			<point x="441" y="-10" type="line"/>
			<point x="620" y="-10"/>
			<point x="764" y="108"/>
			<point x="764" y="244" type="curve"/>
			<point x="764" y="360"/>
			<point x="616" y="428"/>
			<point x="341" y="428" type="curve"/>
			<point x="341" y="408" type="line"/>
			<point x="607" y="408"/>
			<point x="744" y="342"/>
			<point x="744" y="244" type="curve"/>
			<point x="744" y="116"/>
			<point x="601" y="10"/>
			<point x="441" y="10" type="curve"/>
		</contour>
	</outline>
</glyph>
<glyph name="__Dtopbar" format="2">
	<advance width="464"/>
	<outline>
		<contour>
			<point x="394" y="700" type="line"/>
			<point x="374" y="700" type="line"/>
			<point x="374" y="0" type="line"/>
			<point x="394" y="0" type="line"/>
		</contour>
		<contour>
			<point x="393" y="367" type="line"/>
			<point x="170" y="367"/>
			<point x="35" y="265"/>
			<point x="35" y="143" type="curve"/>
			<point x="35" y="21"/>
			<point x="185" y="-10"/>
			<point x="393" y="-10" type="curve"/>
			<point x="393" y="10" type="line"/>
			<point x="195" y="10"/>
			<point x="56" y="29"/>
			<point x="56" y="143" type="curve"/>
			<point x="56" y="257"/>
			<point x="185" y="347"/>
			<point x="393" y="347" type="curve"/>
		</contour>
	</outline>
</glyph>
<glyph name="__El-cyrl" format="2">
	<advance width="615"/>
	<outline>
		<contour>
			<point x="52" y="-7" type="line"/>
			<point x="416" y="689" type="line"/>
			<point x="400" y="700" type="line"/>
			<point x="35" y="4" type="line"/>
		</contour>
		<contour>
			<point x="545" y="700" type="line"/>
			<point x="400" y="700" type="line"/>
			<point x="400" y="680" type="line"/>
			<point x="545" y="680" type="line"/>
		</contour>
	</outline>
</glyph>
<glyph name="__Gheupturn-cyrl" format="2">
	<advance width="431"/>
	<outline>
		<contour>
			<point x="396" y="680" type="line"/>
			<point x="396" y="850" type="line"/>
			<point x="376" y="850" type="line"/>
			<point x="376" y="680" type="line"/>
		</contour>
	</outline>
</glyph>
<glyph name="__Hbar" format="2">
	<advance width="825"/>
	<outline>
		<contour>
			<point x="35" y="575" type="line"/>
			<point x="800" y="575" type="line"/>
			<point x="800" y="595" type="line"/>
			<point x="35" y="595" type="line"/>
		</contour>
	</outline>
</glyph>
<glyph name="__Nje-cyrl" format="2">
	<advance width="868"/>
	<outline>
		<contour>
			<point x="90" y="361" type="line"/>
			<point x="500" y="361" type="line"/>
			<point x="500" y="381" type="line"/>
			<point x="90" y="381" type="line"/>
			<point x="90" y="700" type="line"/>
			<point x="70" y="700" type="line"/>
			<point x="70" y="0" type="line"/>
			<point x="90" y="0" type="line"/>
		</contour>
	</outline>
</glyph>
<glyph name="__Oslash" format="2">
	<advance width="770"/>
	<outline>
		<contour>
			<point x="92" y="-15" type="line"/>
			<point x="693" y="702" type="line"/>
			<point x="678" y="715" type="line"/>
			<point x="77" y="-2" type="line"/>
		</contour>
	</outline>
</glyph>
<glyph name="__Signhard-cyrl" format="2">
	<advance width="604"/>
	<outline>
		<contour>
			<point x="246" y="700" type="line"/>
			<point x="35" y="700" type="line"/>
			<point x="35" y="680" type="line"/>
			<point x="246" y="680" type="line"/>
		</contour>
	</outline>
</glyph>
<glyph name="__Theta-grek" format="2">
	<advance width="770"/>
	<outline>
		<contour>
			<point x="545" y="360" type="line"/>
			<point x="225" y="360" type="line"/>
			<point x="225" y="340" type="line"/>
			<point x="545" y="340" type="line"/>
		</contour>
	</outline>
</glyph>
<glyph name="__Tse-cyrl_2" format="2">
	<advance width="708"/>
	<outline>
		<contour>
			<point x="673" y="20" type="line"/>
			<point x="567" y="20" type="line"/>
			<point x="567" y="0" type="line"/>
			<point x="653" y="0" type="line"/>
			<point x="653" y="-150" type="line"/>
			<point x="673" y="-150" type="line"/>
		</contour>
	</outline>
</glyph>
<glyph name="__Tshe-cyrl" format="2">
	<advance width="811"/>
	<outline>
		<contour>
			<point x="741" y="177" type="line"/>
			<point x="741" y="328"/>
			<point x="679" y="440"/>
			<point x="533" y="440" type="curve"/>
			<point x="446" y="440"/>
			<point x="383" y="411"/>
			<point x="331" y="352" type="curve"/>
			<point x="331" y="327" type="line"/>
			<point x="396" y="397"/>
			<point x="453" y="420"/>
			<point x="533" y="420" type="curve"/>
			<point x="661" y="420"/>
			<point x="721" y="319"/>
			<point x="721" y="177" type="curve"/>
			<point x="721" y="0" type="line"/>
			<point x="741" y="0" type="line"/>
		</contour>
	</outline>
</glyph>
<glyph name="__cent" format="2">
	<advance width="455"/>
	<outline>
		<contour>
			<point x="260" y="474" type="line"/>
			<point x="260" y="600" type="line"/>
			<point x="240" y="600" type="line"/>
			<point x="240" y="464" type="line"/>
		</contour>
		<contour>
			<point x="240" y="6" type="line"/>
			<point x="240" y="-100" type="line"/>
			<point x="260" y="-100" type="line"/>
			<point x="260" y="6" type="line"/>
		</contour>
	</outline>
</glyph>
<glyph name="__copyright" format="2">
	<advance width="820"/>
	<outline>
		<contour>
			<point x="410" y="-15" type="curve"/>
			<point x="624" y="-15"/>
			<point x="785" y="145"/>
			<point x="785" y="350" type="curve"/>
			<point x="785" y="549"/>
			<point x="630" y="715"/>
			<point x="410" y="715" type="curve"/>
			<point x="202" y="715"/>
			<point x="35" y="560"/>
			<point x="35" y="350" type="curve"/>
			<point x="35" y="146"/>
			<point x="196" y="-15"/>
		</contour>
		<contour>
			<point x="410" y="5" type="curve"/>
			<point x="211" y="5"/>
			<point x="55" y="152"/>
			<point x="55" y="350" type="curve"/>
			<point x="55" y="548"/>
			<point x="210" y="695"/>
			<point x="410" y="695" type="curve"/>
			<point x="609" y="695"/>
			<point x="765" y="548"/>
			<point x="765" y="350" type="curve"/>
			<point x="765" y="152"/>
			<point x="610" y="5"/>
		</contour>
	</outline>
</glyph>
<glyph name="__copyright_2" format="2">
	<advance width="820"/>
	<outline>
		<contour>
			<point x="511" y="560" type="line"/>
			<point x="336" y="560"/>
			<point x="232" y="432"/>
			<point x="232" y="300" type="curve"/>
			<point x="232" y="209"/>
			<point x="325" y="160"/>
			<point x="408" y="160" type="curve"/>
			<point x="459" y="160"/>
			<point x="495" y="163"/>
			<point x="528" y="175" type="curve"/>
			<point x="521" y="193" type="line"/>
			<point x="489" y="183"/>
			<point x="444" y="180"/>
			<point x="415" y="180" type="curve"/>
			<point x="336" y="180"/>
			<point x="252" y="216"/>
			<point x="252" y="300" type="curve"/>
			<point x="252" y="424"/>
			<point x="345" y="540"/>
			<point x="511" y="540" type="curve"/>
		</contour>
	</outline>
</glyph>
<glyph name="__dcroat" format="2">
	<advance width="550"/>
	<outline>
		<contour>
			<point x="195" y="605" type="line"/>
			<point x="515" y="605" type="line"/>
			<point x="515" y="625" type="line"/>
			<point x="195" y="625" type="line"/>
		</contour>
	</outline>
</glyph>
<glyph name="__dollar" format="2">
	<advance width="357"/>
	<outline>
		<contour>
			<point x="150" y="654" type="line"/>
			<point x="150" y="800" type="line"/>
			<point x="130" y="800" type="line"/>
			<point x="130" y="644" type="line"/>
		</contour>
		<contour>
			<point x="220" y="46" type="line"/>
			<point x="220" y="-100" type="line"/>
			<point x="240" y="-100" type="line"/>
			<point x="240" y="56" type="line"/>
		</contour>
	</outline>
</glyph>
<glyph name="__el-cyrl" format="2">
	<advance width="469"/>
	<outline>
		<contour>
			<point x="52" y="-7" type="line"/>
			<point x="311" y="489" type="line"/>
			<point x="295" y="500" type="line"/>
			<point x="35" y="4" type="line"/>
		</contour>
		<contour>
			<point x="399" y="500" type="line"/>
			<point x="295" y="500" type="line"/>
			<point x="295" y="480" type="line"/>
			<point x="399" y="480" type="line"/>
		</contour>
	</outline>
</glyph>
<glyph name="__eng" format="2">
	<advance width="560"/>
	<outline>
		<contour>
			<point x="352" y="-239" type="line"/>
			<point x="438" y="-207"/>
			<point x="490" y="-137"/>
			<point x="490" y="0" type="curve"/>
			<point x="490" y="200" type="line"/>
			<point x="470" y="200" type="line"/>
			<point x="470" y="0" type="line"/>
			<point x="470" y="-129"/>
			<point x="421" y="-192"/>
			<point x="345" y="-219" type="curve"/>
		</contour>
	</outline>
</glyph>
<glyph name="__f" format="2">
	<advance width="340"/>
	<outline>
		<contour>
			<point x="281" y="500" type="line"/>
			<point x="35" y="500" type="line"/>
			<point x="35" y="480" type="line"/>
			<point x="281" y="480" type="line"/>
		</contour>
	</outline>
</glyph>
<glyph name="__lshash" format="2">
	<advance width="358"/>
	<outline>
		<contour>
			<point x="45" y="306" type="line"/>
			<point x="323" y="466" type="line"/>
			<point x="313" y="484" type="line"/>
			<point x="35" y="324" type="line"/>
		</contour>
	</outline>
</glyph>
<glyph name="__nje-cyrl" format="2">
	<advance width="723"/>
	<outline>
		<contour>
			<point x="90" y="255" type="line"/>
			<point x="405" y="255" type="line"/>
			<point x="405" y="275" type="line"/>
			<point x="90" y="275" type="line"/>
			<point x="90" y="500" type="line"/>
			<point x="70" y="500" type="line"/>
			<point x="70" y="0" type="line"/>
			<point x="90" y="0" type="line"/>
		</contour>
	</outline>
</glyph>
<glyph name="__oslash" format="2">
	<advance width="576"/>
	<outline>
		<contour>
			<point x="79" y="-15" type="line"/>
			<point x="132" y="48" type="line"/>
			<point x="137" y="54" type="line"/>
			<point x="454" y="433" type="line"/>
			<point x="462" y="442" type="line"/>
			<point x="512" y="502" type="line"/>
			<point x="497" y="515" type="line"/>
			<point x="447" y="455" type="line"/>
			<point x="441" y="448" type="line"/>
			<point x="122" y="67" type="line"/>
			<point x="118" y="62" type="line"/>
			<point x="64" y="-2" type="line"/>
		</contour>
	</outline>
</glyph>
<glyph name="__qsmallcapital" format="2">
	<advance width="576"/>
	<outline>
		<contour>
			<point x="279" y="8" type="line"/>
			<point x="262" y="-7" type="line"/>
			<point x="523" y="-91" type="line"/>
			<point x="529" y="-72" type="line"/>
		</contour>
	</outline>
</glyph>
<glyph name="__registered" format="2">
	<advance width="820"/>
	<outline>
		<contour>
			<point x="343" y="155" type="line"/>
			<point x="343" y="542" type="line"/>
			<point x="323" y="542" type="line"/>
			<point x="323" y="155" type="line"/>
		</contour>
		<contour>
			<point x="407" y="322" type="line"/>
			<point x="464" y="349"/>
			<point x="516" y="390"/>
			<point x="516" y="442" type="curve"/>
			<point x="516" y="529"/>
			<point x="427" y="550"/>
			<point x="323" y="550" type="curve"/>
			<point x="323" y="530" type="line"/>
			<point x="422" y="530"/>
			<point x="496" y="520"/>
			<point x="496" y="442" type="curve"/>
			<point x="496" y="394"/>
			<point x="451" y="363"/>
			<point x="387" y="334" type="curve"/>
			<point x="536" y="150" type="line"/>
			<point x="553" y="160" type="line"/>
			<point x="413" y="333" type="line"/>
		</contour>
	</outline>
</glyph>
<glyph name="__signhard-cyrl" format="2">
	<advance width="503"/>
	<outline>
		<contour>
			<point x="195" y="500" type="line"/>
			<point x="35" y="500" type="line"/>
			<point x="35" y="480" type="line"/>
			<point x="195" y="480" type="line"/>
		</contour>
	</outline>
</glyph>
<glyph name="__sterling" format="2">
	<advance width="406"/>
	<outline>
		<contour>
			<point x="371" y="20" type="line"/>
			<point x="35" y="20" type="line"/>
			<point x="35" y="0" type="line"/>
			<point x="371" y="0" type="line"/>
		</contour>
		<contour>
			<point x="42" y="0" type="line"/>
			<point x="128" y="32"/>
			<point x="180" y="102"/>
			<point x="180" y="239" type="curve"/>
			<point x="180" y="329" type="line"/>
			<point x="160" y="329" type="line"/>
			<point x="160" y="239" type="line"/>
			<point x="160" y="110"/>
			<point x="111" y="47"/>
			<point x="35" y="20" type="curve"/>
		</contour>
		<contour>
			<point x="351" y="740" type="line"/>
			<point x="212" y="712"/>
			<point x="160" y="639"/>
			<point x="160" y="467" type="curve"/>
			<point x="160" y="329" type="line"/>
			<point x="180" y="329" type="line"/>
			<point x="180" y="467" type="line"/>
			<point x="180" y="631"/>
			<point x="230" y="694"/>
			<point x="355" y="720" type="curve"/>
		</contour>
	</outline>
</glyph>
<glyph name="__sterling_2" format="2">
	<advance width="406"/>
	<outline>
		<contour>
			<point x="331" y="400" type="line"/>
			<point x="75" y="400" type="line"/>
			<point x="75" y="380" type="line"/>
			<point x="331" y="380" type="line"/>
		</contour>
	</outline>
</glyph>
<glyph name="__tbar" format="2">
	<advance width="286"/>
	<outline>
		<contour>
			<point x="251" y="305" type="line"/>
			<point x="35" y="305" type="line"/>
			<point x="35" y="285" type="line"/>
			<point x="251" y="285" type="line"/>
		</contour>
	</outline>
</glyph>
<glyph name="__tse-cyrl" format="2">
	<advance width="763"/>
	<outline>
		<contour>
			<point x="432" y="0" type="line"/>
			<point x="432" y="500" type="line"/>
			<point x="412" y="500" type="line"/>
			<point x="412" y="20" type="line"/>
			<point x="90" y="20" type="line"/>
			<point x="90" y="500" type="line"/>
			<point x="70" y="500" type="line"/>
			<point x="70" y="0" type="line"/>
		</contour>
	</outline>
</glyph>
<glyph name=".notdef" format="2">
	<advance width="456"/>
	<outline>
		<contour>
			<point x="212" y="178" type="line"/>
			<point x="209" y="195"/>
			<point x="207" y="209"/>
			<point x="207" y="221" type="curve"/>
			<point x="207" y="234"/>
			<point x="209" y="244"/>
			<point x="212" y="252" type="curve"/>
			<point x="219" y="269"/>
			<point x="231" y="287"/>
			<point x="249" y="307" type="curve"/>
			<point x="306" y="369" type="line"/>
			<point x="325" y="390"/>
			<point x="343" y="412"/>
			<point x="357" y="435" type="curve"/>
			<point x="372" y="458"/>
			<point x="383" y="479"/>
			<point x="389" y="498" type="curve"/>
			<point x="396" y="517"/>
			<point x="399" y="539"/>
			<point x="399" y="563" type="curve"/>
			<point x="399" y="612"/>
			<point x="384" y="650"/>
			<point x="355" y="678" type="curve"/>
			<point x="326" y="706"/>
			<point x="283" y="720"/>
			<point x="226" y="720" type="curve"/>
			<point x="171" y="720"/>
			<point x="115" y="697"/>
			<point x="58" y="652" type="curve"/>
			<point x="87" y="616" type="line"/>
			<point x="135" y="656"/>
			<point x="179" y="676"/>
			<point x="220" y="676" type="curve"/>
			<point x="258" y="676"/>
			<point x="288" y="666"/>
			<point x="312" y="646" type="curve"/>
			<point x="335" y="625"/>
			<point x="347" y="597"/>
			<point x="347" y="560" type="curve"/>
			<point x="347" y="540"/>
			<point x="346" y="523"/>
			<point x="343" y="510" type="curve"/>
			<point x="340" y="496"/>
			<point x="332" y="479"/>
			<point x="320" y="457" type="curve"/>
			<point x="308" y="435"/>
			<point x="291" y="413"/>
			<point x="268" y="392" type="curve"/>
			<point x="246" y="370"/>
			<point x="225" y="348"/>
			<point x="205" y="326" type="curve"/>
			<point x="186" y="304"/>
			<point x="172" y="283"/>
			<point x="164" y="263" type="curve"/>
			<point x="160" y="252"/>
			<point x="157" y="239"/>
			<point x="157" y="223" type="curve"/>
			<point x="157" y="209"/>
			<point x="159" y="195"/>
			<point x="162" y="178" type="curve"/>
		</contour>
		<contour>
			<point x="187" y="-13" type="curve"/>
			<point x="211" y="-13"/>
			<point x="232" y="6"/>
			<point x="232" y="33" type="curve"/>
			<point x="232" y="57"/>
			<point x="213" y="78"/>
			<point x="187" y="78" type="curve"/>
			<point x="162" y="78"/>
			<point x="141" y="58"/>
			<point x="141" y="33" type="curve"/>
			<point x="141" y="6"/>
			<point x="163" y="-13"/>
		</contour>
	</outline>
</glyph>
<glyph name="acutecombsmall" format="2">
	<advance width="0"/>
	<outline>
		<contour>
			<point x="36" y="613" type="line"/>
			<point x="52" y="600" type="line"/>
			<point x="187" y="746" type="line"/>
			<point x="157" y="772" type="line"/>
		</contour>
	</outline>
</glyph>
<glyph name="gravecombsmall" format="2">
	<advance width="0"/>
	<outline>
		<contour>
			<point x="187" y="613" type="line"/>
			<point x="66" y="772" type="line"/>
			<point x="36" y="746" type="line"/>
			<point x="171" y="600" type="line"/>
		</contour>
	</outline>
</glyph>
<glyph name="hookcombsmall" format="2">
	<advance width="0"/>
	<outline>
		<contour>
			<point x="103" y="700" type="line"/>
			<point x="123" y="700" type="line"/>
			<point x="123" y="717" type="line"/>
			<point x="117" y="714" type="line"/>
			<point x="144" y="714"/>
			<point x="190" y="728"/>
			<point x="190" y="775" type="curve"/>
			<point x="190" y="812"/>
			<point x="138" y="848"/>
			<point x="56" y="850" type="curve"/>
			<point x="55" y="831" type="line"/>
			<point x="127" y="830"/>
			<point x="170" y="794"/>
			<point x="170" y="775" type="curve"/>
			<point x="170" y="743"/>
			<point x="133" y="732"/>
			<point x="103" y="732" type="curve"/>
		</contour>
	</outline>
</glyph>
<glyph name="middotcomb" format="2">
	<advance width="0"/>
	<outline>
		<contour>
			<point x="80" y="215" type="curve"/>
			<point x="101" y="215"/>
			<point x="115" y="232"/>
			<point x="115" y="254" type="curve"/>
			<point x="115" y="270"/>
			<point x="101" y="285"/>
			<point x="80" y="285" type="curve"/>
			<point x="60" y="285"/>
			<point x="45" y="268"/>
			<point x="45" y="246" type="curve"/>
			<point x="45" y="230"/>
			<point x="59" y="215"/>
		</contour>
	</outline>
</glyph>
<glyph name="one.osf" format="2">
	<advance width="500"/>
	<outline>
		<contour>
			<point x="337" y="0" type="line"/>
			<point x="337" y="520" type="line"/>
			<point x="336" y="520" type="line"/>
			<point x="98" y="296" type="line"/>
			<point x="113" y="283" type="line"/>
			<point x="330" y="487" type="line"/>
			<point x="317" y="487" type="line"/>
			<point x="317" y="0" type="line"/>
		</contour>
	</outline>
</glyph>
<glyph name="primecomb" format="2">
	<advance width="0"/>
	<outline>
		<contour>
			<point x="0" y="519" type="line"/>
			<point x="19" y="512" type="line"/>
			<point x="96" y="696" type="line"/>
			<point x="59" y="710" type="line"/>
		</contour>
	</outline>
</glyph>
<glyph name="two.osf" format="2">
	<advance width="550"/>
	<outline>
		<contour>
			<point x="97" y="0" type="line"/>
			<point x="258" y="65"/>
			<point x="469" y="215"/>
			<point x="469" y="336" type="curve"/>
			<point x="469" y="431"/>
			<point x="320" y="510"/>
			<point x="111" y="510" type="curve"/>
			<point x="111" y="490" type="line"/>
			<point x="299" y="490"/>
			<point x="449" y="420"/>
			<point x="449" y="336" type="curve"/>
			<point x="449" y="223"/>
			<point x="252" y="83"/>
			<point x="51" y="1" type="curve"/>
			<point x="51" y="0" type="line"/>
			<point x="499" y="0" type="line"/>
			<point x="499" y="20" type="line"/>
			<point x="101" y="20" type="line"/>
		</contour>
	</outline>
</glyph>
<glyph name="zero.osf" format="2">
	<advance width="550"/>
	<outline>
		<contour>
			<point x="275" y="-10" type="curve"/>
			<point x="411" y="-10"/>
			<point x="508" y="119"/>
			<point x="508" y="279" type="curve"/>
			<point x="508" y="396"/>
			<point x="416" y="510"/>
			<point x="275" y="510" type="curve"/>
			<point x="139" y="510"/>
			<point x="43" y="381"/>
			<point x="43" y="221" type="curve"/>
			<point x="43" y="104"/>
			<point x="134" y="-10"/>
		</contour>
		<contour>
			<point x="275" y="10" type="curve"/>
			<point x="146" y="10"/>
			<point x="63" y="115"/>
			<point x="63" y="223" type="curve"/>
			<point x="63" y="371"/>
			<point x="151" y="490"/>
			<point x="275" y="490" type="curve"/>
			<point x="404" y="490"/>
			<point x="488" y="385"/>
			<point x="488" y="277" type="curve"/>
			<point x="488" y="129"/>
			<point x="399" y="10"/>
		</contour>
	</outline>
</glyph>
